<?xml version="1.0" encoding="UTF-8" standalone="no"?>
<svg
   xmlns:dc="http://purl.org/dc/elements/1.1/"
   xmlns:cc="http://creativecommons.org/ns#"
   xmlns:rdf="http://www.w3.org/1999/02/22-rdf-syntax-ns#"
   xmlns:svg="http://www.w3.org/2000/svg"
   xmlns="http://www.w3.org/2000/svg"
   xmlns:sodipodi="http://sodipodi.sourceforge.net/DTD/sodipodi-0.dtd"
   xmlns:inkscape="http://www.inkscape.org/namespaces/inkscape"
   sodipodi:docname="About.svg"
   inkscape:version="1.0 (4035a4fb49, 2020-05-01)"
   id="svg8"
   version="1.1"
   viewBox="0 0 264.58333 71.437503"
   height="270"
   width="1000">
  <defs
     id="defs2" />
  <sodipodi:namedview
     inkscape:window-maximized="1"
     inkscape:window-y="-11"
     inkscape:window-x="-11"
     inkscape:window-height="1514"
     inkscape:window-width="2880"
     units="px"
     showgrid="false"
     inkscape:document-rotation="0"
     inkscape:current-layer="layer1"
     inkscape:document-units="px"
     inkscape:cy="199.80215"
     inkscape:cx="299.92649"
     inkscape:zoom="0.98994949"
     inkscape:pageshadow="2"
     inkscape:pageopacity="0.0"
     borderopacity="1.0"
     bordercolor="#666666"
     pagecolor="#ffffff"
     id="base" />
  <metadata
     id="metadata5">
    <rdf:RDF>
      <cc:Work
         rdf:about="">
        <dc:format>image/svg+xml</dc:format>
        <dc:type
           rdf:resource="http://purl.org/dc/dcmitype/StillImage" />
        <dc:title />
      </cc:Work>
    </rdf:RDF>
  </metadata>
  <g
     id="layer1"
     inkscape:groupmode="layer"
     inkscape:label="Layer 1">
    <path
       d="M 28.716148,59.513882 17.921141,3.1399549 H 10.583358 L 1.750803e-5,59.513882 H 2.6811304 L 5.0800209,46.743318 H 18.979475 L 21.30781,59.513882 Z M 18.626697,44.697205 H 5.4327989 L 12.135581,9.4899591 Z"
       style="font-style:normal;font-variant:normal;font-weight:normal;font-stretch:normal;font-size:70.5556px;line-height:1.25;font-family:'Dream Orphans';-inkscape-font-specification:'Dream Orphans';letter-spacing:0px;word-spacing:0px;fill:#000000;fill-opacity:1;stroke:none;stroke-width:0.264583"
       id="path837" />
    <path
       d="m 37.597334,59.513882 1.481667,-5.150559 c 1.12889,3.880558 4.303892,6.279448 8.748895,6.279448 9.101673,0 14.746121,-10.018895 14.746121,-24.906128 0,-13.405564 -4.65667,-22.013348 -13.193898,-22.013348 -4.65667,0 -8.466672,2.540002 -10.301118,7.761117 V 1.9405096 L 31.741218,4.2688445 V 59.513882 Z m 1.481667,-33.86669 c 1.270001,-5.150559 4.162781,-8.396117 7.972783,-8.396117 6.561671,0 7.972783,9.807229 7.972783,20.178903 0,13.405565 -2.257779,21.378348 -7.478893,21.378348 -3.739447,0 -7.196672,-4.445003 -8.466673,-9.807229 z"
       style="font-style:normal;font-variant:normal;font-weight:normal;font-stretch:normal;font-size:70.5556px;line-height:1.25;font-family:'Dream Orphans';-inkscape-font-specification:'Dream Orphans';letter-spacing:0px;word-spacing:0px;fill:#000000;fill-opacity:1;stroke:none;stroke-width:0.264583"
       id="path839" />
    <path
       d="m 82.185162,60.642771 c 10.371673,0 17.215567,-6.561671 17.215567,-24.55335 0,-14.887232 -4.797781,-22.366126 -15.7339,-22.366126 -12.911675,0 -17.074456,10.301118 -17.074456,24.623906 0,14.675565 4.374448,22.29557 15.592789,22.29557 z m 1.905001,-2.257779 c -6.773338,0 -10.089451,-7.902228 -10.089451,-23.353905 0,-13.687787 2.610557,-18.76779 7.620005,-18.76779 6.208893,0 10.795007,7.831672 10.795007,24.059461 0,13.546675 -3.245558,18.062234 -8.325561,18.062234 z"
       style="font-style:normal;font-variant:normal;font-weight:normal;font-stretch:normal;font-size:70.5556px;line-height:1.25;font-family:'Dream Orphans';-inkscape-font-specification:'Dream Orphans';letter-spacing:0px;word-spacing:0px;fill:#000000;fill-opacity:1;stroke:none;stroke-width:0.264583"
       id="path841" />
    <path
       d="M 132.52549,59.513882 V 14.28774 l -7.33779,2.328335 v 31.750021 c -0.77611,3.951114 -2.96333,9.666118 -8.11389,9.666118 -3.73945,0 -5.92667,-3.175002 -5.92667,-9.666118 V 14.28774 l -7.33779,2.328335 v 32.7378 c 0,6.843893 4.23334,11.288896 11.57112,11.288896 5.08001,0 7.90223,-2.610557 9.80723,-6.350004 l 1.48167,5.221115 z"
       style="font-style:normal;font-variant:normal;font-weight:normal;font-stretch:normal;font-size:70.5556px;line-height:1.25;font-family:'Dream Orphans';-inkscape-font-specification:'Dream Orphans';letter-spacing:0px;word-spacing:0px;fill:#000000;fill-opacity:1;stroke:none;stroke-width:0.264583"
       id="path843" />
    <path
       d="m 156.62463,56.762213 c -1.48167,1.199445 -2.46944,1.622779 -3.95111,1.622779 -4.51556,0 -6.27945,-4.162781 -6.27945,-8.043339 V 16.686631 h 5.92667 v -1.975557 h -5.92667 V 5.3977342 h -0.635 c -1.27,6.2088928 -4.445,9.3133398 -10.16001,9.3133398 v 1.975557 h 3.45723 v 32.667244 c 0,6.632227 3.38667,11.288896 11.43,11.288896 2.61056,0 4.86834,-0.493889 6.77334,-2.257779 z"
       style="font-style:normal;font-variant:normal;font-weight:normal;font-stretch:normal;font-size:70.5556px;line-height:1.25;font-family:'Dream Orphans';-inkscape-font-specification:'Dream Orphans';letter-spacing:0px;word-spacing:0px;fill:#000000;fill-opacity:1;stroke:none;stroke-width:0.264583"
       id="path845" />
  </g>
</svg>
