<?xml version="1.0" encoding="UTF-8" standalone="no"?>
<svg
   xmlns:dc="http://purl.org/dc/elements/1.1/"
   xmlns:cc="http://creativecommons.org/ns#"
   xmlns:rdf="http://www.w3.org/1999/02/22-rdf-syntax-ns#"
   xmlns:svg="http://www.w3.org/2000/svg"
   xmlns="http://www.w3.org/2000/svg"
   xmlns:sodipodi="http://sodipodi.sourceforge.net/DTD/sodipodi-0.dtd"
   xmlns:inkscape="http://www.inkscape.org/namespaces/inkscape"
   sodipodi:docname="app mockup.svg"
   inkscape:version="1.0 (4035a4fb49, 2020-05-01)"
   id="svg8"
   version="1.1"
   viewBox="0 0 71.350723 142.30489"
   height="142.30489mm"
   width="71.350723mm">
  <defs
     id="defs2">
    <clipPath
       clipPathUnits="userSpaceOnUse"
       id="clipPath853">
      <path
         d="M 4658.55,46.9102 H 362.551 V 922.91 H 1137.75 V 123.711 h 2745.6 V 922.91 h 775.2 V 46.9102"
         id="path851" />
    </clipPath>
    <clipPath
       clipPathUnits="userSpaceOnUse"
       id="clipPath1035">
      <path
         d="m 3883.35,922.91 h -129.6 v 772.8 h -254.2 v 72 h 254.2 v 2368.81 h -254.2 v 94.39 c 0,158.86 -128.78,287.64 -287.65,287.64 H 1814.29 c -123.12,0 -229.43,-75.69 -274.69,-182.84 h -217.05 v -199.19 h -45.6 V 1767.71 h 45.6 v -72 h -45.6 v -772.8 h -139.2 v 3957.61 h 2745.6 V 922.91"
         id="path1033" />
    </clipPath>
    <clipPath
       clipPathUnits="userSpaceOnUse"
       id="clipPath1041">
      <path
         d="m 1132.95,4220.52 h 2755.2 v 664.797 h -2755.2 z"
         id="path1039" />
    </clipPath>
    <clipPath
       clipPathUnits="userSpaceOnUse"
       id="clipPath1053">
      <path
         d="m 3883.35,922.91 h -129.6 v 772.8 h -254.2 v 72 h 254.2 v 2368.81 h -254.2 v 94.39 c 0,158.86 -128.78,287.64 -287.65,287.64 H 1814.29 c -123.12,0 -229.43,-75.69 -274.69,-182.84 h -217.05 v -199.19 h -45.6 V 1767.71 h 45.6 v -72 h -45.6 v -772.8 h -139.2 v 3957.61 h 2745.6 V 922.91"
         id="path1051" />
    </clipPath>
    <clipPath
       clipPathUnits="userSpaceOnUse"
       id="clipPath1059">
      <path
         d="m 1132.95,918.109 h 348 v 3307.2 h -348 z"
         id="path1057" />
    </clipPath>
    <clipPath
       clipPathUnits="userSpaceOnUse"
       id="clipPath1071">
      <path
         d="m 3883.35,922.91 h -129.6 v 772.8 h -254.2 v 72 h 254.2 v 2368.81 h -254.2 v 94.39 c 0,158.86 -128.78,287.64 -287.65,287.64 H 1814.29 c -123.12,0 -229.43,-75.69 -274.69,-182.84 h -217.05 v -199.19 h -45.6 V 1767.71 h 45.6 v -72 h -45.6 v -772.8 h -139.2 v 3957.61 h 2745.6 V 922.91"
         id="path1069" />
    </clipPath>
    <clipPath
       clipPathUnits="userSpaceOnUse"
       id="clipPath1077">
      <path
         d="m 3194.55,3889.31 h 693.598 v 336.004 H 3194.55 Z"
         id="path1075" />
    </clipPath>
    <clipPath
       clipPathUnits="userSpaceOnUse"
       id="clipPath1089">
      <path
         d="m 3883.35,922.91 h -129.6 v 772.8 h -254.2 v 72 h 254.2 v 2368.81 h -254.2 v 94.39 c 0,158.86 -128.78,287.64 -287.65,287.64 H 1814.29 c -123.12,0 -229.43,-75.69 -274.69,-182.84 h -217.05 v -199.19 h -45.6 V 1767.71 h 45.6 v -72 h -45.6 v -772.8 h -139.2 v 3957.61 h 2745.6 V 922.91"
         id="path1087" />
    </clipPath>
    <clipPath
       clipPathUnits="userSpaceOnUse"
       id="clipPath1095">
      <path
         d="m 3540.15,918.109 h 348 v 2976 h -348 z"
         id="path1093" />
    </clipPath>
    <clipPath
       clipPathUnits="userSpaceOnUse"
       id="clipPath1107">
      <path
         d="m 3883.35,922.91 h -129.6 v 772.8 h -254.2 v 72 h 254.2 v 2368.81 h -254.2 v 94.39 c 0,158.86 -128.78,287.64 -287.65,287.64 H 1814.29 c -123.12,0 -229.43,-75.69 -274.69,-182.84 h -217.05 v -199.19 h -45.6 V 1767.71 h 45.6 v -72 h -45.6 v -772.8 h -139.2 v 3957.61 h 2745.6 V 922.91"
         id="path1105" />
    </clipPath>
    <clipPath
       clipPathUnits="userSpaceOnUse"
       id="clipPath1113">
      <path
         d="m 3194.55,1578.11 h 350.398 v 336 H 3194.55 Z"
         id="path1111" />
    </clipPath>
    <clipPath
       clipPathUnits="userSpaceOnUse"
       id="clipPath1125">
      <path
         d="M 3883.35,123.711 H 1137.75 V 922.91 h 139.2 v -360 h 337.22 c 53.19,-48.519 123.82,-78.199 201.04,-78.199 H 3211.9 c 75.87,0 145.13,29.769 196.67,78.199 h 345.18 v 360 h 129.6 V 123.711"
         id="path1123" />
    </clipPath>
    <clipPath
       clipPathUnits="userSpaceOnUse"
       id="clipPath1137">
      <path
         d="m 3753.75,922.91 h -254.2 v 772.8 h 254.2 v -772.8 m -2237.41,0 h -239.39 v 772.8 h 45.6 v -669.6 h 193.79 v -103.2"
         id="path1135" />
    </clipPath>
    <clipPath
       clipPathUnits="userSpaceOnUse"
       id="clipPath1149">
      <path
         d="m 3753.75,562.91 h -345.18 c 55.93,52.57 90.98,127.11 90.98,209.442 V 922.91 h 254.2 v -360 m -2139.58,0 h -337.22 v 360 h 239.39 V 783.59 c 0,-87.149 37.81,-165.91 97.83,-220.68"
         id="path1147" />
    </clipPath>
    <clipPath
       clipPathUnits="userSpaceOnUse"
       id="clipPath1161">
      <path
         d="m 1322.55,1695.71 h 193.789 v 72 H 1322.55 Z"
         id="path1159" />
    </clipPath>
    <clipPath
       clipPathUnits="userSpaceOnUse"
       id="clipPath1173">
      <path
         d="m 1322.55,1026.11 h 193.789 v 669.602 H 1322.55 Z"
         id="path1171" />
    </clipPath>
    <clipPath
       clipPathUnits="userSpaceOnUse"
       id="clipPath1185">
      <path
         d="m 3753.75,1767.71 h -254.2 v 1368.77 h 5.62 c 9.31,0 16.85,7.55 16.85,16.86 v 432.6 c 0,9.3 -7.54,16.85 -16.85,16.85 h -5.62 v 533.73 h 254.2 V 1767.71 m -2431.2,0 h -45.6 v 2368.81 h 45.6 v -672.01 h 176.93 v -35.88 c 0,-9.31 7.55,-16.86 16.86,-16.86 v -84.27 c -9.31,0 -16.86,-7.54 -16.86,-16.85 v -252.82 c 0,-9.31 7.55,-16.85 16.86,-16.85 V 1897.31 h -193.79 v -129.6"
         id="path1183" />
    </clipPath>
    <clipPath
       clipPathUnits="userSpaceOnUse"
       id="clipPath1191">
      <path
         d="m 1272.15,1762.91 h 360 v 2378.4 h -360 z"
         id="path1189" />
    </clipPath>
    <clipPath
       clipPathUnits="userSpaceOnUse"
       id="clipPath1203">
      <path
         d="m 3753.75,1767.71 h -254.2 v 1368.77 h 5.62 c 9.31,0 16.85,7.55 16.85,16.86 v 432.6 c 0,9.3 -7.54,16.85 -16.85,16.85 h -5.62 v 533.73 h 254.2 V 1767.71 m -2431.2,0 h -45.6 v 2368.81 h 45.6 v -672.01 h 176.93 v -35.88 c 0,-9.31 7.55,-16.86 16.86,-16.86 v -84.27 c -9.31,0 -16.86,-7.54 -16.86,-16.85 v -252.82 c 0,-9.31 7.55,-16.85 16.86,-16.85 V 1897.31 h -193.79 v -129.6"
         id="path1201" />
    </clipPath>
    <clipPath
       clipPathUnits="userSpaceOnUse"
       id="clipPath1209">
      <path
         d="m 3398.55,1762.91 h 360 v 2378.4 h -360 z"
         id="path1207" />
    </clipPath>
    <clipPath
       clipPathUnits="userSpaceOnUse"
       id="clipPath1221">
      <path
         d="m 1322.55,1767.71 h 193.789 v 129.598 H 1322.55 Z"
         id="path1219" />
    </clipPath>
    <clipPath
       clipPathUnits="userSpaceOnUse"
       id="clipPath1233">
      <path
         d="m 1516.34,4136.52 h -193.79 v 199.19 h 217.05 c -14.97,-35.46 -23.26,-74.36 -23.26,-115.11 v -84.08"
         id="path1231" />
    </clipPath>
    <clipPath
       clipPathUnits="userSpaceOnUse"
       id="clipPath1245">
      <path
         d="m 1499.48,3464.51 h -176.93 v 672.01 h 193.79 v -146.08 c -9.31,0 -16.86,-7.54 -16.86,-16.85 v -117.98 c 0,-9.31 7.55,-16.85 16.86,-16.85 V 3698.3 c -9.31,0 -16.86,-7.54 -16.86,-16.85 v -216.94"
         id="path1243" />
    </clipPath>
    <clipPath
       clipPathUnits="userSpaceOnUse"
       id="clipPath1257">
      <path
         d="m 3392.8,1695.71 h -998.74 v 35.97 h -197.91 v 32.21 h 581.98 v 3.82 h 16.34 v -3.82 h 263.17 v 3.82 h 335.16 v -72"
         id="path1255" />
    </clipPath>
    <clipPath
       clipPathUnits="userSpaceOnUse"
       id="clipPath1269">
      <path
         d="M 3222.27,613.93 H 1823.34 c -98.1,0 -183.4,84.519 -183.4,182.609 V 922.238 H 3392.8 V 796.539 c 0,-98.09 -72.44,-182.609 -170.53,-182.609 m -355.13,90.761 c -5.33,0 -9.65,-4.332 -9.65,-9.66 0,-5.32 4.32,-9.652 9.65,-9.652 5.33,0 9.66,4.332 9.66,9.652 0,5.328 -4.33,9.66 -9.66,9.66 m -372.37,123.731 c -19.48,0 -35.34,-15.863 -35.34,-35.352 v -41.621 c 0,-19.5 15.86,-35.359 35.34,-35.359 h 41.64 c 19.49,0 35.35,15.859 35.35,35.359 v 41.621 c 0,19.489 -15.86,35.352 -35.35,35.352 h -41.64 m -307.4,-84.34 22.03,-22.031 3.31,3.301 -22.05,22.046 c 7.03,7.864 11.33,18.204 11.33,29.532 0,24.531 -19.95,44.472 -44.46,44.472 -24.51,0 -44.46,-19.941 -44.46,-44.472 0,-24.508 19.95,-44.45 44.46,-44.45 11.49,0 21.94,4.411 29.84,11.602 m 1002.32,6.66 h 54.92 c 10.66,0 19.34,-8.66 19.34,-19.312 v -6.52 c 0,-1.289 1.04,-2.328 2.34,-2.328 1.29,0 2.33,1.039 2.33,2.328 v 6.52 c 0,13.23 -10.77,23.992 -24.01,23.992 h -54.92 c -13.24,0 -24.03,-10.762 -24.03,-24.012 l 0.04,-6.512 c 0.01,-1.289 1.01,-2.289 2.36,-2.316 1.29,0.008 2.33,1.047 2.33,2.348 l -0.04,6.5 c 0,10.652 8.67,19.312 19.34,19.312 m -1376.09,10.61 c 5.18,0 9.37,-4.211 9.37,-9.411 v -21.082 c 0,-3.937 3.17,-7.121 7.09,-7.121 H 1858 c 3.91,0 7.09,3.184 7.09,7.121 v 34.981 c 0,3.14 -1.25,6.152 -3.46,8.379 l -43.36,43.543 c -1.29,1.297 -2.98,1.949 -4.67,1.949 -1.69,0 -3.38,-0.652 -4.67,-1.949 l -43.34,-43.543 c -2.22,-2.227 -3.46,-5.239 -3.46,-8.379 v -34.981 c 0,-3.937 3.17,-7.121 7.09,-7.121 h 27.94 c 3.91,0 7.09,3.184 7.09,7.121 v 21.082 c 0,5.2 4.19,9.411 9.35,9.411 m 1030.96,54.828 c -4.9,0 -9.87,-1.348 -14.42,-4.188 -13.86,-8.633 -18.6,-27.773 -10.6,-42.73 6.51,-12.203 34.05,-33.391 43.99,-40.801 1.08,-0.789 2.35,-1.191 3.61,-1.191 1.27,0 2.53,0.402 3.6,1.191 9.95,7.41 37.48,28.598 44.01,40.801 7.99,14.957 3.25,34.097 -10.6,42.73 -4.56,2.84 -9.52,4.188 -14.42,4.188 -8.6,0 -16.99,-4.141 -22.59,-11.668 -5.6,7.519 -13.99,11.668 -22.58,11.668 m 372.59,4.691 c -15.51,0 -28.09,-12.562 -28.09,-28.062 0,-15.489 12.58,-28.039 28.09,-28.039 15.51,0 28.07,12.55 28.07,28.039 0,15.5 -12.56,28.062 -28.07,28.062 M 2536.41,720.77 h -41.64 c -16.9,0 -30.66,13.761 -30.66,30.679 v 41.621 c 0,16.91 13.76,30.668 30.66,30.668 h 41.64 c 16.91,0 30.66,-13.758 30.66,-30.668 v -41.621 c 0,-16.918 -13.75,-30.679 -30.66,-30.679 m -46.56,53.832 v -4.692 h 23.4 v -23.398 h 4.69 v 23.398 h 23.4 v 4.692 h -23.4 V 798 h -4.69 v -23.398 h -23.4 m 377.29,-42.661 -0.8,0.278 c -17.42,12.98 -37.79,30.113 -42.68,39.242 -6.84,12.82 -2.83,29.211 8.96,36.57 3.64,2.27 7.77,3.469 11.93,3.469 7.34,0 14.21,-3.559 18.84,-9.781 l 3.75,-5.047 3.76,5.047 c 4.63,6.222 11.49,9.781 18.83,9.781 4.16,0 8.29,-1.199 11.94,-3.469 11.78,-7.359 15.8,-23.75 8.95,-36.57 -4.89,-9.129 -25.25,-26.262 -42.67,-39.242 l -0.81,-0.278 m -709.61,5.219 c -21.93,0 -39.78,17.84 -39.78,39.77 0,21.949 17.85,39.789 39.78,39.789 21.93,0 39.77,-17.84 39.77,-39.789 0,-21.93 -17.84,-39.77 -39.77,-39.77 m 1059.62,32.281 c -12.9,0 -23.4,10.489 -23.4,23.368 0,12.89 10.5,23.382 23.4,23.382 12.9,0 23.4,-10.492 23.4,-23.382 0,-12.879 -10.5,-23.368 -23.4,-23.368 M 3392.8,1335.82 H 2196.15 v 52.63 h 52.78 v 49.87 h -52.78 v 22.91 h 107.66 v 41.63 h -107.66 v 178.93 h 197.91 v 13.92 h 998.74 v -359.89 m -1106.06,95.21 -4.97,-4.97 11.92,-11.93 -11.99,-12.72 5.11,-4.82 16.67,17.69 -16.74,16.75 m 1026.8,37.39 c -3.88,0 -7.03,-3.15 -7.03,-7.02 0,-3.88 3.15,-7.03 7.03,-7.03 3.87,0 7.02,3.15 7.02,7.03 0,3.87 -3.15,7.02 -7.02,7.02 m -23.79,0 c -3.88,0 -7.03,-3.15 -7.03,-7.02 0,-3.88 3.15,-7.03 7.03,-7.03 3.87,0 7.02,3.15 7.02,7.03 0,3.87 -3.15,7.02 -7.02,7.02 m -23.79,0 c -3.88,0 -7.03,-3.15 -7.03,-7.02 0,-3.88 3.15,-7.03 7.03,-7.03 3.87,0 7.01,3.15 7.01,7.03 0,3.87 -3.14,7.02 -7.01,7.02"
         id="path1267" />
    </clipPath>
    <clipPath
       clipPathUnits="userSpaceOnUse"
       id="clipPath1281">
      <path
         d="M 2196.15,1333.73 H 3392.8 v 2.0898 H 2196.15 Z"
         id="path1279" />
    </clipPath>
    <clipPath
       clipPathUnits="userSpaceOnUse"
       id="clipPath1293">
      <path
         d="M 3392.8,924.582 H 1639.94 v 101.528 h 556.21 v 307.62 H 3392.8 V 924.582 m -782.46,240.898 c -20.67,0 -37.43,-16.77 -37.43,-37.44 v -93.61 c 0,-20.67 16.76,-37.442 35.09,-37.442 h 206.38 c 23.53,0 39.07,-37.109 52.76,-37.109 13.94,0 31.8,37.109 52.88,37.109 h 206.26 c 20.67,0 37.44,16.772 37.44,37.442 v 93.61 c 0,20.67 -16.77,37.44 -37.44,37.44 h -515.94"
         id="path1291" />
    </clipPath>
    <clipPath
       clipPathUnits="userSpaceOnUse"
       id="clipPath1305">
      <path
         d="m 3265.96,1454.37 c -3.88,0 -7.03,3.15 -7.03,7.03 0,3.87 3.15,7.02 7.03,7.02 3.87,0 7.01,-3.15 7.01,-7.02 0,-3.88 -3.14,-7.03 -7.01,-7.03"
         id="path1303" />
    </clipPath>
    <clipPath
       clipPathUnits="userSpaceOnUse"
       id="clipPath1317">
      <path
         d="m 3289.75,1454.37 c -3.88,0 -7.03,3.15 -7.03,7.03 0,3.87 3.15,7.02 7.03,7.02 3.87,0 7.02,-3.15 7.02,-7.02 0,-3.88 -3.15,-7.03 -7.02,-7.03"
         id="path1315" />
    </clipPath>
    <clipPath
       clipPathUnits="userSpaceOnUse"
       id="clipPath1329">
      <path
         d="m 3313.54,1454.37 c -3.88,0 -7.03,3.15 -7.03,7.03 0,3.87 3.15,7.02 7.03,7.02 3.87,0 7.02,-3.15 7.02,-7.02 0,-3.88 -3.15,-7.03 -7.02,-7.03"
         id="path1327" />
    </clipPath>
    <clipPath
       clipPathUnits="userSpaceOnUse"
       id="clipPath1341">
      <path
         d="m 1715.62,1695.71 h -75.68 v 72 h 363.13 v -3.82 h 193.08 v -32.21 h -480.53 v -35.97"
         id="path1339" />
    </clipPath>
    <clipPath
       clipPathUnits="userSpaceOnUse"
       id="clipPath1353">
      <path
         d="m 2196.15,1335.82 h -556.21 v 359.89 h 75.68 v -13.92 h 480.53 v -178.93 h -313.3 v -41.63 h 313.3 v -22.91 h -308.28 v -49.87 h 308.28 v -52.63 m -436.37,215.28 c -49.04,0 -88.92,-39.88 -88.92,-88.91 0,-49.04 39.88,-88.92 88.92,-88.92 49.03,0 88.92,39.88 88.92,88.92 0,49.03 -39.89,88.91 -88.92,88.91 m -46.41,102.72 v -39.65 h 244.51 v 39.65 h -244.51 m 46.41,-273.54 c -45.16,0 -81.9,36.75 -81.9,81.91 0,45.15 36.74,81.9 81.9,81.9 45.16,0 81.9,-36.75 81.9,-81.9 0,-45.16 -36.74,-81.91 -81.9,-81.91 m 0,156.79 c -41.36,0 -74.89,-33.52 -74.89,-74.88 0,-41.35 33.53,-74.88 74.89,-74.88 41.35,0 74.88,33.53 74.88,74.88 0,41.36 -33.53,74.88 -74.88,74.88"
         id="path1351" />
    </clipPath>
    <clipPath
       clipPathUnits="userSpaceOnUse"
       id="clipPath1365">
      <path
         d="m 1639.94,1333.73 h 556.207 v 2.0898 H 1639.94 Z"
         id="path1363" />
    </clipPath>
    <clipPath
       clipPathUnits="userSpaceOnUse"
       id="clipPath1377">
      <path
         d="m 1639.94,1026.11 h 556.207 v 307.621 H 1639.94 Z"
         id="path1375" />
    </clipPath>
    <clipPath
       clipPathUnits="userSpaceOnUse"
       id="clipPath1389">
      <path
         d="m 1759.78,1387.31 c -41.36,0 -74.89,33.53 -74.89,74.88 0,41.36 33.53,74.88 74.89,74.88 41.35,0 74.88,-33.52 74.88,-74.88 0,-41.35 -33.53,-74.88 -74.88,-74.88"
         id="path1387" />
    </clipPath>
    <clipPath
       clipPathUnits="userSpaceOnUse"
       id="clipPath1401">
      <path
         d="m 2196.15,1461.23 h 107.66 v 41.6289 h -107.66 z"
         id="path1399" />
    </clipPath>
    <clipPath
       clipPathUnits="userSpaceOnUse"
       id="clipPath1413">
      <path
         d="m 2196.15,1461.23 h 107.66 v 41.6289 h -107.66 z"
         id="path1411" />
    </clipPath>
    <clipPath
       clipPathUnits="userSpaceOnUse"
       id="clipPath1427">
      <path
         d="m 1882.85,1461.23 h 313.297 v 41.6289 H 1882.85 Z"
         id="path1425" />
    </clipPath>
    <clipPath
       clipPathUnits="userSpaceOnUse"
       id="clipPath1439">
      <path
         d="m 1882.85,1461.23 h 313.297 v 41.6289 H 1882.85 Z"
         id="path1437" />
    </clipPath>
    <clipPath
       clipPathUnits="userSpaceOnUse"
       id="clipPath1453">
      <path
         d="m 2196.15,1388.45 h 52.7813 v 49.8711 H 2196.15 Z"
         id="path1451" />
    </clipPath>
    <clipPath
       clipPathUnits="userSpaceOnUse"
       id="clipPath1465">
      <path
         d="m 2196.15,1388.45 h 52.7813 v 49.8711 H 2196.15 Z"
         id="path1463" />
    </clipPath>
    <clipPath
       clipPathUnits="userSpaceOnUse"
       id="clipPath1479">
      <path
         d="m 1887.87,1388.45 h 308.277 v 49.8711 H 1887.87 Z"
         id="path1477" />
    </clipPath>
    <clipPath
       clipPathUnits="userSpaceOnUse"
       id="clipPath1491">
      <path
         d="m 1887.87,1388.45 h 308.277 v 49.8711 H 1887.87 Z"
         id="path1489" />
    </clipPath>
    <clipPath
       clipPathUnits="userSpaceOnUse"
       id="clipPath1505">
      <path
         d="m 2286.81,1396.59 -5.11,4.82 11.99,12.72 -11.92,11.93 4.97,4.97 16.74,-16.75 -16.67,-17.69"
         id="path1503" />
    </clipPath>
    <clipPath
       clipPathUnits="userSpaceOnUse"
       id="clipPath1517">
      <path
         d="m 1759.78,1373.27 c -49.04,0 -88.92,39.88 -88.92,88.92 0,49.03 39.88,88.91 88.92,88.91 49.03,0 88.92,-39.88 88.92,-88.91 0,-49.04 -39.89,-88.92 -88.92,-88.92 m 0,170.82 c -45.16,0 -81.9,-36.75 -81.9,-81.9 0,-45.16 36.74,-81.91 81.9,-81.91 45.16,0 81.9,36.75 81.9,81.91 0,45.15 -36.74,81.9 -81.9,81.9"
         id="path1515" />
    </clipPath>
    <clipPath
       clipPathUnits="userSpaceOnUse"
       id="clipPath1529">
      <path
         d="M 1639.94,922.238 H 3392.8 v 2.34375 H 1639.94 Z"
         id="path1527" />
    </clipPath>
    <clipPath
       clipPathUnits="userSpaceOnUse"
       id="clipPath1541">
      <path
         d="m 2209.4,722.051 -22.03,22.031 c -7.9,-7.191 -18.35,-11.602 -29.84,-11.602 -24.51,0 -44.46,19.942 -44.46,44.45 0,24.531 19.95,44.472 44.46,44.472 24.51,0 44.46,-19.941 44.46,-44.472 0,-11.328 -4.3,-21.668 -11.33,-29.532 l 22.05,-22.046 -3.31,-3.301 m -51.87,94.668 c -21.93,0 -39.78,-17.84 -39.78,-39.789 0,-21.93 17.85,-39.77 39.78,-39.77 21.93,0 39.77,17.84 39.77,39.77 0,21.949 -17.84,39.789 -39.77,39.789"
         id="path1539" />
    </clipPath>
    <clipPath
       clipPathUnits="userSpaceOnUse"
       id="clipPath1553">
      <path
         d="m 3217.15,764.77 c -15.51,0 -28.09,12.55 -28.09,28.039 0,15.5 12.58,28.062 28.09,28.062 15.51,0 28.07,-12.562 28.07,-28.062 0,-15.489 -12.56,-28.039 -28.07,-28.039 m 0,51.421 c -12.9,0 -23.4,-10.492 -23.4,-23.382 0,-12.879 10.5,-23.368 23.4,-23.368 12.9,0 23.4,10.489 23.4,23.368 0,12.89 -10.5,23.382 -23.4,23.382"
         id="path1551" />
    </clipPath>
    <clipPath
       clipPathUnits="userSpaceOnUse"
       id="clipPath1565">
      <path
         d="m 3266.29,722.582 c -1.3,0 -2.34,1.039 -2.34,2.328 v 6.52 c 0,10.652 -8.68,19.312 -19.34,19.312 h -54.92 c -10.67,0 -19.34,-8.66 -19.34,-19.312 l 0.04,-6.5 c 0,-1.301 -1.04,-2.34 -2.33,-2.348 -1.35,0.027 -2.35,1.027 -2.36,2.316 l -0.04,6.512 c 0,13.25 10.79,24.012 24.03,24.012 h 54.92 c 13.24,0 24.01,-10.762 24.01,-23.992 v -6.52 c 0,-1.289 -1.04,-2.328 -2.33,-2.328"
         id="path1563" />
    </clipPath>
    <clipPath
       clipPathUnits="userSpaceOnUse"
       id="clipPath1577">
      <path
         d="m 2867.14,727.27 c -1.26,0 -2.53,0.402 -3.61,1.191 -9.94,7.41 -37.48,28.598 -43.99,40.801 -8,14.957 -3.26,34.097 10.6,42.73 4.55,2.84 9.52,4.188 14.42,4.188 8.59,0 16.98,-4.149 22.58,-11.668 5.6,7.527 13.99,11.668 22.59,11.668 4.9,0 9.86,-1.348 14.42,-4.188 13.85,-8.633 18.59,-27.773 10.6,-42.73 -6.53,-12.203 -34.06,-33.391 -44.01,-40.801 -1.07,-0.789 -2.33,-1.191 -3.6,-1.191 m -22.59,84.23 c -4.16,0 -8.29,-1.199 -11.93,-3.469 -11.79,-7.359 -15.8,-23.75 -8.96,-36.57 4.89,-9.129 25.26,-26.262 42.68,-39.242 l 0.8,-0.278 0.81,0.278 c 17.42,12.98 37.78,30.113 42.67,39.242 6.85,12.82 2.83,29.211 -8.95,36.57 -3.65,2.27 -7.78,3.469 -11.94,3.469 -7.34,0 -14.2,-3.559 -18.83,-9.781 l -3.76,-5.047 -3.75,5.047 c -4.63,6.222 -11.5,9.781 -18.84,9.781"
         id="path1575" />
    </clipPath>
    <clipPath
       clipPathUnits="userSpaceOnUse"
       id="clipPath1589">
      <path
         d="m 2867.14,685.379 c -5.33,0 -9.65,4.332 -9.65,9.652 0,5.328 4.32,9.66 9.65,9.66 5.33,0 9.66,-4.332 9.66,-9.66 0,-5.32 -4.33,-9.652 -9.66,-9.652"
         id="path1587" />
    </clipPath>
    <clipPath
       clipPathUnits="userSpaceOnUse"
       id="clipPath1601">
      <path
         d="m 2536.41,716.09 h -41.64 c -19.48,0 -35.34,15.859 -35.34,35.359 v 41.621 c 0,19.489 15.86,35.352 35.34,35.352 h 41.64 c 19.49,0 35.35,-15.863 35.35,-35.352 v -41.621 c 0,-19.5 -15.86,-35.359 -35.35,-35.359 m -41.64,107.648 c -16.9,0 -30.66,-13.758 -30.66,-30.668 v -41.621 c 0,-16.918 13.76,-30.679 30.66,-30.679 h 41.64 c 16.91,0 30.66,13.761 30.66,30.679 v 41.621 c 0,16.91 -13.75,30.668 -30.66,30.668 h -41.64"
         id="path1599" />
    </clipPath>
    <clipPath
       clipPathUnits="userSpaceOnUse"
       id="clipPath1613">
      <path
         d="m 2517.94,746.512 h -4.69 v 23.398 h -23.4 v 4.692 h 23.4 V 798 h 4.69 v -23.398 h 23.4 v -4.692 h -23.4 v -23.398"
         id="path1611" />
    </clipPath>
    <clipPath
       clipPathUnits="userSpaceOnUse"
       id="clipPath1625">
      <path
         d="m 1858,723.738 h -27.94 c -3.92,0 -7.09,3.184 -7.09,7.121 v 21.082 c 0,5.2 -4.19,9.411 -9.37,9.411 -5.16,0 -9.35,-4.211 -9.35,-9.411 v -21.082 c 0,-3.937 -3.18,-7.121 -7.09,-7.121 h -27.94 c -3.92,0 -7.09,3.184 -7.09,7.121 v 34.981 c 0,3.14 1.24,6.152 3.46,8.379 l 43.34,43.543 c 1.29,1.297 2.98,1.949 4.67,1.949 1.69,0 3.38,-0.652 4.67,-1.949 l 43.36,-43.543 c 2.21,-2.227 3.46,-5.239 3.46,-8.379 v -34.981 c 0,-3.937 -3.18,-7.121 -7.09,-7.121"
         id="path1623" />
    </clipPath>
    <clipPath
       clipPathUnits="userSpaceOnUse"
       id="clipPath1637">
      <path
         d="m 2196.15,1763.89 h 581.98 v 3.8203 h -581.98 z"
         id="path1635" />
    </clipPath>
    <clipPath
       clipPathUnits="userSpaceOnUse"
       id="clipPath1649">
      <path
         d="m 2196.15,1763.89 h 581.98 v 3.8203 h -581.98 z"
         id="path1647" />
    </clipPath>
    <clipPath
       clipPathUnits="userSpaceOnUse"
       id="clipPath1655">
      <path
         d="m 0,5000 v 0 z"
         id="path1653" />
    </clipPath>
    <clipPath
       clipPathUnits="userSpaceOnUse"
       id="clipPath1663">
      <path
         d="m 2196.15,1763.89 h 581.98 v 3.8203 h -581.98 z"
         id="path1661" />
    </clipPath>
    <clipPath
       clipPathUnits="userSpaceOnUse"
       id="clipPath1677">
      <path
         d="m 2196.15,1763.89 h 581.98 v 3.8203 h -581.98 z"
         id="path1675" />
    </clipPath>
    <clipPath
       clipPathUnits="userSpaceOnUse"
       id="clipPath1683">
      <path
         d="m 0,5000 v 0 z"
         id="path1681" />
    </clipPath>
    <clipPath
       clipPathUnits="userSpaceOnUse"
       id="clipPath1691">
      <path
         d="m 2196.15,1763.89 h 581.98 v 3.8203 h -581.98 z"
         id="path1689" />
    </clipPath>
    <clipPath
       clipPathUnits="userSpaceOnUse"
       id="clipPath1705">
      <path
         d="m 2003.07,1763.89 h 193.078 v 3.8203 H 2003.07 Z"
         id="path1703" />
    </clipPath>
    <clipPath
       clipPathUnits="userSpaceOnUse"
       id="clipPath1717">
      <path
         d="m 2003.07,1763.89 h 193.078 v 3.8203 H 2003.07 Z"
         id="path1715" />
    </clipPath>
    <clipPath
       clipPathUnits="userSpaceOnUse"
       id="clipPath1723">
      <path
         d="m 0,5000 v 0 z"
         id="path1721" />
    </clipPath>
    <clipPath
       clipPathUnits="userSpaceOnUse"
       id="clipPath1731">
      <path
         d="m 2794.47,1763.89 h 263.172 v 3.8203 H 2794.47 Z"
         id="path1729" />
    </clipPath>
    <clipPath
       clipPathUnits="userSpaceOnUse"
       id="clipPath1743">
      <path
         d="m 2794.47,1763.89 h 263.172 v 3.8203 H 2794.47 Z"
         id="path1741" />
    </clipPath>
    <clipPath
       clipPathUnits="userSpaceOnUse"
       id="clipPath1749">
      <path
         d="m 0,5000 v 0 z"
         id="path1747" />
    </clipPath>
    <clipPath
       clipPathUnits="userSpaceOnUse"
       id="clipPath1757">
      <path
         d="m 2794.47,1763.89 h 263.172 v 3.8203 H 2794.47 Z"
         id="path1755" />
    </clipPath>
    <clipPath
       clipPathUnits="userSpaceOnUse"
       id="clipPath1771">
      <path
         d="m 2196.15,1695.71 h 197.91 v 35.9688 h -197.91 z"
         id="path1769" />
    </clipPath>
    <clipPath
       clipPathUnits="userSpaceOnUse"
       id="clipPath1783">
      <path
         d="m 2196.15,1695.71 h 197.91 v 35.9688 h -197.91 z"
         id="path1781" />
    </clipPath>
    <clipPath
       clipPathUnits="userSpaceOnUse"
       id="clipPath1797">
      <path
         d="m 2196.15,1695.71 h 197.91 v 35.9688 h -197.91 z"
         id="path1795" />
    </clipPath>
    <clipPath
       clipPathUnits="userSpaceOnUse"
       id="clipPath1803">
      <path
         d="m 0,5000 v 0 z"
         id="path1801" />
    </clipPath>
    <clipPath
       clipPathUnits="userSpaceOnUse"
       id="clipPath1811">
      <path
         d="m 2340,1695 v 35 h 55 v -35 z"
         clip-rule="evenodd"
         id="path1809" />
    </clipPath>
    <clipPath
       clipPathUnits="userSpaceOnUse"
       id="clipPath1825">
      <path
         d="m 2196.15,1681.79 h 197.91 v 13.9219 h -197.91 z"
         id="path1823" />
    </clipPath>
    <clipPath
       clipPathUnits="userSpaceOnUse"
       id="clipPath1837">
      <path
         d="m 2196.15,1681.79 h 197.91 v 13.9219 h -197.91 z"
         id="path1835" />
    </clipPath>
    <clipPath
       clipPathUnits="userSpaceOnUse"
       id="clipPath1851">
      <path
         d="m 2196.15,1681.79 h 197.91 v 13.9219 h -197.91 z"
         id="path1849" />
    </clipPath>
    <clipPath
       clipPathUnits="userSpaceOnUse"
       id="clipPath1857">
      <path
         d="m 0,5000 v 0 z"
         id="path1855" />
    </clipPath>
    <clipPath
       clipPathUnits="userSpaceOnUse"
       id="clipPath1865">
      <path
         d="m 2340,1681 v 15 h 55 v -15 z"
         clip-rule="evenodd"
         id="path1863" />
    </clipPath>
    <clipPath
       clipPathUnits="userSpaceOnUse"
       id="clipPath1879">
      <path
         d="m 1715.62,1695.71 h 480.527 v 35.9688 H 1715.62 Z"
         id="path1877" />
    </clipPath>
    <clipPath
       clipPathUnits="userSpaceOnUse"
       id="clipPath1891">
      <path
         d="m 1715.62,1695.71 h 480.527 v 35.9688 H 1715.62 Z"
         id="path1889" />
    </clipPath>
    <clipPath
       clipPathUnits="userSpaceOnUse"
       id="clipPath1905">
      <path
         d="m 1715.62,1681.79 h 480.527 v 13.9219 H 1715.62 Z"
         id="path1903" />
    </clipPath>
    <clipPath
       clipPathUnits="userSpaceOnUse"
       id="clipPath1917">
      <path
         d="m 1715.62,1681.79 h 480.527 v 13.9219 H 1715.62 Z"
         id="path1915" />
    </clipPath>
    <clipPath
       clipPathUnits="userSpaceOnUse"
       id="clipPath1931">
      <path
         d="m 1713.37,1614.17 h 244.508 v 39.6484 H 1713.37 Z"
         id="path1929" />
    </clipPath>
    <clipPath
       clipPathUnits="userSpaceOnUse"
       id="clipPath1943">
      <path
         d="m 1713.37,1614.17 h 244.508 v 39.6484 H 1713.37 Z"
         id="path1941" />
    </clipPath>
    <clipPath
       clipPathUnits="userSpaceOnUse"
       id="clipPath1957">
      <path
         d="m 3392.8,1767.71 h -335.16 v 49.04 h -263.17 v -49.04 h -16.34 v 49.04 h -581.98 v 32.24 h 378.5 v 38.82 h -378.5 v 9.5 h -250.28 v 1.85 h -228.82 v -1.85 h -77.11 v 229.2 H 3392.8 v -358.8 m -678.09,131.45 v -42.25 h 253.93 v 42.25 h -253.93 m -121.47,0 v -41.97 h 106.3 v 41.97 h -106.3 m -512.01,160.91 c -1.06,0 -2.02,-0.67 -2.39,-1.68 -0.37,-0.99 -0.07,-2.13 0.74,-2.81 l 41.03,-34.91 0.06,-0.34 10.12,-55.33 c 0.19,-1.05 1.03,-1.88 2.09,-2.06 0.15,-0.03 0.29,-0.04 0.44,-0.04 0.88,0 1.75,0.5 2.21,1.3 l 52.06,92.06 -0.01,0.27 0.24,0.31 -0.23,1.93 -0.02,0.02 v 0.02 c -0.45,0.77 -1.3,1.26 -2.21,1.26 h -104.13 m -346.08,6.01 c -5.35,0 -10.76,-1.52 -15.73,-4.74 -15.1,-9.77 -20.28,-31.42 -11.56,-48.36 7.11,-13.8 37.14,-37.78 47.99,-46.16 1.17,-0.91 2.55,-1.36 3.93,-1.36 1.38,0 2.77,0.45 3.93,1.36 10.85,8.38 40.89,32.36 48,46.16 8.72,16.94 3.54,38.59 -11.56,48.36 -4.97,3.22 -10.39,4.74 -15.74,4.74 -9.36,0 -18.51,-4.69 -24.63,-13.21 -6.11,8.52 -15.26,13.21 -24.63,13.21 m 211.73,-0.78 c -15.39,0 -29.62,-6.99 -39.07,-19.18 -9.49,-12.25 -12.65,-28.14 -8.67,-43.57 3.91,-15.15 20.21,-31.12 35.58,-34.87 4,-0.97 8.05,-1.45 12.06,-1.45 8.23,0 16.31,2.01 23.55,5.95 0.73,0.4 1.52,0.6 2.3,0.6 0.39,0 0.77,-0.05 1.15,-0.15 l 21.26,-5.63 1.18,0.67 0.28,1.45 -5.69,21.29 c -0.28,1.08 -0.16,2.25 0.36,3.3 5.31,10.7 6.56,22.68 3.61,34.65 -4.24,17.15 -17.4,30.62 -34.33,35.14 -4.5,1.19 -9.06,1.8 -13.57,1.8 m 1302.3,-4.35 c -1.41,0 -2.55,-1.15 -2.55,-2.56 v -88.04 c 0,-1 0.59,-1.91 1.5,-2.33 0.34,-0.15 0.69,-0.22 1.05,-0.22 0.61,0 1.21,0.22 1.69,0.63 l 34.72,30.41 34.74,-30.41 c 0.47,-0.41 1.08,-0.63 1.7,-0.63 0.35,0 0.71,0.08 1.05,0.23 0.89,0.41 1.49,1.32 1.49,2.32 v 88.04 c 0,1.41 -1.15,2.56 -2.55,2.56 h -72.84 m -1302.25,-89.26 c -3.6,0 -7.26,0.45 -10.91,1.34 -13.41,3.27 -28.16,17.71 -31.57,30.9 -3.54,13.76 -0.75,27.89 7.66,38.77 8.4,10.87 21.07,17.1 34.77,17.1 4.04,0 8.12,-0.55 12.15,-1.62 15,-4 26.65,-15.93 30.41,-31.14 2.65,-10.69 1.55,-21.36 -3.18,-30.87 -1.11,-2.26 -1.39,-4.81 -0.75,-7.19 l 3.97,-14.89 -14.27,3.84 c -0.82,0.22 -1.67,0.33 -2.53,0.33 -1.72,0 -3.46,-0.43 -4.96,-1.24 -6.5,-3.53 -13.54,-5.33 -20.79,-5.33 m 187.62,1.16 -8.75,47.85 52.79,30.03 -44.04,-77.88 m 1184.91,3.13 -32.18,28.18 c -0.46,0.4 -1.07,0.61 -1.68,0.61 -0.61,0 -1.22,-0.21 -1.68,-0.61 l -32.18,-28.18 v 79.86 h 67.72 v -79.86 m -1196.2,49.15 -35.08,29.83 h 87.53 l -52.45,-29.83 M 3392.8,3776.25 H 2196.15 v 50.31 h 52.78 v 49.86 h -52.78 v 22.9 h 107.66 v 41.63 h -107.66 v 75.15 H 3392.8 v -239.85 m -1106.06,92.86 -4.97,-4.96 11.92,-11.93 -11.99,-12.73 5.11,-4.81 16.67,17.69 -16.74,16.74 m 1026.8,37.4 c -3.88,0 -7.03,-3.15 -7.03,-7.02 0,-3.88 3.15,-7.02 7.03,-7.02 3.87,0 7.02,3.14 7.02,7.02 0,3.87 -3.15,7.02 -7.02,7.02 m -23.79,0 c -3.88,0 -7.03,-3.15 -7.03,-7.02 0,-3.88 3.15,-7.02 7.03,-7.02 3.87,0 7.02,3.14 7.02,7.02 0,3.87 -3.15,7.02 -7.02,7.02 m -23.79,0 c -3.88,0 -7.03,-3.15 -7.03,-7.02 0,-3.88 3.15,-7.02 7.03,-7.02 3.87,0 7.01,3.14 7.01,7.02 0,3.87 -3.14,7.02 -7.01,7.02"
         id="path1955" />
    </clipPath>
    <clipPath
       clipPathUnits="userSpaceOnUse"
       id="clipPath1969">
      <path
         d="m 2003.07,1767.71 h -363.13 v 129.6 h 77.11 v -51.02 h 228.82 v 51.02 h 250.28 v -9.5 h -231.17 v -38.82 h 231.17 v -32.24 h -193.08 v -49.04 m -288.04,37.7 v -30.73 h 285.9 v 30.73 h -285.9"
         id="path1967" />
    </clipPath>
    <clipPath
       clipPathUnits="userSpaceOnUse"
       id="clipPath1981">
      <path
         d="m 1759.78,1965.46 c -1.38,0 -2.76,0.45 -3.93,1.36 -10.85,8.38 -40.88,32.36 -47.99,46.16 -8.72,16.94 -3.54,38.59 11.56,48.36 4.97,3.22 10.38,4.74 15.73,4.74 9.37,0 18.52,-4.69 24.63,-13.21 6.12,8.52 15.27,13.21 24.63,13.21 5.35,0 10.77,-1.52 15.74,-4.74 15.1,-9.77 20.28,-31.42 11.56,-48.36 -7.11,-13.8 -37.15,-37.78 -48,-46.16 -1.16,-0.91 -2.55,-1.36 -3.93,-1.36"
         id="path1979" />
    </clipPath>
    <clipPath
       clipPathUnits="userSpaceOnUse"
       id="clipPath1993">
      <path
         d="m 1946.78,1966.23 c -4.01,0 -8.06,0.48 -12.06,1.45 -15.37,3.75 -31.67,19.72 -35.58,34.87 -3.98,15.43 -0.82,31.32 8.67,43.57 9.45,12.19 23.68,19.18 39.07,19.18 4.51,0 9.07,-0.61 13.57,-1.8 16.93,-4.52 30.09,-17.99 34.33,-35.14 2.95,-11.97 1.7,-23.95 -3.61,-34.65 -0.52,-1.05 -0.64,-2.22 -0.36,-3.3 l 5.69,-21.29 -0.28,-1.45 -1.18,-0.67 -21.26,5.63 c -0.38,0.1 -0.76,0.15 -1.15,0.15 -0.78,0 -1.57,-0.2 -2.3,-0.6 -7.24,-3.94 -15.32,-5.95 -23.55,-5.95 m 0.1,93.57 c -13.7,0 -26.37,-6.23 -34.77,-17.1 -8.41,-10.88 -11.2,-25.01 -7.66,-38.77 3.41,-13.19 18.16,-27.63 31.57,-30.9 3.65,-0.89 7.31,-1.34 10.91,-1.34 7.25,0 14.29,1.8 20.79,5.33 1.5,0.81 3.24,1.24 4.96,1.24 0.86,0 1.71,-0.11 2.53,-0.33 l 14.27,-3.84 -3.97,14.89 c -0.64,2.38 -0.36,4.93 0.75,7.19 4.73,9.51 5.83,20.18 3.18,30.87 -3.76,15.21 -15.41,27.14 -30.41,31.14 -4.03,1.07 -8.11,1.62 -12.15,1.62"
         id="path1991" />
    </clipPath>
    <clipPath
       clipPathUnits="userSpaceOnUse"
       id="clipPath2005">
      <path
         d="m 1717.05,1897.31 h 228.82 v 1.8516 h -228.82 z"
         id="path2003" />
    </clipPath>
    <clipPath
       clipPathUnits="userSpaceOnUse"
       id="clipPath2017">
      <path
         d="m 1717.05,1897.31 h 228.82 v 1.8516 h -228.82 z"
         id="path2015" />
    </clipPath>
    <clipPath
       clipPathUnits="userSpaceOnUse"
       id="clipPath2023">
      <path
         d="m 0,5000 v 0 z"
         id="path2021" />
    </clipPath>
    <clipPath
       clipPathUnits="userSpaceOnUse"
       id="clipPath2031">
      <path
         d="m 1717,1897 v 3 h 113 v -3 z"
         clip-rule="evenodd"
         id="path2029" />
    </clipPath>
    <clipPath
       clipPathUnits="userSpaceOnUse"
       id="clipPath2045">
      <path
         d="m 1717.05,1897.31 h 228.82 v 1.8516 h -228.82 z"
         id="path2043" />
    </clipPath>
    <clipPath
       clipPathUnits="userSpaceOnUse"
       id="clipPath2051">
      <path
         d="m 0,5000 v 0 z"
         id="path2049" />
    </clipPath>
    <clipPath
       clipPathUnits="userSpaceOnUse"
       id="clipPath2059">
      <path
         d="m 1820,1897 v 3 h 126 v -3 z"
         clip-rule="evenodd"
         id="path2057" />
    </clipPath>
    <clipPath
       clipPathUnits="userSpaceOnUse"
       id="clipPath2073">
      <path
         d="m 1717.05,1846.29 h 228.82 v 51.0195 h -228.82 z"
         id="path2071" />
    </clipPath>
    <clipPath
       clipPathUnits="userSpaceOnUse"
       id="clipPath2085">
      <path
         d="m 1717.05,1846.29 h 228.82 v 51.0195 h -228.82 z"
         id="path2083" />
    </clipPath>
    <clipPath
       clipPathUnits="userSpaceOnUse"
       id="clipPath2099">
      <path
         d="m 1717.05,1846.29 h 228.82 v 51.0195 h -228.82 z"
         id="path2097" />
    </clipPath>
    <clipPath
       clipPathUnits="userSpaceOnUse"
       id="clipPath2105">
      <path
         d="m 0,5000 v 0 z"
         id="path2103" />
    </clipPath>
    <clipPath
       clipPathUnits="userSpaceOnUse"
       id="clipPath2113">
      <path
         d="m 1820,1846 v 52 h 126 v -52 z"
         clip-rule="evenodd"
         id="path2111" />
    </clipPath>
    <clipPath
       clipPathUnits="userSpaceOnUse"
       id="clipPath2127">
      <path
         d="m 1717.05,1846.29 h 228.82 v 51.0195 h -228.82 z"
         id="path2125" />
    </clipPath>
    <clipPath
       clipPathUnits="userSpaceOnUse"
       id="clipPath2137">
      <path
         d="m 2196.15,1848.99 h 378.5 v 38.8203 h -378.5 z"
         id="path2135" />
    </clipPath>
    <clipPath
       clipPathUnits="userSpaceOnUse"
       id="clipPath2149">
      <path
         d="m 2196.15,1848.99 h 378.5 v 38.8203 h -378.5 z"
         id="path2147" />
    </clipPath>
    <clipPath
       clipPathUnits="userSpaceOnUse"
       id="clipPath2163">
      <path
         d="m 2196.15,1848.99 h 378.5 v 38.8203 h -378.5 z"
         id="path2161" />
    </clipPath>
    <clipPath
       clipPathUnits="userSpaceOnUse"
       id="clipPath2169">
      <path
         d="m 0,5000 v 0 z"
         id="path2167" />
    </clipPath>
    <clipPath
       clipPathUnits="userSpaceOnUse"
       id="clipPath2177">
      <path
         d="m 2250,1848 v 40 h 100 v -40 z"
         clip-rule="evenodd"
         id="path2175" />
    </clipPath>
    <clipPath
       clipPathUnits="userSpaceOnUse"
       id="clipPath2191">
      <path
         d="m 2196.15,1848.99 h 378.5 v 38.8203 h -378.5 z"
         id="path2189" />
    </clipPath>
    <clipPath
       clipPathUnits="userSpaceOnUse"
       id="clipPath2205">
      <path
         d="m 2196.15,1848.99 h 378.5 v 38.8203 h -378.5 z"
         id="path2203" />
    </clipPath>
    <clipPath
       clipPathUnits="userSpaceOnUse"
       id="clipPath2211">
      <path
         d="m 0,5000 v 0 z"
         id="path2209" />
    </clipPath>
    <clipPath
       clipPathUnits="userSpaceOnUse"
       id="clipPath2219">
      <path
         d="m 2480,1850 v 38 h 95 v -38 z"
         clip-rule="evenodd"
         id="path2217" />
    </clipPath>
    <clipPath
       clipPathUnits="userSpaceOnUse"
       id="clipPath2233">
      <path
         d="m 1964.98,1848.99 h 231.168 v 38.8203 H 1964.98 Z"
         id="path2231" />
    </clipPath>
    <clipPath
       clipPathUnits="userSpaceOnUse"
       id="clipPath2245">
      <path
         d="m 1964.98,1848.99 h 231.168 v 38.8203 H 1964.98 Z"
         id="path2243" />
    </clipPath>
    <clipPath
       clipPathUnits="userSpaceOnUse"
       id="clipPath2259">
      <path
         d="m 2593.24,1857.19 h 106.301 v 41.9688 H 2593.24 Z"
         id="path2257" />
    </clipPath>
    <clipPath
       clipPathUnits="userSpaceOnUse"
       id="clipPath2271">
      <path
         d="m 2593.24,1857.19 h 106.301 v 41.9688 H 2593.24 Z"
         id="path2269" />
    </clipPath>
    <clipPath
       clipPathUnits="userSpaceOnUse"
       id="clipPath2285">
      <path
         d="m 2714.71,1856.91 h 253.93 v 42.25 h -253.93 z"
         id="path2283" />
    </clipPath>
    <clipPath
       clipPathUnits="userSpaceOnUse"
       id="clipPath2297">
      <path
         d="m 2714.71,1856.91 h 253.93 v 42.25 h -253.93 z"
         id="path2295" />
    </clipPath>
    <clipPath
       clipPathUnits="userSpaceOnUse"
       id="clipPath2311">
      <path
         d="m 1715.03,1774.68 h 285.898 v 30.7305 H 1715.03 Z"
         id="path2309" />
    </clipPath>
    <clipPath
       clipPathUnits="userSpaceOnUse"
       id="clipPath2323">
      <path
         d="m 1715.03,1774.68 h 285.898 v 30.7305 H 1715.03 Z"
         id="path2321" />
    </clipPath>
    <clipPath
       clipPathUnits="userSpaceOnUse"
       id="clipPath2337">
      <path
         d="m 2196.15,1767.71 h 581.98 v 49.0391 h -581.98 z"
         id="path2335" />
    </clipPath>
    <clipPath
       clipPathUnits="userSpaceOnUse"
       id="clipPath2349">
      <path
         d="m 2196.15,1767.71 h 581.98 v 49.0391 h -581.98 z"
         id="path2347" />
    </clipPath>
    <clipPath
       clipPathUnits="userSpaceOnUse"
       id="clipPath2363">
      <path
         d="m 2003.07,1767.71 h 193.078 v 49.0391 H 2003.07 Z"
         id="path2361" />
    </clipPath>
    <clipPath
       clipPathUnits="userSpaceOnUse"
       id="clipPath2375">
      <path
         d="m 2003.07,1767.71 h 193.078 v 49.0391 H 2003.07 Z"
         id="path2373" />
    </clipPath>
    <clipPath
       clipPathUnits="userSpaceOnUse"
       id="clipPath2389">
      <path
         d="m 2794.47,1767.71 h 263.172 v 49.0391 H 2794.47 Z"
         id="path2387" />
    </clipPath>
    <clipPath
       clipPathUnits="userSpaceOnUse"
       id="clipPath2401">
      <path
         d="m 2794.47,1767.71 h 263.172 v 49.0391 H 2794.47 Z"
         id="path2399" />
    </clipPath>
    <clipPath
       clipPathUnits="userSpaceOnUse"
       id="clipPath2415">
      <path
         d="m 2133.32,1962.9 c -0.15,0 -0.29,0.01 -0.44,0.04 -1.06,0.18 -1.9,1.01 -2.09,2.06 l -10.12,55.33 -0.06,0.34 -41.03,34.91 c -0.81,0.68 -1.11,1.82 -0.74,2.81 0.37,1.01 1.33,1.68 2.39,1.68 h 104.13 c 0.91,0 1.76,-0.49 2.21,-1.26 v -0.02 l -2.21,1.28 -1.26,-0.33 -8.39,-4.78 h -87.53 l 35.08,-29.83 -1.56,-0.89 -1.2,-1.53 0.24,-1.94 c 0.46,-0.81 1.38,-1.27 2.28,-1.27 0.42,0 0.84,0.1 1.21,0.3 l 1.57,0.9 8.75,-47.85 44.04,77.88 8.03,4.57 0.96,1.23 0.01,-0.27 -52.06,-92.06 c -0.46,-0.8 -1.33,-1.3 -2.21,-1.3"
         id="path2413" />
    </clipPath>
    <clipPath
       clipPathUnits="userSpaceOnUse"
       id="clipPath2427">
      <path
         d="m 2123.02,2019.5 c -0.9,0 -1.82,0.46 -2.28,1.27 l -0.24,1.94 1.2,1.53 1.56,0.89 52.45,29.83 8.39,4.78 1.26,0.33 2.21,-1.28 0.02,-0.02 0.23,-1.93 -0.24,-0.31 -0.96,-1.23 -8.03,-4.57 -52.79,-30.03 -1.57,-0.9 c -0.37,-0.2 -0.79,-0.3 -1.21,-0.3"
         id="path2425" />
    </clipPath>
    <clipPath
       clipPathUnits="userSpaceOnUse"
       id="clipPath2439">
      <path
         d="m 3249.18,1967.8 c -0.36,0 -0.71,0.07 -1.05,0.22 -0.91,0.42 -1.5,1.33 -1.5,2.33 v 88.04 c 0,1.41 1.14,2.56 2.55,2.56 h 72.84 c 1.4,0 2.55,-1.15 2.55,-2.56 v -88.04 c 0,-1 -0.6,-1.91 -1.49,-2.32 -0.34,-0.15 -0.7,-0.23 -1.05,-0.23 -0.62,0 -1.23,0.22 -1.7,0.63 l -34.74,30.41 -34.72,-30.41 c -0.48,-0.41 -1.08,-0.63 -1.69,-0.63 m 36.42,36.97 c 0.61,0 1.22,-0.21 1.68,-0.61 l 32.18,-28.18 v 79.86 h -67.72 v -79.86 l 32.18,28.18 c 0.46,0.4 1.07,0.61 1.68,0.61"
         id="path2437" />
    </clipPath>
    <clipPath
       clipPathUnits="userSpaceOnUse"
       id="clipPath2451">
      <path
         d="M 2196.15,3774.16 H 3392.8 v 2.0898 H 2196.15 Z"
         id="path2449" />
    </clipPath>
    <clipPath
       clipPathUnits="userSpaceOnUse"
       id="clipPath2463">
      <path
         d="M 1639.94,2126.51 H 3392.8 v 2.3398 H 1639.94 Z"
         id="path2461" />
    </clipPath>
    <clipPath
       clipPathUnits="userSpaceOnUse"
       id="clipPath2475">
      <path
         d="M 3392.8,2128.85 H 1639.94 v 1335.66 h 556.21 v 309.65 H 3392.8 V 2128.85"
         id="path2473" />
    </clipPath>
    <clipPath
       clipPathUnits="userSpaceOnUse"
       id="clipPath2487">
      <path
         d="m 3265.96,3892.47 c -3.88,0 -7.03,3.14 -7.03,7.02 0,3.87 3.15,7.02 7.03,7.02 3.87,0 7.01,-3.15 7.01,-7.02 0,-3.88 -3.14,-7.02 -7.01,-7.02"
         id="path2485" />
    </clipPath>
    <clipPath
       clipPathUnits="userSpaceOnUse"
       id="clipPath2499">
      <path
         d="m 3289.75,3892.47 c -3.88,0 -7.03,3.14 -7.03,7.02 0,3.87 3.15,7.02 7.03,7.02 3.87,0 7.02,-3.15 7.02,-7.02 0,-3.88 -3.15,-7.02 -7.02,-7.02"
         id="path2497" />
    </clipPath>
    <clipPath
       clipPathUnits="userSpaceOnUse"
       id="clipPath2511">
      <path
         d="m 3313.54,3892.47 c -3.88,0 -7.03,3.14 -7.03,7.02 0,3.87 3.15,7.02 7.03,7.02 3.87,0 7.02,-3.15 7.02,-7.02 0,-3.88 -3.15,-7.02 -7.02,-7.02"
         id="path2509" />
    </clipPath>
    <clipPath
       clipPathUnits="userSpaceOnUse"
       id="clipPath2523">
      <path
         d="m 2196.15,3776.25 h -556.21 v 239.85 h 556.21 v -75.15 h -313.3 v -41.63 h 313.3 v -22.9 h -308.28 v -49.86 h 308.28 v -50.31 m -436.37,212.94 c -49.04,0 -88.92,-39.88 -88.92,-88.92 0,-49.03 39.88,-88.91 88.92,-88.91 49.03,0 88.92,39.88 88.92,88.91 0,49.04 -39.89,88.92 -88.92,88.92"
         id="path2521" />
    </clipPath>
    <clipPath
       clipPathUnits="userSpaceOnUse"
       id="clipPath2535">
      <path
         d="m 1639.94,3774.16 h 556.207 v 2.0898 H 1639.94 Z"
         id="path2533" />
    </clipPath>
    <clipPath
       clipPathUnits="userSpaceOnUse"
       id="clipPath2547">
      <path
         d="m 1759.78,3818.37 c -45.16,0 -81.9,36.75 -81.9,81.9 0,45.16 36.74,81.91 81.9,81.91 45.16,0 81.9,-36.75 81.9,-81.91 0,-45.15 -36.74,-81.9 -81.9,-81.9 m 0,156.79 c -41.36,0 -74.89,-33.53 -74.89,-74.89 0,-41.34 33.53,-74.87 74.89,-74.87 41.35,0 74.88,33.53 74.88,74.87 0,41.36 -33.53,74.89 -74.88,74.89"
         id="path2545" />
    </clipPath>
    <clipPath
       clipPathUnits="userSpaceOnUse"
       id="clipPath2559">
      <path
         d="m 1639.94,3464.51 h 556.207 v 309.648 H 1639.94 Z"
         id="path2557" />
    </clipPath>
    <clipPath
       clipPathUnits="userSpaceOnUse"
       id="clipPath2571">
      <path
         d="m 1759.78,3825.4 c -41.36,0 -74.89,33.53 -74.89,74.87 0,41.36 33.53,74.89 74.89,74.89 41.35,0 74.88,-33.53 74.88,-74.89 0,-41.34 -33.53,-74.87 -74.88,-74.87"
         id="path2569" />
    </clipPath>
    <clipPath
       clipPathUnits="userSpaceOnUse"
       id="clipPath2583">
      <path
         d="m 2196.15,3899.32 h 107.66 v 41.6289 h -107.66 z"
         id="path2581" />
    </clipPath>
    <clipPath
       clipPathUnits="userSpaceOnUse"
       id="clipPath2595">
      <path
         d="m 2196.15,3899.32 h 107.66 v 41.6289 h -107.66 z"
         id="path2593" />
    </clipPath>
    <clipPath
       clipPathUnits="userSpaceOnUse"
       id="clipPath2609">
      <path
         d="m 1882.85,3899.32 h 313.297 v 41.6289 H 1882.85 Z"
         id="path2607" />
    </clipPath>
    <clipPath
       clipPathUnits="userSpaceOnUse"
       id="clipPath2621">
      <path
         d="m 1882.85,3899.32 h 313.297 v 41.6289 H 1882.85 Z"
         id="path2619" />
    </clipPath>
    <clipPath
       clipPathUnits="userSpaceOnUse"
       id="clipPath2635">
      <path
         d="m 2196.15,3826.56 h 52.7813 v 49.8633 H 2196.15 Z"
         id="path2633" />
    </clipPath>
    <clipPath
       clipPathUnits="userSpaceOnUse"
       id="clipPath2647">
      <path
         d="m 2196.15,3826.56 h 52.7813 v 49.8633 H 2196.15 Z"
         id="path2645" />
    </clipPath>
    <clipPath
       clipPathUnits="userSpaceOnUse"
       id="clipPath2661">
      <path
         d="m 1887.87,3826.56 h 308.277 v 49.8633 H 1887.87 Z"
         id="path2659" />
    </clipPath>
    <clipPath
       clipPathUnits="userSpaceOnUse"
       id="clipPath2673">
      <path
         d="m 1887.87,3826.56 h 308.277 v 49.8633 H 1887.87 Z"
         id="path2671" />
    </clipPath>
    <clipPath
       clipPathUnits="userSpaceOnUse"
       id="clipPath2687">
      <path
         d="m 1887.87,3826.56 h 308.277 v 49.8633 H 1887.87 Z"
         id="path2685" />
    </clipPath>
    <clipPath
       clipPathUnits="userSpaceOnUse"
       id="clipPath2693">
      <path
         d="m 0,5000 v 0 z"
         id="path2691" />
    </clipPath>
    <clipPath
       clipPathUnits="userSpaceOnUse"
       id="clipPath2701">
      <path
         d="m 2020,3826 v 51 h 80 v -51 z"
         clip-rule="evenodd"
         id="path2699" />
    </clipPath>
    <clipPath
       clipPathUnits="userSpaceOnUse"
       id="clipPath2715">
      <path
         d="m 1887.87,3826.56 h 308.277 v 49.8633 H 1887.87 Z"
         id="path2713" />
    </clipPath>
    <clipPath
       clipPathUnits="userSpaceOnUse"
       id="clipPath2729">
      <path
         d="m 2286.81,3834.68 -5.11,4.81 11.99,12.73 -11.92,11.93 4.97,4.96 16.74,-16.74 -16.67,-17.69"
         id="path2727" />
    </clipPath>
    <clipPath
       clipPathUnits="userSpaceOnUse"
       id="clipPath2741">
      <path
         d="m 1759.78,3811.36 c -49.04,0 -88.92,39.88 -88.92,88.91 0,49.04 39.88,88.92 88.92,88.92 49.03,0 88.92,-39.88 88.92,-88.92 0,-49.03 -39.89,-88.91 -88.92,-88.91 m 0,170.82 c -45.16,0 -81.9,-36.75 -81.9,-81.91 0,-45.15 36.74,-81.9 81.9,-81.9 45.16,0 81.9,36.75 81.9,81.9 0,45.16 -36.74,81.91 -81.9,81.91"
         id="path2739" />
    </clipPath>
    <clipPath
       clipPathUnits="userSpaceOnUse"
       id="clipPath2753">
      <path
         d="m 3392.8,4136.52 h -88.05 l 29.14,51.52 c 0.2,0.37 0.34,0.77 0.39,1.18 0.09,0.66 -0.01,1.35 -0.34,1.98 -0.03,0.05 -0.05,0.1 -0.08,0.15 -0.6,1.03 -1.69,1.65 -2.87,1.65 h -98.8 c -1.4,0 -2.65,-0.87 -3.13,-2.18 -0.49,-1.31 -0.1,-2.78 0.97,-3.69 l 38.68,-32.9 3.24,-17.71 h -518.52 c -0.34,0.45 -0.82,0.71 -1.43,0.71 -0.58,0 -1.04,-0.25 -1.41,-0.71 h -13.56 c -0.43,6.83 -0.33,18.51 0.29,30.14 0.14,2.5 -0.55,4.98 -7.28,7.42 -1.33,0.49 -2.95,1.08 -4.5,1.08 -1.82,0 -3.56,-0.81 -4.69,-3.53 -5.91,-14.28 -8.22,-25.61 -8.77,-30.22 l -0.37,0.27 c -0.35,3.69 -1.13,10.39 -1.22,24.47 -0.02,2.75 -0.61,5.08 -3.64,7.01 -1.29,0.81 -4.33,2.04 -6.86,2.04 -1.32,0 -2.5,-0.33 -3.23,-1.22 -1.87,-2.14 -4.03,-7.89 -6.26,-14.71 -1.83,-5.55 -3.1,-9.3 -3.1,-9.3 0,0 0.02,14.96 0.04,20.64 0.01,2.14 -1.44,2.85 -1.89,2.98 -2,0.57 -5.92,1.54 -7.59,1.54 -2.05,0 -2.56,-1.15 -2.56,-2.82 0,-0.22 -0.32,-19.69 -0.32,-33.31 v -1.93 c -0.04,-0.18 -0.07,-0.37 -0.11,-0.55 h -14.55 c -0.06,1.67 -0.09,3.53 -0.09,5.59 0,9.47 0.28,13.59 0.43,20.43 0.08,3.95 0.24,6.98 0.23,7.66 -0.03,2.12 -3.68,3.18 -5.38,3.57 -1.45,0.34 -2.74,0.5 -3.81,0.5 -0.18,0 -0.36,-0.01 -0.53,-0.02 -1.63,-0.09 -2.78,-1.16 -2.78,-2.64 v -2.3 c -2.11,3.31 -5.5,5.62 -7.75,6.29 -1.52,0.45 -3.05,0.69 -4.57,0.69 -4.58,0 -9.04,-2.16 -12.64,-7.18 -3.79,-5.32 -6.09,-11.34 -6.99,-19.99 -0.44,-4.28 -0.49,-8.58 -0.11,-12.6 h -12.9 c -0.07,1.38 -0.08,2.86 -0.03,4.42 0.23,7.76 1.77,13.2 3.47,21.08 0.73,3.36 0.14,5.11 -1.34,6.8 -0.94,1.08 -2.63,1.79 -4.97,1.79 -1.02,0 -2.15,-0.13 -3.41,-0.42 -2.94,-0.7 -7.16,-1.44 -11.02,-2.01 0,0 0.23,0.92 0.42,2.56 0.61,5.2 -2.57,7 -5.83,7 -2.13,0 -4.3,-0.77 -5.48,-1.85 -1.78,-1.63 -2.99,-3.57 -3.45,-7.04 -0.72,-5.51 3.77,-8.11 3.77,-8.11 -1.47,-6.76 -5.08,-15.58 -8.82,-21.96 -0.47,-0.8 -0.91,-1.55 -1.34,-2.26 h -4.19 c -0.01,12.58 0.16,22.32 0.24,26.02 0.08,3.95 0.24,6.89 0.23,7.58 -0.02,1.54 -0.93,2.13 -2.8,2.86 -1.66,0.66 -3.61,1.11 -5.64,1.27 -0.17,0.01 -0.33,0.02 -0.48,0.02 -2.27,0 -3.63,-1.29 -3.59,-2.79 l 0.01,-2.17 c -2.11,3.31 -5.5,5.62 -7.76,6.29 -1.51,0.45 -3.05,0.69 -4.57,0.69 -4.57,0 -9.03,-2.16 -12.62,-7.18 -3.8,-5.32 -6.29,-12.78 -7,-19.93 -0.46,-4.71 -0.54,-8.92 -0.22,-12.66 h -12.5 c -0.07,1.67 -0.11,3.53 -0.11,5.59 0,9.47 0.29,13.59 0.43,20.43 0.08,3.95 0.24,6.98 0.24,7.66 -0.04,2.12 -3.69,3.18 -5.39,3.57 -1.45,0.34 -2.74,0.5 -3.81,0.5 -0.23,0 -0.46,-0.01 -0.67,-0.03 -1.55,-0.11 -2.63,-1.5 -2.63,-2.54 0,-1.04 0,-2.39 0,-2.39 -2.11,3.31 -5.5,5.62 -7.76,6.29 -1.51,0.44 -3.03,0.68 -4.55,0.68 -4.57,0 -9.03,-2.16 -12.66,-7.17 -3.13,-4.34 -5.68,-9.16 -6.99,-19.83 -0.38,-3.08 -0.54,-5.97 -0.51,-8.66 -0.23,-1.35 -0.58,-2.74 -1.04,-4.1 h -15.34 c -0.07,1.14 -0.11,2.37 -0.11,3.69 0,14.58 0.9,35.34 1.06,37.34 0,0 5.71,0.1 6.82,0.11 2.85,0.04 5.43,-0.03 9.23,0.17 1.91,0.09 3.75,6.93 1.78,7.78 -0.89,0.38 -7.19,0.71 -9.69,0.77 -2.1,0.05 -7.95,0.48 -7.95,0.48 0,0 0.53,13.78 0.65,15.23 0.1,1.22 -1.47,1.84 -2.37,2.22 -2.19,0.93 -4.15,1.37 -6.46,1.85 -0.76,0.16 -1.42,0.24 -2,0.24 -1.84,0 -2.74,-0.86 -2.95,-2.93 -0.43,-4.11 -0.65,-16.14 -0.65,-16.14 -2.35,0 -10.4,0.46 -12.75,0.46 -2.19,0 -4.55,-9.41 -1.53,-9.53 3.48,-0.13 9.54,-0.25 13.57,-0.37 0,0 -0.18,-21.1 -0.18,-27.62 v -2.01 c -0.93,-4.89 -2.88,-8.83 -4.8,-11.74 h -4.94 c -0.73,4.76 -3.74,8.7 -8.16,12.19 -2.27,1.78 -6.76,5.17 -11.77,8.87 0,0 2.91,2.86 5.48,8.62 1.83,4.07 1.91,8.74 -2.57,9.77 -0.93,0.21 -1.85,0.32 -2.74,0.32 -6.13,0 -10.98,-4.79 -12.57,-9.85 -1.41,-4.49 -0.66,-7.83 2.1,-11.29 l 0.65,-0.77 c -1.67,-3.22 -3.97,-7.55 -5.91,-10.91 -1.44,-2.49 -2.79,-4.84 -4.05,-6.95 h -10.9 c -0.02,1.54 -0.02,3.16 -0.02,4.75 0,6.04 0.45,15.13 0.81,24.55 0.12,3.11 -1.45,4.88 -4.05,6.49 -1.59,0.97 -4.98,2.89 -6.93,2.89 -2.93,0 -11.39,-0.4 -19.39,-23.52 -1.01,-2.92 -2.98,-8.23 -2.98,-8.23 l 0.16,27.81 -1.14,1.71 c -1.35,0.74 -4.95,2.23 -8.14,2.23 -1.54,0 -2.29,-0.71 -2.29,-2.12 l -0.24,-36.56 h -11.51 c 0.14,8.04 0.13,17.59 0.14,23.64 0.01,7.23 0.12,28.39 -0.13,41.11 -0.05,2.53 -5.74,5.16 -10.06,5.16 -1.02,0 -1.96,-0.14 -2.74,-0.47 -9.76,-4.09 -20.5,-15.63 -23.9,-30.13 -3.75,-16.1 9.52,-24.06 13.84,-24.06 0.6,0 1.03,0.16 1.21,0.47 1.72,2.99 -3.2,4.01 -4.21,13.54 -1.31,12.3 4.41,26.05 11.61,32.09 0.29,0.25 0.52,0.36 0.69,0.36 0.62,0 0.59,-1.44 0.59,-3.69 0,-4.73 -0.24,-44.06 -0.28,-58.02 h -105 v 140.45 h 666.48 30.54 c 15.07,0 30.87,4.95 45.06,9.39 20.93,6.55 39.11,17.48 52.35,31.43 13.23,14.23 21.49,30.98 22.56,53.5 1.83,38.35 11.95,40.55 37.96,40.55 3.38,0 7.02,-0.04 10.94,-0.04 h 160.23 c 98.09,0 170.53,-71.72 170.53,-169.82 v -105.46 m -192.76,220.53 c -3.88,0 -7.02,-3.14 -7.02,-7.01 v -30.42 -0.05 c 0,-3.87 3.14,-6.98 7.02,-6.98 h 91.26 c 3.88,0 7.02,3.11 7.02,6.98 v 0.05 30.42 c 0,3.87 -3.14,7.01 -7.02,7.01 h -91.26 m -60.13,-28.87 c -3.12,0 -6.29,-1.15 -9,-3.24 l 9,-10.01 9.01,10 c -2.72,2.1 -5.89,3.25 -9.01,3.25 m 160.74,14.83 v -16.38 c 4.53,0 7.03,3.67 7.03,8.19 0,4.52 -2.5,8.19 -7.03,8.19 m -160.74,-6.67 c 5.32,0 10.49,-1.83 14.62,-5.18 l 4,4.44 c -5.38,4.47 -11.97,6.92 -18.62,6.92 -6.65,0 -13.23,-2.45 -18.6,-6.89 l 3.99,-4.45 c 4.13,3.33 9.3,5.16 14.61,5.16 m 0,14.53 c 8.91,0 17.53,-3.16 24.36,-8.89 l 3.74,4.15 c -8.28,7.05 -18.24,10.92 -28.1,10.92 -9.85,0 -19.79,-3.86 -28.06,-10.9 l 3.73,-4.15 c 6.81,5.72 15.43,8.87 24.33,8.87 m -414.06,-214.35 h -8.36 c 0.39,2.14 0.88,4.47 1.48,6.97 1.85,7.57 4.92,14.41 6.02,16.91 0.15,0.35 0.28,0.46 0.37,0.46 0.15,0 0.22,-0.32 0.22,-0.41 -0.18,-3.98 -0.52,-14.86 0.27,-23.93 m -24.53,0 h -10.5 c 0.19,1.37 0.44,2.69 0.74,3.95 2.85,11.76 5.52,16.33 6.79,18.58 0.37,0.68 0.78,1.06 1.07,1.06 0.27,0 0.45,-0.29 0.46,-0.92 0.06,-2.71 0.2,-10.67 1.3,-21.36 0.05,-0.45 0.09,-0.89 0.14,-1.31 m -54.01,0 h -18.14 c -0.45,5.09 -0.21,11.09 0.62,16.39 1.22,7.75 4.54,13.68 9.98,13.68 0.23,0 0.47,-0.01 0.72,-0.03 5.8,-0.55 8.51,-8.02 7.88,-21.83 -0.14,-3.04 -0.52,-5.78 -1.06,-8.21 m -55.96,0 h -18.42 c 0.11,0.18 0.22,0.36 0.33,0.53 4.22,6.99 8.74,16.38 11.06,23.69 0,0 0.15,0 0.43,0 1.14,0 4.33,0.02 7.69,0.24 0.16,0.01 0.3,0.02 0.43,0.02 1,0 1.27,-0.32 1.06,-1.19 -0.23,-0.9 -3.18,-12.26 -2.58,-23.29 m -43.35,0 h -18.1 c -0.54,5.56 -0.06,11.36 0.69,15.47 1.36,7.55 4.7,14.57 10.69,14.57 5.82,0 8.69,-6.39 7.87,-21.76 -0.15,-2.85 -0.57,-5.69 -1.15,-8.28 m -56.54,0 h -18.21 c -0.6,6.1 0.02,12.55 0.71,16.55 1.39,7.86 4.75,13.52 9.98,13.52 0.24,0 0.48,-0.01 0.73,-0.03 5.79,-0.58 8.61,-8.02 7.87,-21.67 -0.17,-3.04 -0.53,-5.84 -1.08,-8.37 m -60.75,0 h -0.37 c 0.1,0.23 0.2,0.47 0.3,0.71 0.03,-0.24 0.05,-0.48 0.07,-0.71 m -23.12,0 h -19.86 c 2.97,4.96 5.73,9.6 7.88,13.21 2.07,-1.91 4.39,-3.97 6.7,-6.18 2.54,-2.4 4.27,-4.75 5.28,-7.03 m -50.36,0 h -14.57 c 5.09,16.73 11.42,25.03 14.46,28.06 0.25,0.25 0.52,0.39 0.73,0.39 0.26,0 0.45,-0.21 0.43,-0.71 -0.14,-3.99 -0.61,-13.99 -0.94,-22.48 -0.07,-1.88 -0.1,-3.63 -0.11,-5.26 m -313.46,199.19 H 1921.1 v 21.44 h -146.35 v -21.44 h -104.92 c 33.31,46.78 90.8,76.09 153.51,76.09 h 161.73 c 5.22,0 9.93,0.1 14.18,0.1 23.62,0 32.96,-2.8 34.71,-39.52 0.67,-14 4.12,-26.06 9.81,-36.67"
         id="path2751" />
    </clipPath>
    <clipPath
       clipPathUnits="userSpaceOnUse"
       id="clipPath2765">
      <path
         d="M 3392.8,4018.44 H 2196.15 v 118.08 h 105 c -0.01,-1.27 -0.01,-2.34 -0.01,-3.14 0,-13.09 -0.54,-17.22 -1.51,-21.3 -0.99,-4.13 -2.57,-6.94 -1.37,-8.01 0.21,-0.19 0.52,-0.28 0.91,-0.28 2.14,0 6.65,2.66 9.45,6.56 3.97,5.54 5.35,12.19 5.61,19.41 0.07,2.03 0.12,4.32 0.16,6.76 h 11.51 l -0.04,-6.95 c 0,-3.31 0.09,-7.17 0.42,-8.85 0.32,-1.69 0.85,-3.06 1.5,-3.88 0.66,-0.82 1.41,-1.44 2.65,-1.7 0.51,-0.1 2.04,-0.32 3.61,-0.32 1.98,0 4.04,0.34 4.22,1.7 0.39,2.9 0.41,6.04 3.74,17.75 0.22,0.77 0.44,1.52 0.66,2.25 h 14.57 c -0.05,-18.13 3.88,-21.68 9.29,-21.68 4.52,0 10.89,4.5 17.73,15.86 1.17,1.96 2.34,3.91 3.48,5.82 h 19.86 c 1.13,-2.6 1.34,-5.11 0.71,-7.56 -0.63,-2.51 -2.53,-5.08 -5.74,-5.08 -1.3,0 -2.82,0.42 -4.56,1.45 -1.75,1.03 -2.5,1.82 -4.27,2.99 -0.53,0.35 -1.23,0.56 -1.89,0.56 -0.51,0 -0.99,-0.12 -1.37,-0.41 -2.26,-1.7 -3.55,-3.86 -4.28,-6.54 -0.72,-2.6 1.89,-3.98 4.59,-5.18 2.33,-1.04 7.35,-1.98 10.53,-2.09 0.37,-0.01 0.75,-0.02 1.12,-0.02 11.74,0 21.2,6.33 27.91,21.88 h 0.37 c 1.36,-13.86 6.62,-21.69 15.65,-21.69 6.13,0 12.28,7.94 14.98,15.74 0.77,-3.18 1.91,-5.94 3.39,-8.29 3.27,-5.18 7.97,-7.45 12.75,-7.45 5.56,0 11.24,3.06 14.94,8.17 2.13,2.95 2.45,4 2.45,4 1.01,-8.98 8.24,-12.12 12.4,-12.12 4.63,0 9.43,2.19 12.79,9.75 l 1.29,-2.35 c 3.27,-5.18 7.97,-7.45 12.75,-7.45 5.56,0 11.23,3.06 14.93,8.17 l 0.86,1.22 0.21,-5.9 c 0,0 -3.94,-3.61 -6.35,-5.82 -10.64,-9.75 -18.72,-17.15 -19.32,-25.76 -0.75,-10.98 8.15,-15.06 14.9,-15.6 0.46,-0.03 0.91,-0.05 1.37,-0.05 6.55,0 12.14,3.79 15.67,8.96 3.31,4.88 5.48,15.36 5.32,25.7 -0.07,4.15 -0.17,9.42 -0.25,15.07 3.63,4.22 7.71,9.51 11.49,15.7 h 18.42 c 0.19,-3.49 0.74,-6.95 1.83,-10.04 3.13,-8.79 10.18,-11.62 14.35,-11.62 4.88,0 9.56,3.69 12.07,9.18 l 0.96,-1.76 c 3.27,-5.18 7.95,-7.45 12.73,-7.45 5.55,0 11.23,3.06 14.96,8.17 1.56,2.14 2.45,4 2.45,4 1.5,-9.3 8.73,-12.17 12.87,-12.17 4.32,0 8.41,1.77 11.73,9.63 0.15,-3.46 0.36,-6.3 0.71,-7.19 l 2.33,-1.56 c 1.85,-0.69 3.72,-0.9 5.34,-0.9 1.83,0 3.33,0.27 4.12,0.44 1.04,0.2 1.84,1.02 1.95,3.17 0.24,4.61 0.16,11.79 1.07,18.1 h 10.5 c 0.79,-7.07 1.8,-11.29 2.6,-12.68 2.38,-4.2 5.32,-4.41 7.71,-4.41 1.52,0 4.72,0.43 4.42,3.11 -0.1,1.02 0.02,6.2 1.44,13.98 h 8.36 c 0.24,-2.81 0.59,-5.45 1.09,-7.65 2.88,-12.63 11.21,-14.04 14.11,-14.04 6.2,0 11.26,4.71 12.96,17.11 0.28,1.99 0.11,3.67 -0.58,4.58 h 518.52 l 6.36,-34.8 c 0.24,-1.37 1.34,-2.45 2.72,-2.68 l 0.55,-0.04 c 1.19,0 2.31,0.63 2.9,1.68 l 20.27,35.84 h 88.05 v -118.08"
         id="path2763" />
    </clipPath>
    <clipPath
       clipPathUnits="userSpaceOnUse"
       id="clipPath2777">
      <path
         d="m 2539.91,4076.64 c -3.91,0 -7.19,3.23 -6.13,9.02 1.34,7.3 7.64,14.75 16.86,23.86 0,0 0.02,-2.08 -0.01,-7 -0.08,-11.3 -1.85,-21.21 -5.67,-24.09 -1.61,-1.21 -3.39,-1.79 -5.05,-1.79 m 126.33,45.68 c -3.5,0 -5.39,2.71 -5.82,14.2 h 14.55 c -1.24,-6.2 -4.84,-14.2 -8.73,-14.2 m -55.89,0 c -3.62,0 -6.38,5.14 -6.82,14.2 h 12.9 c 0.18,-1.94 0.46,-3.81 0.84,-5.57 -1.41,-6.12 -4.04,-8.63 -6.92,-8.63 m -99.55,0 c -3.49,0 -5.69,2.71 -6.19,14.2 h 12.5 c 0.13,-1.56 0.32,-3.03 0.58,-4.43 -0.96,-4.78 -3.75,-9.77 -6.89,-9.77 m 27.02,0.35 c -2.63,0 -5.16,2.08 -6.67,7.11 -0.63,2.11 -1.03,4.4 -1.25,6.74 h 18.1 c -0.68,-3.06 -1.59,-5.76 -2.54,-7.66 -1.88,-3.77 -4.81,-6.19 -7.64,-6.19 m 99.23,0.01 c -2.62,0 -5.15,2.08 -6.69,7.1 -0.58,1.89 -0.97,4.2 -1.19,6.74 h 18.14 c -0.68,-3.03 -1.6,-5.59 -2.63,-7.66 -1.88,-3.77 -4.8,-6.18 -7.63,-6.18 m -155.85,0.02 c -2.6,0 -5.11,2.07 -6.67,7.08 -0.65,2.09 -1.05,4.38 -1.28,6.74 h 18.21 c -0.63,-2.95 -1.51,-5.52 -2.61,-7.66 -1.93,-3.74 -4.84,-6.16 -7.65,-6.16 m 261.88,0.13 c -2.81,0 -5.34,4.23 -5.98,12.71 -0.02,0.31 -0.05,0.64 -0.07,0.98 h 13.56 c -0.52,-0.67 -0.88,-1.77 -1.19,-3.22 -1.86,-8.55 -3.8,-10.47 -6.32,-10.47 m -294.2,1.29 c -2.33,0 -4.56,3.98 -5.06,12.4 h 15.34 c -2.14,-6.4 -6.55,-12.4 -10.28,-12.4 m -76.36,2.64 c -1.9,0 -2.32,4.48 -2.41,9.76 h 10.9 c -3.45,-5.8 -6.24,-9.76 -8.49,-9.76 m 188.82,3.38 c -0.01,1 -0.02,2 -0.02,3 -0.01,1.15 -0.01,2.27 -0.01,3.38 h 4.19 c -1.4,-2.35 -2.65,-4.32 -4.16,-6.38 m -141.05,0.36 c 0.47,2.14 0.54,4.14 0.26,6.02 h 4.94 c -2.62,-3.96 -5.2,-6.02 -5.2,-6.02"
         id="path2775" />
    </clipPath>
    <clipPath
       clipPathUnits="userSpaceOnUse"
       id="clipPath2789">
      <path
         d="m 2196.15,4136.52 h -389.59 l -0.01,30.55 c 0,10.33 -8.37,18.7 -18.69,18.7 h -1.92 c -4.78,0 -9.36,1.9 -12.74,5.28 l -4.86,4.88 c -2.48,2.48 -5.84,3.88 -9.35,3.88 h -17.15 c -3.51,0 -6.87,-1.39 -9.35,-3.87 l -4.89,-4.9 c -3.38,-3.37 -7.95,-5.27 -12.73,-5.27 h -1.91 c -10.33,0 -18.7,-8.38 -18.7,-18.71 l 0.01,-30.54 h -54.33 v 105.46 c 0,35.39 11.1,67.34 29.89,93.73 h 104.92 v -18.82 h 146.35 v 18.82 h 122.67 c 3.46,-6.44 7.76,-12.35 12.76,-17.83 13.23,-14.21 31.42,-25.89 52.35,-32.43 14.19,-4.45 29.99,-8.48 45.06,-8.48 h 30.53 11.68 v -140.45"
         id="path2787" />
    </clipPath>
    <clipPath
       clipPathUnits="userSpaceOnUse"
       id="clipPath2801">
      <path
         d="m 2196.15,4018.44 h -556.21 v 118.08 h 54.33 l 0.01,-16.3 c 0,-10.32 8.37,-18.69 18.69,-18.69 h 74.91 c 10.32,0 18.7,8.38 18.69,18.72 l -0.01,16.27 h 389.59 v -118.08"
         id="path2799" />
    </clipPath>
    <clipPath
       clipPathUnits="userSpaceOnUse"
       id="clipPath2813">
      <path
         d="m 2299.17,4103.79 c -0.39,0 -0.7,0.09 -0.91,0.28 -1.2,1.07 0.38,3.88 1.37,8.01 0.97,4.08 1.51,8.21 1.51,21.3 0,0.8 0,1.87 0.01,3.14 0.04,13.96 0.28,53.29 0.28,58.02 0,2.25 0.03,3.69 -0.59,3.69 -0.17,0 -0.4,-0.11 -0.69,-0.36 -7.2,-6.04 -12.92,-19.79 -11.61,-32.09 1.01,-9.53 5.93,-10.55 4.21,-13.54 -0.18,-0.31 -0.61,-0.47 -1.21,-0.47 -4.32,0 -17.59,7.96 -13.84,24.06 3.4,14.5 14.14,26.04 23.9,30.13 0.78,0.33 1.72,0.47 2.74,0.47 4.32,0 10.01,-2.63 10.06,-5.16 0.25,-12.72 0.14,-33.88 0.13,-41.11 -0.01,-6.05 0,-15.6 -0.14,-23.64 -0.04,-2.44 -0.09,-4.73 -0.16,-6.76 -0.26,-7.22 -1.64,-13.87 -5.61,-19.41 -2.8,-3.9 -7.31,-6.56 -9.45,-6.56"
         id="path2811" />
    </clipPath>
    <clipPath
       clipPathUnits="userSpaceOnUse"
       id="clipPath2825">
      <path
         d="m 2540.7,4071.09 c -0.46,0 -0.91,0.02 -1.37,0.05 -6.75,0.54 -15.65,4.62 -14.9,15.6 0.6,8.61 8.68,16.01 19.32,25.76 2.41,2.21 6.35,5.82 6.35,5.82 l -0.21,5.9 -0.86,-1.22 c -3.7,-5.11 -9.37,-8.17 -14.93,-8.17 -4.78,0 -9.48,2.27 -12.75,7.45 l -1.29,2.35 c -3.36,-7.56 -8.16,-9.75 -12.79,-9.75 -4.16,0 -11.39,3.14 -12.4,12.12 0,0 -0.32,-1.05 -2.45,-4 -3.7,-5.11 -9.38,-8.17 -14.94,-8.17 -4.78,0 -9.48,2.27 -12.75,7.45 -1.48,2.35 -2.62,5.11 -3.39,8.29 -2.7,-7.8 -8.85,-15.74 -14.98,-15.74 -9.03,0 -14.29,7.83 -15.65,21.69 -0.02,0.23 -0.04,0.47 -0.07,0.71 -0.1,-0.24 -0.2,-0.48 -0.3,-0.71 -6.71,-15.55 -16.17,-21.88 -27.91,-21.88 -0.37,0 -0.75,0.01 -1.12,0.02 -3.18,0.11 -8.2,1.05 -10.53,2.09 -2.7,1.2 -5.31,2.58 -4.59,5.18 0.73,2.68 2.02,4.84 4.28,6.54 0.38,0.29 0.86,0.41 1.37,0.41 0.66,0 1.36,-0.21 1.89,-0.56 1.77,-1.17 2.52,-1.96 4.27,-2.99 1.74,-1.03 3.26,-1.45 4.56,-1.45 3.21,0 5.11,2.57 5.74,5.08 0.63,2.45 0.42,4.96 -0.71,7.56 -1.01,2.28 -2.74,4.63 -5.28,7.03 -2.31,2.21 -4.63,4.27 -6.7,6.18 -2.15,-3.61 -4.91,-8.25 -7.88,-13.21 -1.14,-1.91 -2.31,-3.86 -3.48,-5.82 -6.84,-11.36 -13.21,-15.86 -17.73,-15.86 -5.41,0 -9.34,3.55 -9.29,21.68 0.01,1.63 0.04,3.38 0.11,5.26 0.33,8.49 0.8,18.49 0.94,22.48 0.02,0.5 -0.17,0.71 -0.43,0.71 -0.21,0 -0.48,-0.14 -0.73,-0.39 -3.04,-3.03 -9.37,-11.33 -14.46,-28.06 -0.22,-0.73 -0.44,-1.48 -0.66,-2.25 -3.33,-11.71 -3.35,-14.85 -3.74,-17.75 -0.18,-1.36 -2.24,-1.7 -4.22,-1.7 -1.57,0 -3.1,0.22 -3.61,0.32 -1.24,0.26 -1.99,0.88 -2.65,1.7 -0.65,0.82 -1.18,2.19 -1.5,3.88 -0.33,1.68 -0.42,5.54 -0.42,8.85 l 0.04,6.95 0.24,36.56 c 0,1.41 0.75,2.12 2.29,2.12 3.19,0 6.79,-1.49 8.14,-2.23 l 1.14,-1.71 -0.16,-27.81 c 0,0 1.97,5.31 2.98,8.23 8,23.12 16.46,23.52 19.39,23.52 1.95,0 5.34,-1.92 6.93,-2.89 2.6,-1.61 4.17,-3.38 4.05,-6.49 -0.36,-9.42 -0.81,-18.51 -0.81,-24.55 0,-1.59 0,-3.21 0.02,-4.75 0.09,-5.28 0.51,-9.76 2.41,-9.76 2.25,0 5.04,3.96 8.49,9.76 1.26,2.11 2.61,4.46 4.05,6.95 1.94,3.36 4.24,7.69 5.91,10.91 l -0.65,0.77 c -2.76,3.46 -3.51,6.8 -2.1,11.29 1.59,5.06 6.44,9.85 12.57,9.85 0.89,0 1.81,-0.11 2.74,-0.32 4.48,-1.03 4.4,-5.7 2.57,-9.77 -2.57,-5.76 -5.48,-8.62 -5.48,-8.62 5.01,-3.7 9.5,-7.09 11.77,-8.87 4.42,-3.49 7.43,-7.43 8.16,-12.19 0.28,-1.88 0.21,-3.88 -0.26,-6.02 0,0 2.58,2.06 5.2,6.02 1.92,2.91 3.87,6.85 4.8,11.74 v 2.01 c 0,6.52 0.18,27.62 0.18,27.62 -4.03,0.12 -10.09,0.24 -13.57,0.37 -3.02,0.12 -0.66,9.53 1.53,9.53 2.35,0 10.4,-0.46 12.75,-0.46 0,0 0.22,12.03 0.65,16.14 0.21,2.07 1.11,2.93 2.95,2.93 0.58,0 1.24,-0.08 2,-0.24 2.31,-0.48 4.27,-0.92 6.46,-1.85 0.9,-0.38 2.47,-1 2.37,-2.22 -0.12,-1.45 -0.65,-15.23 -0.65,-15.23 0,0 5.85,-0.43 7.95,-0.48 2.5,-0.06 8.8,-0.39 9.69,-0.77 1.97,-0.85 0.13,-7.69 -1.78,-7.78 -3.8,-0.2 -6.38,-0.13 -9.23,-0.17 -1.11,-0.01 -6.82,-0.11 -6.82,-0.11 -0.16,-2 -1.06,-22.76 -1.06,-37.34 0,-1.32 0.04,-2.55 0.11,-3.69 0.5,-8.42 2.73,-12.4 5.06,-12.4 3.73,0 8.14,6 10.28,12.4 0.46,1.36 0.81,2.75 1.04,4.1 -0.03,2.69 0.13,5.58 0.51,8.66 1.31,10.67 3.86,15.49 6.99,19.83 3.63,5.01 8.09,7.17 12.66,7.17 1.52,0 3.04,-0.24 4.55,-0.68 2.26,-0.67 5.65,-2.98 7.76,-6.29 0,0 0,1.35 0,2.39 0,1.04 1.08,2.43 2.63,2.54 0.21,0.02 0.44,0.03 0.67,0.03 1.07,0 2.36,-0.16 3.81,-0.5 1.7,-0.39 5.35,-1.45 5.39,-3.57 0,-0.68 -0.16,-3.71 -0.24,-7.66 -0.14,-6.84 -0.43,-10.96 -0.43,-20.43 0,-2.06 0.04,-3.92 0.11,-5.59 0.5,-11.49 2.7,-14.2 6.19,-14.2 3.14,0 5.93,4.99 6.89,9.77 -0.26,1.4 -0.45,2.87 -0.58,4.43 -0.32,3.74 -0.24,7.95 0.22,12.66 0.71,7.15 3.2,14.61 7,19.93 3.59,5.02 8.05,7.18 12.62,7.18 1.52,0 3.06,-0.24 4.57,-0.69 2.26,-0.67 5.65,-2.98 7.76,-6.29 l -0.01,2.17 c -0.04,1.5 1.32,2.79 3.59,2.79 0.15,0 0.31,-0.01 0.48,-0.02 2.03,-0.16 3.98,-0.61 5.64,-1.27 1.87,-0.73 2.78,-1.32 2.8,-2.86 0.01,-0.69 -0.15,-3.63 -0.23,-7.58 -0.08,-3.7 -0.25,-13.44 -0.24,-26.02 0,-1.11 0,-2.23 0.01,-3.38 0,-1 0.01,-2 0.02,-3 1.51,2.06 2.76,4.03 4.16,6.38 0.43,0.71 0.87,1.46 1.34,2.26 3.74,6.38 7.35,15.2 8.82,21.96 0,0 -4.49,2.6 -3.77,8.11 0.46,3.47 1.67,5.41 3.45,7.04 1.18,1.08 3.35,1.85 5.48,1.85 3.26,0 6.44,-1.8 5.83,-7 -0.19,-1.64 -0.42,-2.56 -0.42,-2.56 3.86,0.57 8.08,1.31 11.02,2.01 1.26,0.29 2.39,0.42 3.41,0.42 2.34,0 4.03,-0.71 4.97,-1.79 1.48,-1.69 2.07,-3.44 1.34,-6.8 -1.7,-7.88 -3.24,-13.32 -3.47,-21.08 -0.05,-1.56 -0.04,-3.04 0.03,-4.42 0.44,-9.06 3.2,-14.2 6.82,-14.2 2.88,0 5.51,2.51 6.92,8.63 -0.38,1.76 -0.66,3.63 -0.84,5.57 -0.38,4.02 -0.33,8.32 0.11,12.6 0.9,8.65 3.2,14.67 6.99,19.99 3.6,5.02 8.06,7.18 12.64,7.18 1.52,0 3.05,-0.24 4.57,-0.69 2.25,-0.67 5.64,-2.98 7.75,-6.29 v 2.3 c 0,1.48 1.15,2.55 2.78,2.64 0.17,0.01 0.35,0.02 0.53,0.02 1.07,0 2.36,-0.16 3.81,-0.5 1.7,-0.39 5.35,-1.45 5.38,-3.57 0.01,-0.68 -0.15,-3.71 -0.23,-7.66 -0.15,-6.84 -0.43,-10.96 -0.43,-20.43 0,-2.06 0.03,-3.92 0.09,-5.59 0.43,-11.49 2.32,-14.2 5.82,-14.2 3.89,0 7.49,8 8.73,14.2 0.04,0.18 0.07,0.37 0.11,0.55 v 1.93 c 0,13.62 0.32,33.09 0.32,33.31 0,1.67 0.51,2.82 2.56,2.82 1.67,0 5.59,-0.97 7.59,-1.54 0.45,-0.13 1.9,-0.84 1.89,-2.98 -0.02,-5.68 -0.04,-20.64 -0.04,-20.64 0,0 1.27,3.75 3.1,9.3 2.23,6.82 4.39,12.57 6.26,14.71 0.73,0.89 1.91,1.22 3.23,1.22 2.53,0 5.57,-1.23 6.86,-2.04 3.03,-1.93 3.62,-4.26 3.64,-7.01 0.09,-14.08 0.87,-20.78 1.22,-24.47 l 0.37,-0.27 c 0.55,4.61 2.86,15.94 8.77,30.22 1.13,2.72 2.87,3.53 4.69,3.53 1.55,0 3.17,-0.59 4.5,-1.08 6.73,-2.44 7.42,-4.92 7.28,-7.42 -0.62,-11.63 -0.72,-23.31 -0.29,-30.14 0.02,-0.34 0.05,-0.67 0.07,-0.98 0.64,-8.48 3.17,-12.71 5.98,-12.71 2.52,0 4.46,1.92 6.32,10.47 0.31,1.45 0.67,2.55 1.19,3.22 0.37,0.46 0.83,0.71 1.41,0.71 0.61,0 1.09,-0.26 1.43,-0.71 0.69,-0.91 0.86,-2.59 0.58,-4.58 -1.7,-12.4 -6.76,-17.11 -12.96,-17.11 -2.9,0 -11.23,1.41 -14.11,14.04 -0.5,2.2 -0.85,4.84 -1.09,7.65 -0.79,9.07 -0.45,19.95 -0.27,23.93 0,0.09 -0.07,0.41 -0.22,0.41 -0.09,0 -0.22,-0.11 -0.37,-0.46 -1.1,-2.5 -4.17,-9.34 -6.02,-16.91 -0.6,-2.5 -1.09,-4.83 -1.48,-6.97 -1.42,-7.78 -1.54,-12.96 -1.44,-13.98 0.3,-2.68 -2.9,-3.11 -4.42,-3.11 -2.39,0 -5.33,0.21 -7.71,4.41 -0.8,1.39 -1.81,5.61 -2.6,12.68 -0.05,0.42 -0.09,0.86 -0.14,1.31 -1.1,10.69 -1.24,18.65 -1.3,21.36 -0.01,0.63 -0.19,0.92 -0.46,0.92 -0.29,0 -0.7,-0.38 -1.07,-1.06 -1.27,-2.25 -3.94,-6.82 -6.79,-18.58 -0.3,-1.26 -0.55,-2.58 -0.74,-3.95 -0.91,-6.31 -0.83,-13.49 -1.07,-18.1 -0.11,-2.15 -0.91,-2.97 -1.95,-3.17 -0.79,-0.17 -2.29,-0.44 -4.12,-0.44 -1.62,0 -3.49,0.21 -5.34,0.9 l -2.33,1.56 c -0.35,0.89 -0.56,3.73 -0.71,7.19 -3.32,-7.86 -7.41,-9.63 -11.73,-9.63 -4.14,0 -11.37,2.87 -12.87,12.17 0,0 -0.89,-1.86 -2.45,-4 -3.73,-5.11 -9.41,-8.17 -14.96,-8.17 -4.78,0 -9.46,2.27 -12.73,7.45 l -0.96,1.76 c -2.51,-5.49 -7.19,-9.18 -12.07,-9.18 -4.17,0 -11.22,2.83 -14.35,11.62 -1.09,3.09 -1.64,6.55 -1.83,10.04 -0.6,11.03 2.35,22.39 2.58,23.29 0.21,0.87 -0.06,1.19 -1.06,1.19 -0.13,0 -0.27,-0.01 -0.43,-0.02 -3.36,-0.22 -6.55,-0.24 -7.69,-0.24 -0.28,0 -0.43,0 -0.43,0 -2.32,-7.31 -6.84,-16.7 -11.06,-23.69 -0.11,-0.17 -0.22,-0.35 -0.33,-0.53 -3.78,-6.19 -7.86,-11.48 -11.49,-15.7 0.08,-5.65 0.18,-10.92 0.25,-15.07 0.16,-10.34 -2.01,-20.82 -5.32,-25.7 -3.53,-5.17 -9.12,-8.96 -15.67,-8.96 m 9.94,38.43 c -9.22,-9.11 -15.52,-16.56 -16.86,-23.86 -1.06,-5.79 2.22,-9.02 6.13,-9.02 1.66,0 3.44,0.58 5.05,1.79 3.82,2.88 5.59,12.79 5.67,24.09 0.03,4.92 0.01,7 0.01,7 m -20.74,27 c 0.22,-2.34 0.62,-4.63 1.25,-6.74 1.51,-5.03 4.04,-7.11 6.67,-7.11 2.83,0 5.76,2.42 7.64,6.19 0.95,1.9 1.86,4.6 2.54,7.66 0.58,2.59 1,5.43 1.15,8.28 0.82,15.37 -2.05,21.76 -7.87,21.76 -5.99,0 -9.33,-7.02 -10.69,-14.57 -0.75,-4.11 -1.23,-9.91 -0.69,-15.47 m 99.27,0 c 0.22,-2.54 0.61,-4.85 1.19,-6.74 1.54,-5.02 4.07,-7.1 6.69,-7.1 2.83,0 5.75,2.41 7.63,6.18 1.03,2.07 1.95,4.63 2.63,7.66 0.54,2.43 0.92,5.17 1.06,8.21 0.63,13.81 -2.08,21.28 -7.88,21.83 -0.25,0.02 -0.49,0.03 -0.72,0.03 -5.44,0 -8.76,-5.93 -9.98,-13.68 -0.83,-5.3 -1.07,-11.3 -0.62,-16.39 m -155.92,0 c 0.23,-2.36 0.63,-4.65 1.28,-6.74 1.56,-5.01 4.07,-7.08 6.67,-7.08 2.81,0 5.72,2.42 7.65,6.16 1.1,2.14 1.98,4.71 2.61,7.66 0.55,2.53 0.91,5.33 1.08,8.37 0.74,13.65 -2.08,21.09 -7.87,21.67 -0.25,0.02 -0.49,0.03 -0.73,0.03 -5.23,0 -8.59,-5.66 -9.98,-13.52 -0.69,-4 -1.31,-10.45 -0.71,-16.55"
         id="path2823" />
    </clipPath>
    <clipPath
       clipPathUnits="userSpaceOnUse"
       id="clipPath2837">
      <path
         d="m 1801.89,4136.52 h -25.03 c 1.06,2.95 1.64,6.14 1.64,9.46 0,15.51 -12.58,28.08 -28.08,28.08 -15.51,0 -28.08,-12.57 -28.08,-28.08 0,-3.32 0.58,-6.51 1.64,-9.46 h -25.03 l -0.01,30.54 c 0,3.74 1.46,7.27 4.11,9.92 2.64,2.65 6.16,4.11 9.91,4.11 h 1.91 c 6.06,0 11.75,2.36 16.04,6.64 l 4.89,4.9 c 1.61,1.61 3.76,2.5 6.04,2.5 h 17.15 c 2.28,0 4.43,-0.89 6.04,-2.51 l 4.86,-4.87 c 4.28,-4.3 9.98,-6.66 16.05,-6.66 h 1.92 c 7.73,0 14.02,-6.29 14.02,-14.02 l 0.01,-30.55"
         id="path2835" />
    </clipPath>
    <clipPath
       clipPathUnits="userSpaceOnUse"
       id="clipPath2849">
      <path
         d="m 1787.88,4106.21 h -74.91 c -7.73,0 -14.02,6.29 -14.02,14.02 v 16.29 h 25.03 c 3.88,-10.86 14.25,-18.63 26.44,-18.63 12.18,0 22.56,7.77 26.44,18.63 h 25.03 v -16.28 c 0,-3.74 -1.45,-7.27 -4.1,-9.92 -2.64,-2.65 -6.17,-4.11 -9.91,-4.11"
         id="path2847" />
    </clipPath>
    <clipPath
       clipPathUnits="userSpaceOnUse"
       id="clipPath2861">
      <path
         d="m 3297.1,4136.52 h -18.38 l -3.25,17.75 46.68,26.55 -25.05,-44.3"
         id="path2859" />
    </clipPath>
    <clipPath
       clipPathUnits="userSpaceOnUse"
       id="clipPath2873">
      <path
         d="m 3283.21,4111.96 -4.49,24.56 h 18.38 l -13.89,-24.56"
         id="path2871" />
    </clipPath>
    <clipPath
       clipPathUnits="userSpaceOnUse"
       id="clipPath2885">
      <path
         d="m 1771.81,4136.52 h -42.79 c -1.28,2.89 -2,6.09 -2,9.46 0,12.9 10.5,23.4 23.4,23.4 12.9,0 23.39,-10.5 23.39,-23.4 0,-3.37 -0.72,-6.57 -2,-9.46"
         id="path2883" />
    </clipPath>
    <clipPath
       clipPathUnits="userSpaceOnUse"
       id="clipPath2897">
      <path
         d="m 1750.42,4122.57 c -9.54,0 -17.76,5.74 -21.4,13.95 h 42.79 c -3.64,-8.21 -11.85,-13.95 -21.39,-13.95"
         id="path2895" />
    </clipPath>
    <clipPath
       clipPathUnits="userSpaceOnUse"
       id="clipPath2909">
      <path
         d="m 3272.15,4160.05 -30.91,26.29 h 77.15 l -46.24,-26.29 m 19.15,154.88 h -91.26 c -2.59,0 -4.69,2.1 -4.69,4.69 v 30.42 c 0,2.57 2.1,4.67 4.69,4.67 h 91.26 c 2.58,0 4.68,-2.1 4.68,-4.67 v -30.42 c 0,-2.59 -2.1,-4.69 -4.68,-4.69 m -91.26,37.45 c -1.29,0 -2.34,-1.06 -2.34,-2.34 v -30.42 c 0,-1.3 1.05,-2.35 2.34,-2.35 h 91.26 c 1.29,0 2.33,1.05 2.33,2.35 v 30.42 c 0,1.28 -1.04,2.34 -2.33,2.34 h -91.26 m -476.34,13.15 c -13.57,0 -24.58,11.01 -24.58,24.58 0,13.58 11.01,24.58 24.58,24.58 13.58,0 24.58,-11 24.58,-24.58 0,-13.57 -11,-24.58 -24.58,-24.58 m -90.6,1.34 H 2414 c -9.31,0 -16.85,5.77 -16.85,14.04 0,8.27 7.54,14.05 16.85,14.05 h 219.1 c 9.31,0 16.86,-5.78 16.86,-14.05 0,-8.27 -7.55,-14.04 -16.86,-14.04"
         id="path2907" />
    </clipPath>
    <clipPath
       clipPathUnits="userSpaceOnUse"
       id="clipPath2921">
      <path
         d="m 3291.3,4312.59 h -91.26 c -3.88,0 -7.02,3.11 -7.02,6.98 v 0.05 30.42 c 0,3.87 3.14,7.01 7.02,7.01 h 91.26 c 3.88,0 7.02,-3.14 7.02,-7.01 v -30.42 -0.05 c 0,-3.87 -3.14,-6.98 -7.02,-6.98 m -91.26,42.12 c -2.59,0 -4.69,-2.1 -4.69,-4.67 v -30.42 c 0,-2.59 2.1,-4.69 4.69,-4.69 h 91.26 c 2.58,0 4.68,2.1 4.68,4.69 v 30.42 c 0,2.57 -2.1,4.67 -4.68,4.67 h -91.26 m 91.26,-37.44 h -91.26 c -1.29,0 -2.34,1.05 -2.34,2.35 v 30.42 c 0,1.28 1.05,2.34 2.34,2.34 h 91.26 c 1.29,0 2.33,-1.06 2.33,-2.34 v -30.42 c 0,-1.3 -1.04,-2.35 -2.33,-2.35 m 9.35,9.36 v 16.38 c 4.53,0 7.03,-3.67 7.03,-8.19 0,-4.52 -2.5,-8.19 -7.03,-8.19"
         id="path2919" />
    </clipPath>
    <clipPath
       clipPathUnits="userSpaceOnUse"
       id="clipPath2933">
      <path
         d="m 1774.75,4335.71 h 146.352 v 21.4336 H 1774.75 Z"
         id="path2931" />
    </clipPath>
    <clipPath
       clipPathUnits="userSpaceOnUse"
       id="clipPath2945">
      <path
         d="m 1774.75,4335.71 h 146.352 v 21.4336 H 1774.75 Z"
         id="path2943" />
    </clipPath>
    <clipPath
       clipPathUnits="userSpaceOnUse"
       id="clipPath2959">
      <path
         d="m 1774.75,4335.71 h 146.352 v 21.4336 H 1774.75 Z"
         id="path2957" />
    </clipPath>
    <clipPath
       clipPathUnits="userSpaceOnUse"
       id="clipPath2965">
      <path
         d="m 0,5000 v 0 z"
         id="path2963" />
    </clipPath>
    <clipPath
       clipPathUnits="userSpaceOnUse"
       id="clipPath2973">
      <path
         d="m 1890,4335 v 23 h 32 v -23 z"
         clip-rule="evenodd"
         id="path2971" />
    </clipPath>
    <clipPath
       clipPathUnits="userSpaceOnUse"
       id="clipPath2987">
      <path
         d="m 1774.75,4316.89 h 146.352 v 18.8281 H 1774.75 Z"
         id="path2985" />
    </clipPath>
    <clipPath
       clipPathUnits="userSpaceOnUse"
       id="clipPath2999">
      <path
         d="m 1774.75,4316.89 h 146.352 v 18.8281 H 1774.75 Z"
         id="path2997" />
    </clipPath>
    <clipPath
       clipPathUnits="userSpaceOnUse"
       id="clipPath3013">
      <path
         d="m 1774.75,4316.89 h 146.352 v 18.8281 H 1774.75 Z"
         id="path3011" />
    </clipPath>
    <clipPath
       clipPathUnits="userSpaceOnUse"
       id="clipPath3019">
      <path
         d="m 0,5000 v 0 z"
         id="path3017" />
    </clipPath>
    <clipPath
       clipPathUnits="userSpaceOnUse"
       id="clipPath3027">
      <path
         d="m 1890,4316 v 20 h 32 v -20 z"
         clip-rule="evenodd"
         id="path3025" />
    </clipPath>
    <clipPath
       clipPathUnits="userSpaceOnUse"
       id="clipPath3041">
      <path
         d="m 3139.91,4314.93 -9,10.01 c 2.71,2.09 5.88,3.24 9,3.24 3.12,0 6.29,-1.15 9.01,-3.25 l -9.01,-10 m 14.62,16.23 c -4.13,3.35 -9.3,5.18 -14.62,5.18 -5.31,0 -10.48,-1.83 -14.61,-5.16 l -3.99,4.45 c 5.37,4.44 11.95,6.89 18.6,6.89 6.65,0 13.24,-2.45 18.62,-6.92 l -4,-4.44 m 9.74,10.82 c -6.83,5.73 -15.45,8.89 -24.36,8.89 -8.9,0 -17.52,-3.15 -24.33,-8.87 l -3.73,4.15 c 8.27,7.04 18.21,10.9 28.06,10.9 9.86,0 19.82,-3.87 28.1,-10.92 l -3.74,-4.15"
         id="path3039" />
    </clipPath>
    <clipPath
       clipPathUnits="userSpaceOnUse"
       id="clipPath3053">
      <path
         d="M 3392.8,4016.1 H 1639.94 v 2.34 H 3392.8 v -2.34"
         id="path3051" />
    </clipPath>
    <clipPath
       clipPathUnits="userSpaceOnUse"
       id="clipPath3065">
      <path
         d="m 1787.88,4101.53 h -74.91 c -10.32,0 -18.69,8.37 -18.69,18.69 l -0.01,16.3 -0.01,30.54 c 0,10.33 8.37,18.71 18.7,18.71 h 1.91 c 4.78,0 9.35,1.9 12.73,5.27 l 4.89,4.9 c 2.48,2.48 5.84,3.87 9.35,3.87 h 17.15 c 3.51,0 6.87,-1.4 9.35,-3.88 l 4.86,-4.88 c 3.38,-3.38 7.96,-5.28 12.74,-5.28 h 1.92 c 10.32,0 18.69,-8.37 18.69,-18.7 l 0.01,-30.55 0.01,-16.27 c 0.01,-10.34 -8.37,-18.72 -18.69,-18.72 m -88.93,34.99 v -16.29 c 0,-7.73 6.29,-14.02 14.02,-14.02 h 74.91 c 3.74,0 7.27,1.46 9.91,4.11 2.65,2.65 4.1,6.18 4.1,9.92 v 16.28 l -0.01,30.55 c 0,7.73 -6.29,14.02 -14.02,14.02 h -1.92 c -6.07,0 -11.77,2.36 -16.05,6.66 l -4.86,4.87 c -1.61,1.62 -3.76,2.51 -6.04,2.51 h -17.15 c -2.28,0 -4.43,-0.89 -6.04,-2.5 l -4.89,-4.9 c -4.29,-4.28 -9.98,-6.64 -16.04,-6.64 h -1.91 c -3.75,0 -7.27,-1.46 -9.91,-4.11 -2.65,-2.65 -4.11,-6.18 -4.11,-9.92 l 0.01,-30.54"
         id="path3063" />
    </clipPath>
    <clipPath
       clipPathUnits="userSpaceOnUse"
       id="clipPath3077">
      <path
         d="m 1750.42,4117.89 c -12.19,0 -22.56,7.77 -26.44,18.63 -1.06,2.95 -1.64,6.14 -1.64,9.46 0,15.51 12.57,28.08 28.08,28.08 15.5,0 28.08,-12.57 28.08,-28.08 0,-3.32 -0.58,-6.51 -1.64,-9.46 -3.88,-10.86 -14.26,-18.63 -26.44,-18.63 m -21.4,18.63 c 3.64,-8.21 11.86,-13.95 21.4,-13.95 9.54,0 17.75,5.74 21.39,13.95 1.28,2.89 2,6.09 2,9.46 0,12.9 -10.49,23.4 -23.39,23.4 -12.9,0 -23.4,-10.5 -23.4,-23.4 0,-3.37 0.72,-6.57 2,-9.46"
         id="path3075" />
    </clipPath>
    <clipPath
       clipPathUnits="userSpaceOnUse"
       id="clipPath3089">
      <path
         d="m 3281.58,4099 -0.55,0.04 c -1.38,0.23 -2.48,1.31 -2.72,2.68 l -6.36,34.8 -3.24,17.71 -38.68,32.9 c -1.07,0.91 -1.46,2.38 -0.97,3.69 0.48,1.31 1.73,2.18 3.13,2.18 h 98.8 c 1.18,0 2.27,-0.62 2.87,-1.65 0.03,-0.05 0.05,-0.1 0.08,-0.15 -0.02,0.03 -0.04,0.07 -0.06,0.11 -0.62,1.08 -1.74,1.69 -2.9,1.69 -0.56,0 -1.12,-0.14 -1.64,-0.44 l -10.95,-6.22 h -77.15 l 30.91,-26.29 -2.02,-1.16 c -1.59,-0.91 -2.16,-2.94 -1.24,-4.54 0.6,-1.08 1.73,-1.68 2.89,-1.68 l 1.65,0.43 2.04,1.17 3.25,-17.75 4.49,-24.56 13.89,24.56 25.05,44.3 10.48,5.96 c 0.93,0.53 1.51,1.45 1.65,2.44 -0.05,-0.41 -0.19,-0.81 -0.39,-1.18 l -29.14,-51.52 -20.27,-35.84 c -0.59,-1.05 -1.71,-1.68 -2.9,-1.68"
         id="path3087" />
    </clipPath>
    <clipPath
       clipPathUnits="userSpaceOnUse"
       id="clipPath3101">
      <path
         d="m 3271.78,4152.67 c -1.16,0 -2.29,0.6 -2.89,1.68 -0.92,1.6 -0.35,3.63 1.24,4.54 l 2.02,1.16 46.24,26.29 10.95,6.22 c 0.52,0.3 1.08,0.44 1.64,0.44 1.16,0 2.28,-0.61 2.9,-1.69 0.02,-0.04 0.04,-0.08 0.06,-0.11 0.33,-0.63 0.43,-1.32 0.34,-1.98 -0.14,-0.99 -0.72,-1.91 -1.65,-2.44 l -10.48,-5.96 -46.68,-26.55 -2.04,-1.17 -1.65,-0.43"
         id="path3099" />
    </clipPath>
    <clipPath
       clipPathUnits="userSpaceOnUse"
       id="clipPath3113">
      <path
         d="m 2867.14,959.879 c -13.69,0 -29.23,37.109 -52.76,37.109 H 2608 c -18.33,0 -35.09,16.772 -35.09,37.442 v 93.61 c 0,20.67 16.76,37.44 37.43,37.44 h 515.94 c 20.67,0 37.44,-16.77 37.44,-37.44 v -93.61 c 0,-20.67 -16.77,-37.442 -37.44,-37.442 h -206.26 c -21.08,0 -38.94,-37.109 -52.88,-37.109 m 121.85,110.701 c -8.58,0 -13.24,-6.99 -13.24,-15.58 l 0.03,-4.22 1.52,-1.51 h 63.74 l 1.52,1.52 v 4.22 c 0,8.58 -4.65,15.57 -13.24,15.57 h -40.33 m -330.49,45.31 c -18.4,0 -33.31,-14.91 -33.31,-33.31 0,-18.39 14.91,-33.31 33.31,-33.31 6.16,0 11.9,1.71 16.85,4.62 l 14.57,-3.32 -2.57,15.43 c 2.82,4.88 4.46,10.53 4.46,16.58 0,18.4 -14.92,33.31 -33.31,33.31 m 157.07,-5 c -3.07,0 -6.11,-0.9 -8.79,-2.6 -8.68,-5.49 -11.63,-17.74 -6.59,-27.32 3.6,-6.84 18.59,-19.64 31.42,-29.34 l 0.59,-0.2 0.59,0.2 c 12.83,9.7 27.82,22.5 31.43,29.34 5.04,9.58 2.08,21.83 -6.59,27.32 -2.69,1.7 -5.74,2.6 -8.8,2.6 -5.4,0 -9.4,-0.51 -13.86,-4.97 l -2.77,-3.77 -2.77,3.77 c -4.19,4.19 -8.45,4.97 -13.86,4.97 m 251.98,-6.34 v -53.08 h 17.96 v 53.08 h -17.96 m -174.9,0 v -53.08 h 17.97 v 53.08 h -17.97 m -176.11,0 v -53.08 h 17.97 v 53.08 h -17.97 m 292.62,8.5 c -10.07,0 -18.22,-8.15 -18.22,-18.21 0,-10.05 8.15,-18.19 18.22,-18.19 10.06,0 18.21,8.14 18.21,18.19 0,10.06 -8.15,18.21 -18.21,18.21"
         id="path3111" />
    </clipPath>
    <clipPath
       clipPathUnits="userSpaceOnUse"
       id="clipPath3125">
      <path
         d="m 2832.2,1051.43 -0.59,0.2 c -12.83,9.7 -27.82,22.5 -31.42,29.34 -5.04,9.58 -2.09,21.83 6.59,27.32 2.68,1.7 5.72,2.6 8.79,2.6 5.41,0 9.67,-0.78 13.86,-4.97 l 2.77,-3.77 2.77,3.77 c 4.46,4.46 8.46,4.97 13.86,4.97 3.06,0 6.11,-0.9 8.8,-2.6 8.67,-5.49 11.63,-17.74 6.59,-27.32 -3.61,-6.84 -18.6,-19.64 -31.43,-29.34 l -0.59,-0.2"
         id="path3123" />
    </clipPath>
    <clipPath
       clipPathUnits="userSpaceOnUse"
       id="clipPath3137">
      <path
         d="m 3009.16,1076.65 c -10.07,0 -18.22,8.14 -18.22,18.19 0,10.06 8.15,18.21 18.22,18.21 10.06,0 18.21,-8.15 18.21,-18.21 0,-10.05 -8.15,-18.19 -18.21,-18.19"
         id="path3135" />
    </clipPath>
    <clipPath
       clipPathUnits="userSpaceOnUse"
       id="clipPath3149">
      <path
         d="m 3041.04,1049.27 h -63.74 l -1.52,1.51 -0.03,4.22 c 0,8.59 4.66,15.58 13.24,15.58 h 40.33 c 8.59,0 13.24,-6.99 13.24,-15.57 v -4.22 l -1.52,-1.52"
         id="path3147" />
    </clipPath>
    <clipPath
       clipPathUnits="userSpaceOnUse"
       id="clipPath3161">
      <path
         d="m 2658.5,1049.27 c -18.4,0 -33.31,14.92 -33.31,33.31 0,18.4 14.91,33.31 33.31,33.31 18.39,0 33.31,-14.91 33.31,-33.31 0,-6.05 -1.64,-11.7 -4.46,-16.58 l 2.57,-15.43 -14.57,3.32 c -4.95,-2.91 -10.69,-4.62 -16.85,-4.62"
         id="path3159" />
    </clipPath>
    <clipPath
       clipPathUnits="userSpaceOnUse"
       id="clipPath3173">
      <path
         d="m 2716.54,1051.47 h 17.9727 v 53.082 H 2716.54 Z"
         id="path3171" />
    </clipPath>
    <clipPath
       clipPathUnits="userSpaceOnUse"
       id="clipPath3185">
      <path
         d="m 2716.54,1051.47 h 17.9727 v 53.082 H 2716.54 Z"
         id="path3183" />
    </clipPath>
    <clipPath
       clipPathUnits="userSpaceOnUse"
       id="clipPath3199">
      <path
         d="m 2892.65,1051.47 h 17.9727 v 53.082 H 2892.65 Z"
         id="path3197" />
    </clipPath>
    <clipPath
       clipPathUnits="userSpaceOnUse"
       id="clipPath3211">
      <path
         d="m 2892.65,1051.47 h 17.9727 v 53.082 H 2892.65 Z"
         id="path3209" />
    </clipPath>
    <clipPath
       clipPathUnits="userSpaceOnUse"
       id="clipPath3225">
      <path
         d="m 3067.55,1051.47 h 17.9609 v 53.082 H 3067.55 Z"
         id="path3223" />
    </clipPath>
    <clipPath
       clipPathUnits="userSpaceOnUse"
       id="clipPath3237">
      <path
         d="m 3067.55,1051.47 h 17.9609 v 53.082 H 3067.55 Z"
         id="path3235" />
    </clipPath>
    <clipPath
       clipPathUnits="userSpaceOnUse"
       id="clipPath3243">
      <path
         d="m 0,5000 v 0 z"
         id="path3241" />
    </clipPath>
    <clipPath
       clipPathUnits="userSpaceOnUse"
       id="clipPath3251">
      <path
         d="m 3067.55,1051.47 h 17.9609 v 53.082 H 3067.55 Z"
         clip-rule="evenodd"
         id="path3249" />
    </clipPath>
    <clipPath
       clipPathUnits="userSpaceOnUse"
       id="clipPath3265">
      <path
         d="M 3211.9,484.711 H 1815.21 c -77.22,0 -147.85,29.68 -201.04,78.199 -60.02,54.77 -97.83,133.531 -97.83,220.68 v 139.32 103.2 669.6 72 129.6 1143.67 c -9.31,0 -16.86,7.54 -16.86,16.85 v 252.82 c 0,9.31 7.55,16.85 16.86,16.85 v 84.27 c -9.31,0 -16.86,7.55 -16.86,16.86 v 35.88 216.94 c 0,9.31 7.55,16.85 16.86,16.85 v 140.46 c -9.31,0 -16.86,7.54 -16.86,16.85 v 117.98 c 0,9.31 7.55,16.85 16.86,16.85 v 146.08 84.08 c 0,40.75 8.29,79.65 23.26,115.11 45.26,107.15 151.57,182.84 274.69,182.84 H 3211.9 c 158.87,0 287.65,-128.78 287.65,-287.64 v -94.39 -533.73 h 5.62 c 9.31,0 16.85,-7.55 16.85,-16.85 v -432.6 c 0,-9.31 -7.54,-16.86 -16.85,-16.86 h -5.62 v -1368.77 -72 -772.8 -150.558 c 0,-82.332 -35.05,-156.872 -90.98,-209.442 -51.54,-48.43 -120.8,-78.199 -196.67,-78.199 M 1639.94,922.238 V 796.539 c 0,-98.09 85.3,-182.609 183.4,-182.609 h 1398.93 c 98.09,0 170.53,84.519 170.53,182.609 v 125.699 2.344 409.148 2.09 359.89 72 358.8 2.34 1645.31 2.09 239.85 2.34 118.08 105.46 c 0,98.1 -72.44,169.82 -170.53,169.82 h -160.23 c -3.92,0 -7.56,0.04 -10.94,0.04 -26.01,0 -36.13,-2.2 -37.96,-40.55 -1.07,-22.52 -9.33,-39.27 -22.56,-53.5 -13.24,-13.95 -31.42,-24.88 -52.35,-31.43 -14.19,-4.44 -29.99,-9.39 -45.06,-9.39 h -30.54 -666.48 -11.68 -30.53 c -15.07,0 -30.87,4.03 -45.06,8.48 -20.93,6.54 -39.12,18.22 -52.35,32.43 -5,5.48 -9.3,11.39 -12.76,17.83 -5.69,10.61 -9.14,22.67 -9.81,36.67 -1.75,36.72 -11.09,39.52 -34.71,39.52 -4.25,0 -8.96,-0.1 -14.18,-0.1 h -161.73 c -62.71,0 -120.2,-29.31 -153.51,-76.09 -18.79,-26.39 -29.89,-58.34 -29.89,-93.73 v -105.46 -118.08 -2.34 -239.85 -2.09 -309.65 -1335.66 -2.34 -229.2 -129.6 -72 -359.89 -2.09 -307.62 -101.528 -2.344 M 2723.7,4414.69 c -13.57,0 -24.58,-11 -24.58,-24.58 0,-13.57 11.01,-24.58 24.58,-24.58 13.58,0 24.58,11.01 24.58,24.58 0,13.58 -11,24.58 -24.58,24.58 M 2414,4394.96 c -9.31,0 -16.85,-5.78 -16.85,-14.05 0,-8.27 7.54,-14.04 16.85,-14.04 h 219.1 c 9.31,0 16.86,5.77 16.86,14.04 0,8.27 -7.55,14.05 -16.86,14.05 H 2414"
         id="path3263" />
    </clipPath>
    <clipPath
       clipPathUnits="userSpaceOnUse"
       id="clipPath3271">
      <path
         d="m 1495.35,4182.11 h 2030.4 v 340.801 h -2030.4 z"
         id="path3269" />
    </clipPath>
    <clipPath
       clipPathUnits="userSpaceOnUse"
       id="clipPath3283">
      <path
         d="M 3211.9,484.711 H 1815.21 c -77.22,0 -147.85,29.68 -201.04,78.199 -60.02,54.77 -97.83,133.531 -97.83,220.68 v 139.32 103.2 669.6 72 129.6 1143.67 c -9.31,0 -16.86,7.54 -16.86,16.85 v 252.82 c 0,9.31 7.55,16.85 16.86,16.85 v 84.27 c -9.31,0 -16.86,7.55 -16.86,16.86 v 35.88 216.94 c 0,9.31 7.55,16.85 16.86,16.85 v 140.46 c -9.31,0 -16.86,7.54 -16.86,16.85 v 117.98 c 0,9.31 7.55,16.85 16.86,16.85 v 146.08 84.08 c 0,40.75 8.29,79.65 23.26,115.11 45.26,107.15 151.57,182.84 274.69,182.84 H 3211.9 c 158.87,0 287.65,-128.78 287.65,-287.64 v -94.39 -533.73 h 5.62 c 9.31,0 16.85,-7.55 16.85,-16.85 v -432.6 c 0,-9.31 -7.54,-16.86 -16.85,-16.86 h -5.62 v -1368.77 -72 -772.8 -150.558 c 0,-82.332 -35.05,-156.872 -90.98,-209.442 -51.54,-48.43 -120.8,-78.199 -196.67,-78.199 M 1639.94,922.238 V 796.539 c 0,-98.09 85.3,-182.609 183.4,-182.609 h 1398.93 c 98.09,0 170.53,84.519 170.53,182.609 v 125.699 2.344 409.148 2.09 359.89 72 358.8 2.34 1645.31 2.09 239.85 2.34 118.08 105.46 c 0,98.1 -72.44,169.82 -170.53,169.82 h -160.23 c -3.92,0 -7.56,0.04 -10.94,0.04 -26.01,0 -36.13,-2.2 -37.96,-40.55 -1.07,-22.52 -9.33,-39.27 -22.56,-53.5 -13.24,-13.95 -31.42,-24.88 -52.35,-31.43 -14.19,-4.44 -29.99,-9.39 -45.06,-9.39 h -30.54 -666.48 -11.68 -30.53 c -15.07,0 -30.87,4.03 -45.06,8.48 -20.93,6.54 -39.12,18.22 -52.35,32.43 -5,5.48 -9.3,11.39 -12.76,17.83 -5.69,10.61 -9.14,22.67 -9.81,36.67 -1.75,36.72 -11.09,39.52 -34.71,39.52 -4.25,0 -8.96,-0.1 -14.18,-0.1 h -161.73 c -62.71,0 -120.2,-29.31 -153.51,-76.09 -18.79,-26.39 -29.89,-58.34 -29.89,-93.73 v -105.46 -118.08 -2.34 -239.85 -2.09 -309.65 -1335.66 -2.34 -229.2 -129.6 -72 -359.89 -2.09 -307.62 -101.528 -2.344 M 2723.7,4414.69 c -13.57,0 -24.58,-11 -24.58,-24.58 0,-13.57 11.01,-24.58 24.58,-24.58 13.58,0 24.58,11.01 24.58,24.58 0,13.58 -11,24.58 -24.58,24.58 M 2414,4394.96 c -9.31,0 -16.85,-5.78 -16.85,-14.05 0,-8.27 7.54,-14.04 16.85,-14.04 h 219.1 c 9.31,0 16.86,5.77 16.86,14.04 0,8.27 -7.55,14.05 -16.86,14.05 H 2414"
         id="path3281" />
    </clipPath>
    <clipPath
       clipPathUnits="userSpaceOnUse"
       id="clipPath3289">
      <path
         d="m 1495.35,478.91 h 343.199 v 3708 H 1495.35 Z"
         id="path3287" />
    </clipPath>
    <clipPath
       clipPathUnits="userSpaceOnUse"
       id="clipPath3301">
      <path
         d="M 3211.9,484.711 H 1815.21 c -77.22,0 -147.85,29.68 -201.04,78.199 -60.02,54.77 -97.83,133.531 -97.83,220.68 v 139.32 103.2 669.6 72 129.6 1143.67 c -9.31,0 -16.86,7.54 -16.86,16.85 v 252.82 c 0,9.31 7.55,16.85 16.86,16.85 v 84.27 c -9.31,0 -16.86,7.55 -16.86,16.86 v 35.88 216.94 c 0,9.31 7.55,16.85 16.86,16.85 v 140.46 c -9.31,0 -16.86,7.54 -16.86,16.85 v 117.98 c 0,9.31 7.55,16.85 16.86,16.85 v 146.08 84.08 c 0,40.75 8.29,79.65 23.26,115.11 45.26,107.15 151.57,182.84 274.69,182.84 H 3211.9 c 158.87,0 287.65,-128.78 287.65,-287.64 v -94.39 -533.73 h 5.62 c 9.31,0 16.85,-7.55 16.85,-16.85 v -432.6 c 0,-9.31 -7.54,-16.86 -16.85,-16.86 h -5.62 v -1368.77 -72 -772.8 -150.558 c 0,-82.332 -35.05,-156.872 -90.98,-209.442 -51.54,-48.43 -120.8,-78.199 -196.67,-78.199 M 1639.94,922.238 V 796.539 c 0,-98.09 85.3,-182.609 183.4,-182.609 h 1398.93 c 98.09,0 170.53,84.519 170.53,182.609 v 125.699 2.344 409.148 2.09 359.89 72 358.8 2.34 1645.31 2.09 239.85 2.34 118.08 105.46 c 0,98.1 -72.44,169.82 -170.53,169.82 h -160.23 c -3.92,0 -7.56,0.04 -10.94,0.04 -26.01,0 -36.13,-2.2 -37.96,-40.55 -1.07,-22.52 -9.33,-39.27 -22.56,-53.5 -13.24,-13.95 -31.42,-24.88 -52.35,-31.43 -14.19,-4.44 -29.99,-9.39 -45.06,-9.39 h -30.54 -666.48 -11.68 -30.53 c -15.07,0 -30.87,4.03 -45.06,8.48 -20.93,6.54 -39.12,18.22 -52.35,32.43 -5,5.48 -9.3,11.39 -12.76,17.83 -5.69,10.61 -9.14,22.67 -9.81,36.67 -1.75,36.72 -11.09,39.52 -34.71,39.52 -4.25,0 -8.96,-0.1 -14.18,-0.1 h -161.73 c -62.71,0 -120.2,-29.31 -153.51,-76.09 -18.79,-26.39 -29.89,-58.34 -29.89,-93.73 v -105.46 -118.08 -2.34 -239.85 -2.09 -309.65 -1335.66 -2.34 -229.2 -129.6 -72 -359.89 -2.09 -307.62 -101.528 -2.344 M 2723.7,4414.69 c -13.57,0 -24.58,-11 -24.58,-24.58 0,-13.57 11.01,-24.58 24.58,-24.58 13.58,0 24.58,11.01 24.58,24.58 0,13.58 -11,24.58 -24.58,24.58 M 2414,4394.96 c -9.31,0 -16.85,-5.78 -16.85,-14.05 0,-8.27 7.54,-14.04 16.85,-14.04 h 219.1 c 9.31,0 16.86,5.77 16.86,14.04 0,8.27 -7.55,14.05 -16.86,14.05 H 2414"
         id="path3299" />
    </clipPath>
    <clipPath
       clipPathUnits="userSpaceOnUse"
       id="clipPath3307">
      <path
         d="m 3182.55,478.91 h 343.199 v 3708 H 3182.55 Z"
         id="path3305" />
    </clipPath>
    <clipPath
       clipPathUnits="userSpaceOnUse"
       id="clipPath3319">
      <path
         d="M 3211.9,484.711 H 1815.21 c -77.22,0 -147.85,29.68 -201.04,78.199 -60.02,54.77 -97.83,133.531 -97.83,220.68 v 139.32 103.2 669.6 72 129.6 1143.67 c -9.31,0 -16.86,7.54 -16.86,16.85 v 252.82 c 0,9.31 7.55,16.85 16.86,16.85 v 84.27 c -9.31,0 -16.86,7.55 -16.86,16.86 v 35.88 216.94 c 0,9.31 7.55,16.85 16.86,16.85 v 140.46 c -9.31,0 -16.86,7.54 -16.86,16.85 v 117.98 c 0,9.31 7.55,16.85 16.86,16.85 v 146.08 84.08 c 0,40.75 8.29,79.65 23.26,115.11 45.26,107.15 151.57,182.84 274.69,182.84 H 3211.9 c 158.87,0 287.65,-128.78 287.65,-287.64 v -94.39 -533.73 h 5.62 c 9.31,0 16.85,-7.55 16.85,-16.85 v -432.6 c 0,-9.31 -7.54,-16.86 -16.85,-16.86 h -5.62 v -1368.77 -72 -772.8 -150.558 c 0,-82.332 -35.05,-156.872 -90.98,-209.442 -51.54,-48.43 -120.8,-78.199 -196.67,-78.199 M 1639.94,922.238 V 796.539 c 0,-98.09 85.3,-182.609 183.4,-182.609 h 1398.93 c 98.09,0 170.53,84.519 170.53,182.609 v 125.699 2.344 409.148 2.09 359.89 72 358.8 2.34 1645.31 2.09 239.85 2.34 118.08 105.46 c 0,98.1 -72.44,169.82 -170.53,169.82 h -160.23 c -3.92,0 -7.56,0.04 -10.94,0.04 -26.01,0 -36.13,-2.2 -37.96,-40.55 -1.07,-22.52 -9.33,-39.27 -22.56,-53.5 -13.24,-13.95 -31.42,-24.88 -52.35,-31.43 -14.19,-4.44 -29.99,-9.39 -45.06,-9.39 h -30.54 -666.48 -11.68 -30.53 c -15.07,0 -30.87,4.03 -45.06,8.48 -20.93,6.54 -39.12,18.22 -52.35,32.43 -5,5.48 -9.3,11.39 -12.76,17.83 -5.69,10.61 -9.14,22.67 -9.81,36.67 -1.75,36.72 -11.09,39.52 -34.71,39.52 -4.25,0 -8.96,-0.1 -14.18,-0.1 h -161.73 c -62.71,0 -120.2,-29.31 -153.51,-76.09 -18.79,-26.39 -29.89,-58.34 -29.89,-93.73 v -105.46 -118.08 -2.34 -239.85 -2.09 -309.65 -1335.66 -2.34 -229.2 -129.6 -72 -359.89 -2.09 -307.62 -101.528 -2.344 M 2723.7,4414.69 c -13.57,0 -24.58,-11 -24.58,-24.58 0,-13.57 11.01,-24.58 24.58,-24.58 13.58,0 24.58,11.01 24.58,24.58 0,13.58 -11,24.58 -24.58,24.58 M 2414,4394.96 c -9.31,0 -16.85,-5.78 -16.85,-14.05 0,-8.27 7.54,-14.04 16.85,-14.04 h 219.1 c 9.31,0 16.86,5.77 16.86,14.04 0,8.27 -7.55,14.05 -16.86,14.05 H 2414"
         id="path3317" />
    </clipPath>
    <clipPath
       clipPathUnits="userSpaceOnUse"
       id="clipPath3325">
      <path
         d="m 1833.75,478.91 h 1353.6 v 340.801 h -1353.6 z"
         id="path3323" />
    </clipPath>
  </defs>
  <sodipodi:namedview
     inkscape:window-maximized="1"
     inkscape:window-y="-11"
     inkscape:window-x="-11"
     inkscape:window-height="974"
     inkscape:window-width="1920"
     fit-margin-bottom="0"
     fit-margin-right="0"
     fit-margin-left="0"
     fit-margin-top="0"
     showgrid="false"
     inkscape:document-rotation="0"
     inkscape:current-layer="g843"
     inkscape:document-units="mm"
     inkscape:cy="188.34204"
     inkscape:cx="-20.261613"
     inkscape:zoom="0.98994949"
     inkscape:pageshadow="2"
     inkscape:pageopacity="0.0"
     borderopacity="1.0"
     bordercolor="#666666"
     pagecolor="#ffffff"
     id="base" />
  <metadata
     id="metadata5">
    <rdf:RDF>
      <cc:Work
         rdf:about="">
        <dc:format>image/svg+xml</dc:format>
        <dc:type
           rdf:resource="http://purl.org/dc/dcmitype/StillImage" />
        <dc:title></dc:title>
      </cc:Work>
    </rdf:RDF>
  </metadata>
  <g
     id="layer1"
     inkscape:groupmode="layer"
     inkscape:label="Layer 1">
    <g
       transform="matrix(0.03527778,0,0,-0.03527778,-15.623018,255.25992)"
       id="g843">
      <rect
         transform="scale(1,-1)"
         y="-7156.1641"
         x="1295.1733"
         height="109.85408"
         width="467.82687"
         id="rect5507"
         style="fill:#ffffff;stroke:#000000;stroke-width:7.5;stroke-linecap:round;paint-order:stroke fill markers;stop-color:#000000" />
      <path
         id="path1027"
         style="fill:#333333;fill-opacity:1;fill-rule:nonzero;stroke:none"
         d="m 2336.1772,3513.7028 c 0,-98.09 -72.44,-182.609 -170.53,-182.609 H 766.71718 c -98.1,0 -183.4,84.519 -183.4,182.609 v 3445.441 c 0,98.1 85.3,169.82 183.4,169.82 h 161.73 c 34.19,0 46.82,3.91 48.89,-39.42 1.08,-22.52 9.34,-40.02 22.57,-54.5 13.23002,-14.21 31.42002,-25.89 52.35002,-32.43 14.19,-4.45 29.99,-8.48 45.06,-8.48 h 30.53 678.16 30.54 c 15.07,0 30.87,4.95 45.06,9.39 20.93,6.55 39.11,17.48 52.35,31.43 13.23,14.23 21.49,30.98 22.56,53.5 2.06,43.33 14.71,40.51 48.9,40.51 h 160.23 c 98.09,0 170.53,-71.72 170.53,-169.82 v -3445.441 m -978.8,3598.421 h 219.1 c 9.31,0 16.86,-5.78 16.86,-14.05 0,-8.27 -7.55,-14.04 -16.86,-14.04 h -219.1 c -9.31,0 -16.85,5.77 -16.85,14.04 0,8.27 7.54,14.05 16.85,14.05 m 334.28,-4.85 c 0,-13.57 -11,-24.58 -24.58,-24.58 -13.57,0 -24.58,11.01 -24.58,24.58 0,13.58 11.01,24.58 24.58,24.58 13.58,0 24.58,-11 24.58,-24.58 m 751.27,-787.32 v 628.12 c 0,158.86 -128.78,287.64 -287.65,287.64 H 757.66718 c -163.87,0 -297.95,-134.07 -297.95,-297.95 v -230.16 c -9.31,0 -16.86,-7.54 -16.86,-16.85 v -117.98 c 0,-9.31 7.55,-16.85 16.86,-16.85 v -140.46 c -9.31,0 -16.86,-7.54 -16.86,-16.85 v -252.82 c 0,-9.31 7.55,-16.86 16.86,-16.86 v -84.27 c -9.31,0 -16.86,-7.54 -16.86,-16.85 v -252.82 c 0,-9.31 7.55,-16.85 16.86,-16.85 v -2257.39 c 0,-164.379 134.49,-298.879 298.87,-298.879 H 2155.2772 c 158.21,0 287.65,129.437 287.65,287.641 v 2364.128 h 5.62 c 9.31,0 16.85,7.55 16.85,16.86 v 432.6 c 0,9.3 -7.54,16.85 -16.85,16.85 h -5.62" />
      <path
         transform="matrix(7.4999995,0,0,-7.4999995,442.85718,7235.7138)"
         d="M 41.974609 0 C 20.125275 0 2.2480469 17.875894 2.2480469 39.726562 L 2.2480469 70.414062 C 1.0067135 70.414062 0 71.420776 0 72.662109 L 0 88.392578 C 0 89.633912 1.0067135 90.638672 2.2480469 90.638672 L 2.2480469 109.36719 C 1.0067135 109.36719 0 110.37195 0 111.61328 L 0 145.32227 C 0 146.5636 1.0067135 147.57031 2.2480469 147.57031 L 2.2480469 158.80664 C 1.0067135 158.80664 0 159.8114 0 161.05273 L 0 194.76172 C 0 196.00305 1.0067135 197.00977 2.2480469 197.00977 L 2.2480469 497.99414 C 2.2480469 519.91134 20.180322 537.8457 42.097656 537.8457 L 208.68359 537.8457 L 205.65625 520.61523 L 43.181641 520.61523 C 30.10164 520.61523 18.728516 509.34625 18.728516 496.26758 L 18.728516 36.876953 C 18.728516 23.796952 30.10164 14.232422 43.181641 14.232422 L 64.746094 14.232422 C 69.304761 14.232422 70.987672 13.712901 71.263672 19.490234 C 71.407672 22.492901 72.509437 24.825193 74.273438 26.755859 C 76.03744 28.650526 78.463239 30.208078 81.253906 31.080078 C 83.145906 31.673411 85.252385 32.210938 87.261719 32.210938 L 91.332031 32.210938 L 119.83789 32.210938 L 114.17969 0 L 41.974609 0 z "
         style="fill:#373737;fill-opacity:1;fill-rule:nonzero;stroke:none;stroke-width:0.133333"
         id="path5509" />
      <path
         transform="matrix(7.4999995,0,0,-7.4999995,442.85718,7235.7138)"
         d="M 41.974609 0 C 20.125275 0 2.2480469 17.875894 2.2480469 39.726562 L 2.2480469 70.414062 C 1.0067135 70.414062 0 71.420776 0 72.662109 L 0 88.392578 C 0 89.633912 1.0067135 90.638672 2.2480469 90.638672 L 2.2480469 109.36719 C 1.0067135 109.36719 0 110.37195 0 111.61328 L 0 145.32227 C 0 146.5636 1.0067135 147.57031 2.2480469 147.57031 L 2.2480469 158.80664 C 1.0067135 158.80664 0 159.8114 0 161.05273 L 0 194.76172 C 0 196.00305 1.0067135 197.00977 2.2480469 197.00977 L 2.2480469 497.99414 C 2.2480469 519.91134 20.180322 537.8457 42.097656 537.8457 L 160.53711 537.8457 L 157.50977 520.61523 L 43.181641 520.61523 C 30.10164 520.61523 18.728516 509.34625 18.728516 496.26758 L 18.728516 36.876953 C 18.728516 23.796952 30.10164 14.232422 43.181641 14.232422 L 64.746094 14.232422 C 66.359635 14.232422 67.596391 14.179768 68.554688 14.351562 L 66.033203 0 L 41.974609 0 z "
         style="fill:#3e3e3e;fill-opacity:1;fill-rule:nonzero;stroke:none;stroke-width:0.133333"
         id="path5511" />
    </g>
  </g>
</svg>
