<?xml version="1.0" encoding="UTF-8" standalone="no"?>
<svg
   xmlns:dc="http://purl.org/dc/elements/1.1/"
   xmlns:cc="http://creativecommons.org/ns#"
   xmlns:rdf="http://www.w3.org/1999/02/22-rdf-syntax-ns#"
   xmlns:svg="http://www.w3.org/2000/svg"
   xmlns="http://www.w3.org/2000/svg"
   xmlns:xlink="http://www.w3.org/1999/xlink"
   xmlns:sodipodi="http://sodipodi.sourceforge.net/DTD/sodipodi-0.dtd"
   xmlns:inkscape="http://www.inkscape.org/namespaces/inkscape"
   inkscape:export-ydpi="192"
   inkscape:export-xdpi="192"
   inkscape:export-filename="C:\Users\Acer\Desktop\Coding Projects\Web\Irfan's Website\assets\images\bgwaves.png"
   width="2000"
   height="1000"
   viewBox="0 0 529.16666 264.58334"
   version="1.1"
   id="svg8"
   inkscape:version="1.0 (4035a4fb49, 2020-05-01)"
   sodipodi:docname="bgwaves.svg">
  <defs
     id="defs2" />
  <sodipodi:namedview
     id="base"
     pagecolor="#ffffff"
     bordercolor="#666666"
     borderopacity="1.0"
     inkscape:pageopacity="0.0"
     inkscape:pageshadow="2"
     inkscape:zoom="0.49497475"
     inkscape:cx="954.07368"
     inkscape:cy="461.52761"
     inkscape:document-units="px"
     inkscape:current-layer="g1091"
     inkscape:document-rotation="0"
     showgrid="false"
     units="px"
     inkscape:window-width="1916"
     inkscape:window-height="1501"
     inkscape:window-x="1902"
     inkscape:window-y="0"
     inkscape:window-maximized="0"
     inkscape:snap-intersection-paths="false"
     inkscape:snap-midpoints="false"
     inkscape:snap-smooth-nodes="true"
     inkscape:snap-object-midpoints="true"
     inkscape:snap-center="true"
     inkscape:object-nodes="false"
     inkscape:snap-others="false" />
  <metadata
     id="metadata5">
    <rdf:RDF>
      <cc:Work
         rdf:about="">
        <dc:format>image/svg+xml</dc:format>
        <dc:type
           rdf:resource="http://purl.org/dc/dcmitype/StillImage" />
        <dc:title />
      </cc:Work>
    </rdf:RDF>
  </metadata>
  <g
     inkscape:label="Layer 1"
     inkscape:groupmode="layer"
     id="layer1">
    <g
       transform="matrix(0.03527778,0,0,-0.03527778,-416.90657,351.14083)"
       id="g1091">
      <path
         inkscape:tile-y0="1.3089379e-07"
         inkscape:tile-x0="2.63889e-06"
         inkscape:tile-h="5.2917092"
         inkscape:tile-w="529.16665"
         inkscape:tile-cy="2.6458547"
         inkscape:tile-cx="264.58333"
         d="m 11817.823,9653.6245 v -4.3695 c 133.341,0 201.163,-36.8773 266.754,-72.5366 33.011,-17.9436 67.156,-36.5018 109.207,-50.2186 47.172,-15.3869 99.423,-22.8751 159.751,-22.8751 60.327,0 112.579,7.4882 159.752,22.8751 42.051,13.7168 76.196,32.275 109.208,50.2186 65.592,35.6593 133.412,72.5366 266.752,72.5366 133.343,0 201.162,-36.8773 266.754,-72.5366 33.013,-17.9436 67.155,-36.5018 109.208,-50.2186 47.173,-15.3869 99.423,-22.8751 159.752,-22.8751 60.33,0 112.587,7.4882 159.763,22.8751 42.053,13.7168 76.189,32.275 109.195,50.2186 65.595,35.6593 133.418,72.5366 266.767,72.5366 133.343,0 201.157,-36.8773 266.753,-72.5366 33.004,-17.9436 67.148,-36.5018 109.208,-50.2186 47.168,-15.3869 99.429,-22.8751 159.751,-22.8751 60.322,0 112.584,7.4882 159.751,22.8751 42.06,13.7168 76.19,32.275 109.195,50.2186 65.596,35.6593 133.423,72.5366 266.766,72.5366 133.331,0 201.172,-36.8773 266.767,-72.5366 33.018,-17.9436 67.135,-36.5018 109.195,-50.2186 47.167,-15.3869 99.429,-22.8751 159.751,-22.8751 v 0.012 c 60.327,0 112.579,7.4703 159.751,22.8627 42.051,13.7174 76.196,32.2709 109.208,50.2186 65.59,35.6626 133.412,72.5366 266.754,72.5366 133.341,0 201.162,-36.874 266.752,-72.5366 33.013,-17.9477 67.155,-36.5012 109.209,-50.2186 47.171,-15.3924 99.424,-22.8627 159.751,-22.8627 60.327,0 112.579,7.4703 159.75,22.8627 42.053,13.7174 76.197,32.2709 109.209,50.2186 65.591,35.6626 133.414,72.5366 266.753,72.5366 133.344,0 201.171,-36.874 266.767,-72.5366 33.008,-17.9477 67.143,-36.5012 109.194,-50.2186 47.176,-15.3924 99.428,-22.8627 159.764,-22.8627 60.322,0 112.584,7.4703 159.752,22.8627 42.06,13.7174 76.177,32.2709 109.195,50.2186 65.595,35.6626 133.422,72.5366 266.766,72.5366 133.343,0 201.172,-36.874 266.753,-72.5366 33.02,-17.9477 67.15,-36.5012 109.196,-50.2186 47.181,-15.3924 99.442,-22.8627 159.763,-22.8627 60.323,0 112.584,7.4703 159.751,22.8627 42.06,13.7174 76.204,32.2709 109.209,50.2186 65.595,35.6626 133.409,72.5366 266.753,72.5366 133.341,0 201.163,-36.8773 266.753,-72.5366 33.012,-17.9436 67.156,-36.5018 109.208,-50.2186 47.172,-15.3869 99.422,-22.8751 159.751,-22.8751 60.327,0 112.578,7.4882 159.751,22.8751 42.052,13.7168 76.197,32.275 109.208,50.2186 65.593,35.6593 133.413,72.5366 266.754,72.5366 133.341,0 201.16,-36.8773 266.753,-72.5366 33.012,-17.9436 67.155,-36.5018 109.207,-50.2186 47.174,-15.3869 99.423,-22.8751 159.752,-22.8751 60.331,0 112.589,7.4882 159.764,22.8751 42.054,13.7168 76.188,32.275 109.195,50.2186 65.595,35.6593 133.418,72.5366 266.766,72.5366 133.344,0 201.159,-36.8773 266.753,-72.5366 33.005,-17.9436 67.149,-36.5018 109.208,-50.2186 47.168,-15.3869 99.429,-22.8751 159.751,-22.8751 60.323,0 112.585,7.4882 159.752,22.8751 42.06,13.7168 76.19,32.275 109.195,50.2186 65.595,35.6593 133.423,72.5366 266.766,72.5366 133.33,0 201.171,-36.8773 266.767,-72.5366 33.017,-17.9436 67.134,-36.5018 109.194,-50.2186 47.168,-15.3869 99.43,-22.8751 159.752,-22.8751 v 0.013 c 60.327,0 112.579,7.4703 159.75,22.8627 42.053,13.7174 76.197,32.2709 109.209,50.2186 65.59,35.6626 133.412,72.5366 266.753,72.5366 133.341,0 201.162,-36.874 266.753,-72.5366 33.012,-17.9477 67.155,-36.5012 109.208,-50.2186 47.172,-15.3924 99.425,-22.8627 159.751,-22.8627 60.328,0 112.58,7.4703 159.751,22.8627 42.053,13.7174 76.196,32.2709 109.209,50.2186 65.591,35.6626 133.414,72.5366 266.753,72.5366 133.343,0 201.171,-36.874 266.766,-72.5366 33.008,-17.9477 67.143,-36.5012 109.195,-50.2186 47.176,-15.3924 99.428,-22.8627 159.764,-22.8627 60.321,0 112.584,7.4703 159.751,22.8627 42.06,13.7174 76.177,32.2709 109.195,50.2186 65.595,35.6626 133.423,72.5366 266.767,72.5366 133.342,0 201.171,-36.874 266.753,-72.5366 33.019,-17.9477 67.15,-36.5012 109.195,-50.2186 47.181,-15.3924 99.442,-22.8627 159.764,-22.8627 60.323,0 112.583,7.4703 159.751,22.8627 42.059,13.7174 76.204,32.2709 109.208,50.2186 65.596,35.6626 133.409,72.5366 266.753,72.5366 v 4.3695 c -60.322,0 -112.584,-7.4828 -159.751,-22.8751 -42.06,-13.7174 -76.177,-32.2584 -109.195,-50.2062 -65.595,-35.6627 -133.435,-72.5366 -266.766,-72.5366 -133.344,0 -201.171,36.8739 -266.766,72.5366 -33.005,17.9478 -67.136,36.4888 -109.196,50.2062 -47.167,15.3923 -99.428,22.8751 -159.75,22.8751 -60.322,0 -112.584,-7.4828 -159.752,-22.8751 -42.059,-13.7174 -76.203,-32.2584 -109.208,-50.2062 -65.595,-35.6627 -133.409,-72.5366 -266.753,-72.5366 -133.348,0 -201.171,36.8739 -266.766,72.5366 -33.007,17.9478 -67.142,36.4888 -109.195,50.2062 -47.177,15.3923 -99.433,22.8751 -159.764,22.8751 -60.329,0 -112.58,-7.4828 -159.751,-22.8751 -42.054,-13.7174 -76.196,-32.2584 -109.208,-50.2062 -65.592,-35.6627 -133.411,-72.5366 -266.754,-72.5366 -133.341,0 -201.16,36.8739 -266.753,72.5366 -33.011,17.9478 -67.143,36.4888 -109.196,50.2062 -47.171,15.3923 -99.436,22.8751 -159.763,22.8751 -60.328,0 -112.578,-7.4828 -159.752,-22.8751 -42.051,-13.7174 -76.195,-32.2584 -109.207,-50.2062 -65.591,-35.6627 -133.413,-72.5366 -266.753,-72.5366 v -0.012 c -133.344,0 -201.158,36.8843 -266.754,72.549 -33.005,17.9436 -67.148,36.4973 -109.208,50.2062 -47.168,15.3975 -99.428,22.8751 -159.751,22.8751 -60.322,0 -112.583,-7.4776 -159.764,-22.8751 -42.045,-13.7089 -76.176,-32.2626 -109.195,-50.2062 -65.581,-35.6647 -133.409,-72.549 -266.754,-72.549 -133.344,0 -201.17,36.8843 -266.765,72.549 -33.019,17.9436 -67.135,36.4973 -109.196,50.2062 -47.167,15.3975 -99.429,22.8751 -159.751,22.8751 -60.336,0 -112.589,-7.4776 -159.764,-22.8751 -42.053,-13.7089 -76.186,-32.2626 -109.195,-50.2062 -65.595,-35.6647 -133.422,-72.549 -266.766,-72.549 -133.339,0 -201.163,36.8843 -266.753,72.549 -33.012,17.9436 -67.156,36.4973 -109.208,50.2062 -47.172,15.3975 -99.424,22.8751 -159.751,22.8751 -60.326,0 -112.58,-7.4776 -159.751,-22.8751 -42.054,-13.7089 -76.197,-32.2626 -109.209,-50.2062 -65.59,-35.6647 -133.412,-72.549 -266.753,-72.549 -133.341,0 -201.162,36.8843 -266.753,72.549 -33.012,17.9436 -67.157,36.4973 -109.208,50.2062 -47.172,15.3975 -99.424,22.8751 -159.751,22.8751 -60.323,0 -112.585,-7.4828 -159.751,-22.8751 -42.061,-13.7174 -76.177,-32.2584 -109.196,-50.2062 -65.595,-35.6627 -133.435,-72.5366 -266.766,-72.5366 -133.344,0 -201.171,36.8739 -266.766,72.5366 -33.005,17.9478 -67.135,36.4888 -109.195,50.2062 -47.168,15.3923 -99.429,22.8751 -159.751,22.8751 -60.322,0 -112.583,-7.4828 -159.751,-22.8751 -42.059,-13.7174 -76.204,-32.2584 -109.208,-50.2062 -65.595,-35.6627 -133.41,-72.5366 -266.754,-72.5366 -133.347,0 -201.171,36.8739 -266.766,72.5366 -33.007,17.9478 -67.142,36.4888 -109.195,50.2062 -47.176,15.3923 -99.433,22.8751 -159.764,22.8751 -60.329,0 -112.579,-7.4828 -159.751,-22.8751 -42.054,-13.7174 -76.196,-32.2584 -109.208,-50.2062 -65.592,-35.6627 -133.411,-72.5366 -266.753,-72.5366 -133.342,0 -201.162,36.8739 -266.753,72.5366 -33.012,17.9478 -67.157,36.4888 -109.209,50.2062 -47.172,15.3923 -99.423,22.8751 -159.75,22.8751 -60.329,0 -112.579,-7.4828 -159.752,-22.8751 -42.051,-13.7174 -76.195,-32.2584 -109.208,-50.2062 -65.591,-35.6627 -133.412,-72.5366 -266.753,-72.5366 v -0.012 c -133.344,0 -201.157,36.8843 -266.754,72.549 -33.004,17.9436 -67.148,36.4973 -109.207,50.2062 -47.169,15.3975 -99.429,22.8751 -159.752,22.8751 -60.322,0 -112.583,-7.4776 -159.764,-22.8751 -42.045,-13.7089 -76.176,-32.2626 -109.194,-50.2062 -65.582,-35.6647 -133.41,-72.549 -266.754,-72.549 -133.344,0 -201.171,36.8843 -266.766,72.549 -33.019,17.9436 -67.135,36.4973 -109.196,50.2062 -47.166,15.3975 -99.428,22.8751 -159.75,22.8751 -60.336,0 -112.589,-7.4776 -159.764,-22.8751 -42.053,-13.7089 -76.187,-32.2626 -109.196,-50.2062 -65.595,-35.6647 -133.423,-72.549 -266.765,-72.549 -133.34,0 -201.163,36.8843 -266.754,72.549 -33.012,17.9436 -67.156,36.4973 -109.208,50.2062 -47.172,15.3975 -99.424,22.8751 -159.752,22.8751 -60.325,0 -112.578,-7.4776 -159.75,-22.8751 -42.053,-13.7089 -76.196,-32.2626 -109.208,-50.2062 -65.591,-35.6647 -133.413,-72.549 -266.754,-72.549 -133.34,0 -201.162,36.8843 -266.753,72.549 -33.012,17.9436 -67.156,36.4973 -109.208,50.2062 -47.171,15.3975 -99.424,22.8751 -159.751,22.8751 z"
         style="fill:#262626;fill-opacity:1;fill-rule:nonzero;stroke:none;stroke-width:0.136007;stroke-opacity:1"
         id="path1231" />
      <use
         height="100%"
         width="100%"
         id="use1734"
         xlink:href="#path1231"
         inkscape:tiled-clone-of="#path1231"
         y="0"
         x="0" />
      <use
         height="100%"
         width="100%"
         id="use1736"
         transform="translate(0,-750.00597)"
         xlink:href="#path1231"
         inkscape:tiled-clone-of="#path1231"
         y="0"
         x="0" />
      <use
         height="100%"
         width="100%"
         id="use1738"
         transform="translate(0,-1500.012)"
         xlink:href="#path1231"
         inkscape:tiled-clone-of="#path1231"
         y="0"
         x="0" />
      <use
         height="100%"
         width="100%"
         id="use1740"
         transform="translate(0,-2250.018)"
         xlink:href="#path1231"
         inkscape:tiled-clone-of="#path1231"
         y="0"
         x="0" />
      <use
         height="100%"
         width="100%"
         id="use1742"
         transform="translate(0,-3000.0239)"
         xlink:href="#path1231"
         inkscape:tiled-clone-of="#path1231"
         y="0"
         x="0" />
      <use
         height="100%"
         width="100%"
         id="use1744"
         transform="translate(0,-3750.0299)"
         xlink:href="#path1231"
         inkscape:tiled-clone-of="#path1231"
         y="0"
         x="0" />
      <use
         height="100%"
         width="100%"
         id="use1746"
         transform="translate(0,-4500.0359)"
         xlink:href="#path1231"
         inkscape:tiled-clone-of="#path1231"
         y="0"
         x="0" />
      <use
         height="100%"
         width="100%"
         id="use1748"
         transform="translate(0,-5250.0419)"
         xlink:href="#path1231"
         inkscape:tiled-clone-of="#path1231"
         y="0"
         x="0" />
      <use
         height="100%"
         width="100%"
         id="use1750"
         transform="translate(0,-6000.0479)"
         xlink:href="#path1231"
         inkscape:tiled-clone-of="#path1231"
         y="0"
         x="0" />
      <use
         height="100%"
         width="100%"
         id="use1752"
         transform="translate(0,-6750.0539)"
         xlink:href="#path1231"
         inkscape:tiled-clone-of="#path1231"
         y="0"
         x="0" />
    </g>
  </g>
</svg>
