<?xml version="1.0" encoding="UTF-8" standalone="no"?>
<svg
   xmlns:dc="http://purl.org/dc/elements/1.1/"
   xmlns:cc="http://creativecommons.org/ns#"
   xmlns:rdf="http://www.w3.org/1999/02/22-rdf-syntax-ns#"
   xmlns:svg="http://www.w3.org/2000/svg"
   xmlns="http://www.w3.org/2000/svg"
   xmlns:sodipodi="http://sodipodi.sourceforge.net/DTD/sodipodi-0.dtd"
   xmlns:inkscape="http://www.inkscape.org/namespaces/inkscape"
   sodipodi:docname="Contact.svg"
   inkscape:version="1.0 (4035a4fb49, 2020-05-01)"
   id="svg8"
   version="1.1"
   viewBox="0 0 264.58333 71.437503"
   height="270"
   width="1000">
  <defs
     id="defs2" />
  <sodipodi:namedview
     inkscape:window-maximized="1"
     inkscape:window-y="-11"
     inkscape:window-x="-11"
     inkscape:window-height="1514"
     inkscape:window-width="2880"
     units="px"
     showgrid="false"
     inkscape:document-rotation="0"
     inkscape:current-layer="layer1"
     inkscape:document-units="px"
     inkscape:cy="199.80215"
     inkscape:cx="299.92649"
     inkscape:zoom="0.98994949"
     inkscape:pageshadow="2"
     inkscape:pageopacity="0.0"
     borderopacity="1.0"
     bordercolor="#666666"
     pagecolor="#ffffff"
     id="base" />
  <metadata
     id="metadata5">
    <rdf:RDF>
      <cc:Work
         rdf:about="">
        <dc:format>image/svg+xml</dc:format>
        <dc:type
           rdf:resource="http://purl.org/dc/dcmitype/StillImage" />
        <dc:title></dc:title>
      </cc:Work>
    </rdf:RDF>
  </metadata>
  <g
     id="layer1"
     inkscape:groupmode="layer"
     inkscape:label="Layer 1">
    <path
       id="path947"
       style="font-style:normal;font-variant:normal;font-weight:normal;font-stretch:normal;font-size:70.5556px;line-height:1.25;font-family:'Dream Orphans';-inkscape-font-specification:'Dream Orphans';letter-spacing:0px;word-spacing:0px;fill:#000000;fill-opacity:1;stroke:none;stroke-width:0.264583"
       d="M 19.896984,2.575571 C 5.7858553,2.575571 0,12.382661 0,32.632131 c 0,20.17889 5.7858024,28.01069 17.004136,28.01069 6.914462,0 12.91156,-2.9633 16.298227,-9.66607 h -2.892848 c -1.763898,4.37443 -6.914092,7.4786 -10.935759,7.4786 -7.549462,0 -11.7827419,-11.50051 -11.7827419,-27.65774 0,-16.01613 4.1625039,-26.24645 12.7702729,-26.24645 4.868334,0 8.67836,3.31578 10.442258,7.61968 l 2.963121,-0.77618 C 30.197795,4.621321 26.388113,2.575571 19.896984,2.575571 Z m 93.858876,2.82204 c -1.27,6.2089 -4.44511,9.31365 -10.16011,9.31365 v 1.97506 h 3.45715 v 32.66726 c 0,6.63223 3.38646,11.28924 11.42979,11.28924 2.61056,0 4.86876,-0.49384 6.77376,-2.25774 l -0.63511,-1.62317 c -1.48167,1.19944 -2.46951,1.62317 -3.95118,1.62317 -4.51556,0 -6.27973,-4.16287 -6.27973,-8.04344 v -33.65532 h 5.92678 v -1.97506 h -5.92678 v -9.31365 z m 83.50911,0 c -1.27,6.2089 -4.44511,9.31365 -10.16011,9.31365 v 1.97506 h 3.45716 v 32.66726 c 0,6.63223 3.38645,11.28924 11.42978,11.28924 2.61057,0 4.86876,-0.49384 6.77376,-2.25774 l -0.63511,-1.62317 c -1.48166,1.19944 -2.46951,1.62317 -3.95118,1.62317 -4.51556,0 -6.27919,-4.16287 -6.27919,-8.04344 v -33.65532 h 5.92624 v -1.97506 h -5.92624 v -9.31365 z m -145.60145,8.32559 c -12.911693,0 -17.074409,10.30103 -17.074409,24.62382 0,14.67556 4.374515,22.2958 15.592848,22.2958 10.371667,0 17.215485,-6.56185 17.215485,-24.55354 0,-14.88723 -4.797795,-22.36608 -15.733924,-22.36608 z m 37.710877,0 c -6.420565,0 -9.03097,4.37454 -10.089303,6.98511 v -6.4208 l -7.33806,2.25774 v 42.96844 h 7.33806 v -34.00775 c 1.058333,-4.86833 3.31589,-8.18451 7.196454,-8.18451 4.021667,0 6.84403,3.52785 6.84403,9.24285 v 32.94941 h 7.337532 v -34.00775 c 0,-6.84389 -4.444816,-11.78274 -11.288713,-11.78274 z m 51.892433,0 c -5.78556,0 -10.30097,2.04595 -13.2643,5.99705 l 2.25774,1.12913 c 2.3989,-3.03389 4.51557,-4.44521 8.32559,-4.44521 5.78557,0 7.83157,3.24596 7.83157,8.89043 v 5.22086 c -2.46947,2.18723 -3.31624,2.54026 -10.01903,5.22139 -6.2089,2.46944 -11.28872,5.71474 -11.28872,13.68753 0,6.27947 3.24536,11.21844 11.42979,11.21844 6.0678,0 8.39605,-2.61054 9.80715,-5.43274 0,1.19944 0.5646,2.96304 1.55237,4.30361 h 7.62021 c -1.27,-1.55223 -1.76424,-3.31574 -1.76424,-5.78517 v -29.49226 c 0,-5.64446 -3.59813,-10.51306 -12.48813,-10.51306 z m 34.709,0 c -10.6539,0 -17.63871,7.97277 -17.63871,23.28334 0,13.97 5.85586,23.63628 16.86253,23.63628 6.63223,0 9.10164,-3.45707 11.78274,-7.97263 l -1.62264,-0.70591 c -2.54,4.445 -5.00927,6.27972 -8.11371,6.27972 -7.12613,0 -11.21844,-8.74881 -11.21844,-22.50715 0,-11.35946 2.82194,-19.96725 10.65361,-19.96725 3.9511,0 5.85642,2.25747 7.19698,5.36194 l 2.25774,-0.91726 c -1.97556,-4.23334 -4.37454,-6.49108 -10.1601,-6.49108 z m -126.358703,2.5399 c 6.208897,0 10.795211,7.83174 10.795211,24.05951 0,13.54669 -3.245591,18.06247 -8.325591,18.06247 -6.773333,0 -10.089303,-7.90244 -10.089303,-23.35414 0,-13.68776 2.610247,-18.76784 7.619683,-18.76784 z m 96.800303,16.5809 v 17.35657 c -1.1289,4.37443 -3.95103,8.25478 -7.83157,8.25478 -4.23333,0 -6.13865,-4.37446 -6.13865,-10.44225 0,-5.50334 1.55247,-8.60756 5.36247,-10.37146 4.72723,-2.25777 6.56164,-3.17487 8.60775,-4.79764 z" />
  </g>
</svg>
