<svg width="1e3" height="270" version="1.1" viewBox="0 0 264.58 71.438" xmlns="http://www.w3.org/2000/svg">
 <g>
  <path d="m28.716 59.514-10.795-56.374h-7.3378l-10.583 56.374h2.6811l2.3989-12.771h13.899l2.3283 12.771zm-10.089-14.817h-13.194l6.7028-35.207z"/>
  <path d="m37.597 59.514 1.4817-5.1506c1.1289 3.8806 4.3039 6.2794 8.7489 6.2794 9.1017 0 14.746-10.019 14.746-24.906 0-13.406-4.6567-22.013-13.194-22.013-4.6567 0-8.4667 2.54-10.301 7.7611v-19.544l-7.3378 2.3283v55.245zm1.4817-33.867c1.27-5.1506 4.1628-8.3961 7.9728-8.3961 6.5617 0 7.9728 9.8072 7.9728 20.179 0 13.406-2.2578 21.378-7.4789 21.378-3.7394 0-7.1967-4.445-8.4667-9.8072z"/>
  <path d="m82.185 60.643c10.372 0 17.216-6.5617 17.216-24.553 0-14.887-4.7978-22.366-15.734-22.366-12.912 0-17.074 10.301-17.074 24.624 0 14.676 4.3744 22.296 15.593 22.296zm1.905-2.2578c-6.7733 0-10.089-7.9022-10.089-23.354 0-13.688 2.6106-18.768 7.62-18.768 6.2089 0 10.795 7.8317 10.795 24.059 0 13.547-3.2456 18.062-8.3256 18.062z"/>
  <path d="m132.53 59.514v-45.226l-7.3378 2.3283v31.75c-0.77611 3.9511-2.9633 9.6661-8.1139 9.6661-3.7394 0-5.9267-3.175-5.9267-9.6661v-34.078l-7.3378 2.3283v32.738c0 6.8439 4.2333 11.289 11.571 11.289 5.08 0 7.9022-2.6106 9.8072-6.35l1.4817 5.2211z"/>
  <path d="m156.62 56.762c-1.4817 1.1994-2.4694 1.6228-3.9511 1.6228-4.5156 0-6.2794-4.1628-6.2794-8.0433v-33.655h5.9267v-1.9756h-5.9267v-9.3133h-0.635c-1.27 6.2089-4.445 9.3133-10.16 9.3133v1.9756h3.4572v32.667c0 6.6322 3.3867 11.289 11.43 11.289 2.6106 0 4.8683-0.49389 6.7733-2.2578z"/>
 </g>
</svg>
