<svg width="1e3" height="270" version="1.1" viewBox="0 0 264.58 71.438" xmlns="http://www.w3.org/2000/svg">
 <path d="m19.897 2.5756c-14.111 0-19.897 9.8071-19.897 30.057 0 20.179 5.7858 28.011 17.004 28.011 6.9145 0 12.912-2.9633 16.298-9.6661h-2.8928c-1.7639 4.3744-6.9141 7.4786-10.936 7.4786-7.5495 0-11.783-11.501-11.783-27.658 0-16.016 4.1625-26.246 12.77-26.246 4.8683 0 8.6784 3.3158 10.442 7.6197l2.9631-0.77618c-3.6689-6.7733-7.4786-8.8191-13.97-8.8191zm93.859 2.822c-1.27 6.2089-4.4451 9.3136-10.16 9.3136v1.9751h3.4572v32.667c0 6.6322 3.3865 11.289 11.43 11.289 2.6106 0 4.8688-0.49384 6.7738-2.2577l-0.63511-1.6232c-1.4817 1.1994-2.4695 1.6232-3.9512 1.6232-4.5156 0-6.2797-4.1629-6.2797-8.0434v-33.655h5.9268v-1.9751h-5.9268v-9.3136zm83.509 0c-1.27 6.2089-4.4451 9.3136-10.16 9.3136v1.9751h3.4572v32.667c0 6.6322 3.3864 11.289 11.43 11.289 2.6106 0 4.8688-0.49384 6.7738-2.2577l-0.63511-1.6232c-1.4817 1.1994-2.4695 1.6232-3.9512 1.6232-4.5156 0-6.2792-4.1629-6.2792-8.0434v-33.655h5.9262v-1.9751h-5.9262v-9.3136zm-145.6 8.3256c-12.912 0-17.074 10.301-17.074 24.624 0 14.676 4.3745 22.296 15.593 22.296 10.372 0 17.215-6.5618 17.215-24.554 0-14.887-4.7978-22.366-15.734-22.366zm37.711 0c-6.4206 0-9.031 4.3745-10.089 6.9851v-6.4208l-7.3381 2.2577v42.968h7.3381v-34.008c1.0583-4.8683 3.3159-8.1845 7.1965-8.1845 4.0217 0 6.844 3.5278 6.844 9.2428v32.949h7.3375v-34.008c0-6.8439-4.4448-11.783-11.289-11.783zm51.892 0c-5.7856 0-10.301 2.046-13.264 5.997l2.2577 1.1291c2.3989-3.0339 4.5156-4.4452 8.3256-4.4452 5.7856 0 7.8316 3.246 7.8316 8.8904v5.2209c-2.4695 2.1872-3.3162 2.5403-10.019 5.2214-6.2089 2.4694-11.289 5.7147-11.289 13.688 0 6.2795 3.2454 11.218 11.43 11.218 6.0678 0 8.396-2.6105 9.8072-5.4327 0 1.1994 0.5646 2.963 1.5524 4.3036h7.6202c-1.27-1.5522-1.7642-3.3157-1.7642-5.7852v-29.492c0-5.6445-3.5981-10.513-12.488-10.513zm34.709 0c-10.654 0-17.639 7.9728-17.639 23.283 0 13.97 5.8559 23.636 16.863 23.636 6.6322 0 9.1016-3.4571 11.783-7.9726l-1.6226-0.70591c-2.54 4.445-5.0093 6.2797-8.1137 6.2797-7.1261 0-11.218-8.7488-11.218-22.507 0-11.359 2.8219-19.967 10.654-19.967 3.9511 0 5.8564 2.2575 7.197 5.3619l2.2577-0.91726c-1.9756-4.2333-4.3745-6.4911-10.16-6.4911zm-126.36 2.5399c6.2089 0 10.795 7.8317 10.795 24.06 0 13.547-3.2456 18.062-8.3256 18.062-6.7733 0-10.089-7.9024-10.089-23.354 0-13.688 2.6102-18.768 7.6197-18.768zm96.8 16.581v17.357c-1.1289 4.3744-3.951 8.2548-7.8316 8.2548-4.2333 0-6.1386-4.3745-6.1386-10.442 0-5.5033 1.5525-8.6076 5.3625-10.371 4.7272-2.2578 6.5616-3.1749 8.6078-4.7976z"/>
</svg>
