<svg width="1e3" height="270" version="1.1" viewBox="0 0 264.58 71.438" xmlns="http://www.w3.org/2000/svg">
 <g>
  <path d="m7.3377 59.514v-24.342h3.8806c12.982 0 17.851-5.2917 17.851-16.581 0-9.5956-3.5983-15.452-13.547-15.452h-15.522v56.374zm0-26.388v-28.011h3.8806c8.7489 0 10.372 6.4911 10.372 13.829 0 6.985-1.4817 14.182-10.089 14.182z"/>
  <path d="m40.548 59.514v-30.48c1.6228-5.2211 4.3039-9.6661 7.6906-9.6661 0.77611 0 1.4817 0.21167 1.9756 0.56444l3.5278-4.5861c-1.1289-1.0583-2.3989-1.6228-4.0217-1.6228-3.8806 0-6.9144 3.3161-9.1722 10.936v-10.372l-7.3378 2.2578v42.968z"/>
  <path d="m68.358 60.643c10.372 0 17.216-6.5617 17.216-24.553 0-14.887-4.7978-22.366-15.734-22.366-12.912 0-17.074 10.301-17.074 24.624 0 14.676 4.3744 22.296 15.593 22.296zm1.905-2.2578c-6.7733 0-10.089-7.9022-10.089-23.354 0-13.688 2.6106-18.768 7.62-18.768 6.2089 0 10.795 7.8317 10.795 24.059 0 13.547-3.2456 18.062-8.3256 18.062z"/>
  <path d="m95.415 9.4193c2.3283 0 4.3039-1.9756 4.3039-4.445 0-2.3283-1.9756-4.2333-4.3039-4.2333-2.3989 0-4.2333 1.9756-4.2333 4.2333 0 2.3989 1.8344 4.445 4.2333 4.445zm-15.381 62.018c14.676-2.3283 18.838-6.4206 18.838-17.145v-40.005l-7.4083 2.2578v41.981c0 6.35-3.7394 9.3839-12.206 11.501z"/>
  <path d="m130.08 51.964c-2.6811 4.445-4.9389 6.2794-7.9022 6.2794-7.4083 0-10.866-10.936-10.866-20.884 0-1.27 0-2.54 0.0706-3.1044h24.412c0-11.148-4.5861-20.532-14.323-20.532-10.231 0-18.133 10.16-18.133 24.553 0 12.347 5.8561 22.366 16.369 22.366 6.0678 0 9.2428-3.3867 12.065-7.9728zm-18.344-20.461c0.98778-8.0433 3.3867-15.381 9.3133-15.381 6.4911 0 8.8194 8.6783 8.8194 15.381z"/>
  <path d="m166.19 51.964c-2.54 4.445-5.0094 6.2794-8.1139 6.2794-7.1261 0-11.218-8.7489-11.218-22.507 0-11.359 2.8222-19.967 10.654-19.967 3.9511 0 5.8561 2.2578 7.1967 5.3622l2.2578-0.91722c-1.9756-4.2333-4.3744-6.4911-10.16-6.4911-10.654 0-17.639 7.9728-17.639 23.283 0 13.97 5.8561 23.636 16.863 23.636 6.6322 0 9.1017-3.4572 11.783-7.9728z"/>
  <path d="m188.96 56.762c-1.4817 1.1994-2.4694 1.6228-3.9511 1.6228-4.5156 0-6.2794-4.1628-6.2794-8.0433v-33.655h5.9267v-1.9756h-5.9267v-9.3133h-0.63501c-1.27 6.2089-4.445 9.3133-10.16 9.3133v1.9756h3.4572v32.667c0 6.6322 3.3867 11.289 11.43 11.289 2.6106 0 4.8683-0.49389 6.7733-2.2578z"/>
  <path d="m189.24 52.458c1.6228 4.3039 5.5739 8.1844 12.7 8.1844 9.4544 0 14.111-6.6322 14.111-13.476 0-4.0922-1.7639-7.2672-4.9389-9.4545-2.8222-2.0461-7.7611-4.1628-11.148-6.7733-2.6106-2.0461-3.81-4.0922-3.81-6.985 0-5.0094 3.3867-7.4789 7.5494-7.4789 3.2456 0 6.0678 1.4111 7.9728 4.7978l2.1167-1.8344c-1.8344-3.5278-5.715-5.715-10.513-5.715-7.9022 0-13.406 5.6444-13.406 13.053 0 3.81 1.5522 6.985 4.5156 9.3839 2.6811 2.1872 7.1967 4.3744 10.231 6.5617 3.2456 2.3989 4.5156 4.6567 4.5156 7.3378 0 4.5861-3.5983 7.9022-8.1139 7.9022-4.445 0-7.6906-3.3161-9.2428-7.1261z"/>
 </g>
</svg>
