<svg width="1e3" height="270" version="1.1" viewBox="0 0 264.58 71.438" xmlns="http://www.w3.org/2000/svg">
 <path d="m95.415 0.74105c-2.3989 0-4.2333 1.9756-4.2333 4.2333 0 2.3989 1.8344 4.4452 4.2333 4.4452 2.3283 0 4.3041-1.9758 4.3041-4.4452 0-2.3283-1.9758-4.2333-4.3041-4.2333zm-95.415 2.3988v56.374h7.3381v-24.342h3.8804c12.982 0 17.851-5.2915 17.851-16.58 0-9.5956-3.5987-15.452-13.547-15.452zm7.3381 1.9756h3.8804c8.7489 0 10.371 6.4913 10.371 13.829 0 6.985-1.4815 14.182-10.089 14.182h-4.1625zm170.76 0.28215c-1.27 6.2089-4.4451 9.3136-10.16 9.3136v1.9751h3.4577v32.667c0 6.6322 3.3864 11.289 11.43 11.289 2.6105 0 4.8682-0.49384 6.7732-2.2577l-0.6351-1.6232c-1.4817 1.1994-2.4695 1.6232-3.9512 1.6232-4.5156 0-6.2792-4.1629-6.2792-8.0434v-33.655h5.9268v-1.9751h-5.9268v-9.3136zm-128.38 8.3256c-3.8806 0-6.9148 3.3163-9.1726 10.936v-10.372l-7.3375 2.2577v42.968h7.3375v-30.48c1.6228-5.2211 4.3038-9.6661 7.6905-9.6661 0.7761 0 1.4817 0.21154 1.9756 0.56431l3.528-4.5863c-1.1289-1.0583-2.3987-1.6226-4.0215-1.6226zm20.119 0c-12.912 0-17.074 10.301-17.074 24.624 0 14.676 4.3745 22.296 15.593 22.296 10.372 0 17.215-6.5618 17.215-24.554 0-14.887-4.7978-22.366-15.734-22.366zm51.633 0c-10.231 0-18.133 10.16-18.133 24.554 0 12.347 5.8557 22.366 16.368 22.366 6.0678 0 9.2432-3.3865 12.065-7.9726l-1.6934-0.70591c-2.6811 4.445-4.939 6.2797-7.9024 6.2797-7.4083 0-10.865-10.936-10.865-20.885 0-1.27 1.8e-4 -2.5403 0.0708-3.1047h24.412c0-11.148-4.586-20.532-14.323-20.532zm35.335 0c-10.654 0-17.639 7.9728-17.639 23.283 0 13.97 5.8559 23.636 16.863 23.636 6.6322 0 9.1021-3.4571 11.783-7.9726l-1.6232-0.70591c-2.54 4.445-5.0093 6.2797-8.1137 6.2797-7.1261 0-11.218-8.7488-11.218-22.507 0-11.359 2.8225-19.967 10.654-19.967 3.9511 0 5.8559 2.2575 7.1964 5.3619l2.2578-0.91726c-1.9756-4.2333-4.3746-6.4911-10.16-6.4911zm46.472 0c-7.9022 0-13.405 5.6446-13.405 13.053 0 3.81 1.5522 6.985 4.5155 9.3839 2.6811 2.1872 7.1965 4.3741 10.23 6.5614 3.2455 2.3989 4.5155 4.6569 4.5155 7.3381 0 4.5861-3.5981 7.9024-8.1137 7.9024-4.445 0-7.6906-3.3162-9.2428-7.1262l-2.5399 1.6226c1.6228 4.3039 5.5739 8.1845 12.7 8.1845 9.4544 0 14.111-6.6323 14.111-13.476 0-4.0922-1.7637-7.2675-4.9387-9.4547-2.8222-2.0461-7.761-4.1627-11.148-6.7732-2.6106-2.0461-3.8101-4.0923-3.8101-6.9851 0-5.0094 3.3866-7.4786 7.5494-7.4786 3.2456 0 6.0676 1.411 7.9726 4.7976l2.1167-1.8345c-1.8344-3.5278-5.7148-5.7149-10.513-5.7149zm-104.41 0.56431-7.4083 2.2577v41.981c0 6.35-3.7393 9.3839-12.206 11.501l0.77618 1.4108c14.676-2.3283 18.838-6.4202 18.838-17.145zm22.176 1.8345c6.4911 0 8.8196 8.6782 8.8196 15.381h-18.133c0.98776-8.0433 3.3864-15.381 9.3131-15.381zm-53.255 0.14108c6.2089 0 10.795 7.8317 10.795 24.06 0 13.547-3.2456 18.062-8.3256 18.062-6.7733 0-10.089-7.9024-10.089-23.354 0-13.688 2.6108-18.768 7.6202-18.768z"/>
</svg>
