<svg width="1e3" height="270" version="1.1" viewBox="0 0 264.58 71.438" xmlns="http://www.w3.org/2000/svg">
 <path d="m0 3.1399v56.374h7.3381v-27.164h7.7613c3.7395 0 6.2792 2.3988 6.2792 7.5494v13.476c0 4.0217 2.3991 6.9851 8.5374 6.9851 1.6228 0 2.0457-0.21209 2.8923-0.42376-2.7517-0.7761-4.0923-2.963-4.0923-6.5613v-10.583c0-6.7028-3.2452-10.443-7.9018-11.289 5.2917-1.6228 7.7608-6.9848 7.7608-13.546 0-8.8195-4.3741-14.817-13.194-14.817zm7.3381 1.9756h3.3161c6.985 0 10.583 4.1628 10.583 13.617 0 7.1967-2.1167 11.571-6.2089 11.571h-7.6905zm43.993 8.6077c-10.231 0-18.133 10.16-18.133 24.554 0 12.347 5.8557 22.366 16.369 22.366 6.0678 0 9.2432-3.3865 12.065-7.9726l-1.6934-0.70591c-2.6811 4.445-4.939 6.2797-7.9023 6.2797-7.4083 0-10.865-10.936-10.866-20.885 0-1.27-3.18e-4 -2.5403 0.0703-3.1047h24.412c0-11.148-4.586-20.532-14.323-20.532zm30.819 0c-7.9022 0-13.405 5.6446-13.405 13.053 0 3.81 1.5522 6.985 4.5155 9.3839 2.6811 2.1872 7.1965 4.3741 10.23 6.5614 3.2456 2.3989 4.5155 4.6569 4.5155 7.3381 0 4.5861-3.5982 7.9024-8.1137 7.9024-4.445 0-7.6906-3.3162-9.2428-7.1262l-2.5399 1.6226c1.6228 4.3039 5.5739 8.1845 12.7 8.1845 9.4544 0 14.111-6.6323 14.111-13.476 0-4.0922-1.7642-7.2675-4.9392-9.4547-2.8222-2.0461-7.761-4.1627-11.148-6.7732-2.6106-2.0461-3.8101-4.0923-3.8101-6.9851 0-5.0094 3.3866-7.4786 7.5494-7.4786 3.2455 0 6.0681 1.411 7.9731 4.7976l2.1167-1.8345c-1.8344-3.5278-5.7153-5.7149-10.513-5.7149zm67.062 0c-4.1628 0-7.6199 2.7517-9.031 6.35v-5.7857l-7.338 2.2577v42.968h7.338v-34.361c1.0583-3.7394 3.4571-8.8191 6.9143-8.8191 2.4694 0 4.1625 2.6104 4.1625 8.2548v34.925h7.2673v-34.361c1.0583-3.7394 3.4576-8.8191 6.9148-8.8191 2.4695 0 4.0923 2.6104 4.0923 8.2548v34.925h7.1965v-34.854c0-6.35-3.3159-10.936-10.371-10.936-4.0922 0-7.5499 1.6931-9.9487 5.0798-1.3406-3.5983-4.2331-5.0798-7.1964-5.0798zm49.982 0c-10.231 0-18.133 10.16-18.133 24.554 0 12.347 5.8562 22.366 16.369 22.366 6.0678 0 9.2427-3.3865 12.065-7.9726l-1.6934-0.70591c-2.6811 4.445-4.939 6.2797-7.9024 6.2797-7.4083 0-10.865-10.936-10.865-20.885 0-1.27 1.9e-4 -2.5403 0.0708-3.1047h24.412c0-11.148-4.586-20.532-14.323-20.532zm-92.778 0.56431-7.3381 2.3285v32.738c0 6.8439 4.2336 11.289 11.571 11.289 5.08 0 7.9022-2.6106 9.8072-6.35l1.4816 5.2209h5.8565v-45.226l-7.338 2.3285v31.75c-0.77613 3.9511-2.9632 9.6661-8.1137 9.6661-3.7394 0-5.9268-3.175-5.9268-9.6661zm-55.509 1.8345c6.4911 0 8.8196 8.6782 8.8196 15.381h-18.133c0.98777-8.0433 3.3865-15.381 9.3131-15.381zm147.86 0c6.4911 0 8.8196 8.6782 8.8196 15.381h-18.133c0.98777-8.0433 3.387-15.381 9.3136-15.381z"/>
</svg>
