<svg width="1e3" height="270" version="1.1" viewBox="0 0 264.58 71.438" xmlns="http://www.w3.org/2000/svg">
 <path d="m68.685 0.74105c-2.3283 0-4.3041 1.9047-4.3041 4.3036 0 2.3283 1.9758 4.3749 4.3041 4.3749s4.2333-2.0466 4.2333-4.3749c0-2.3989-1.7639-4.3036-4.2333-4.3036zm-29.821 1.1994-7.3375 2.3285v55.245h7.3375v-20.038l3.175-3.528 11.854 23.565h7.9024l-14.676-29.28 13.829-15.522h-2.822l-19.262 21.308zm45.889 0-7.3375 2.3285v55.245h7.3375zm12.265 0-7.3381 2.3285v55.245h7.3381zm-81.707 0.63511c-8.6783 0-13.829 5.7854-13.829 13.546 0 4.3039 1.5522 7.9023 4.3744 11.218 3.1044 3.7395 8.2549 7.6906 11.148 11.218 2.1167 2.6106 3.2458 5.221 3.2458 9.031 0 6.9145-3.4572 10.513-8.4667 10.513-5.0095 0-8.1843-3.6689-9.1721-7.2673l-2.6107 1.6226c1.905 4.9389 5.2916 8.1845 11.924 8.1845 9.1017 0 15.522-6.209 15.522-14.111 0-4.7978-2.3283-9.3839-5.2917-12.7-2.2578-2.3989-8.7486-8.2548-10.795-10.371-2.54-2.6811-3.4572-5.3622-3.4572-8.7488 0-6.2795 3.2452-9.5958 7.7608-9.5958 3.7395 0 6.1384 2.2578 8.0434 5.2917l2.1875-1.6934c-2.8222-3.9511-5.2211-6.1381-10.583-6.1381zm99.192 11.148c-7.9022 0-13.406 5.6446-13.406 13.053 0 3.81 1.5522 6.985 4.5155 9.3839 2.6811 2.1872 7.197 4.3741 10.231 6.5614 3.2455 2.3989 4.5155 4.6569 4.5155 7.3381 0 4.5861-3.5987 7.9024-8.1142 7.9024-4.445 0-7.6901-3.3162-9.2423-7.1262l-2.5404 1.6226c1.6228 4.3039 5.5739 8.1845 12.7 8.1845 9.4545 0 14.111-6.6323 14.111-13.476 0-4.0922-1.7637-7.2675-4.9387-9.4547-2.8222-2.0461-7.7615-4.1627-11.148-6.7732-2.6106-2.0461-3.8096-4.0923-3.8096-6.9851 0-5.0094 3.3866-7.4786 7.5494-7.4786 3.2455 0 6.0676 1.411 7.9726 4.7976l2.1167-1.8345c-1.8345-3.5278-5.7148-5.7149-10.513-5.7149zm-42.29 0.56431-7.3381 2.2577v42.968h7.3381z"/>
</svg>
