<?xml version="1.0" encoding="UTF-8" standalone="no"?>
<svg
   xmlns:dc="http://purl.org/dc/elements/1.1/"
   xmlns:cc="http://creativecommons.org/ns#"
   xmlns:rdf="http://www.w3.org/1999/02/22-rdf-syntax-ns#"
   xmlns:svg="http://www.w3.org/2000/svg"
   xmlns="http://www.w3.org/2000/svg"
   xmlns:sodipodi="http://sodipodi.sourceforge.net/DTD/sodipodi-0.dtd"
   xmlns:inkscape="http://www.inkscape.org/namespaces/inkscape"
   width="1000"
   height="270"
   viewBox="0 0 264.58333 71.437503"
   version="1.1"
   id="svg8"
   inkscape:version="1.0 (4035a4fb49, 2020-05-01)"
   sodipodi:docname="Projects.svg">
  <defs
     id="defs2" />
  <sodipodi:namedview
     id="base"
     pagecolor="#ffffff"
     bordercolor="#666666"
     borderopacity="1.0"
     inkscape:pageopacity="0.0"
     inkscape:pageshadow="2"
     inkscape:zoom="0.98994949"
     inkscape:cx="299.92649"
     inkscape:cy="199.80215"
     inkscape:document-units="px"
     inkscape:current-layer="layer1"
     inkscape:document-rotation="0"
     showgrid="false"
     units="px"
     inkscape:window-width="2880"
     inkscape:window-height="1514"
     inkscape:window-x="-11"
     inkscape:window-y="-11"
     inkscape:window-maximized="1" />
  <metadata
     id="metadata5">
    <rdf:RDF>
      <cc:Work
         rdf:about="">
        <dc:format>image/svg+xml</dc:format>
        <dc:type
           rdf:resource="http://purl.org/dc/dcmitype/StillImage" />
        <dc:title />
      </cc:Work>
    </rdf:RDF>
  </metadata>
  <g
     inkscape:label="Layer 1"
     inkscape:groupmode="layer"
     id="layer1">
    <path
       d="m 95.415363,0.74105105 c -2.398897,0 -4.233333,1.97556995 -4.233333,4.23332995 0,2.3989 1.834436,4.44522 4.233333,4.44522 2.328334,0 4.304136,-1.97578 4.304136,-4.44522 0,-2.32833 -1.975802,-4.23332995 -4.304136,-4.23332995 z M 0,3.139871 v 56.37382 h 7.3380599 v -24.34167 h 3.8803791 c 12.982231,0 17.850591,-5.29148 17.850591,-16.58038 0,-9.59556 -3.598651,-15.45177 -13.546984,-15.45177 z m 7.3380599,1.97559 h 3.8803791 c 8.748898,0 10.371455,6.49134 10.371455,13.82914 0,6.985 -1.481508,14.18156 -10.089303,14.18156 H 7.3380599 Z M 178.09662,5.397611 c -1.27,6.2089 -4.4451,9.31365 -10.1601,9.31365 v 1.97506 h 3.45768 v 32.66726 c 0,6.63223 3.38643,11.28924 11.42979,11.28924 2.61053,0 4.8682,-0.49384 6.77322,-2.25774 l -0.6351,-1.62317 c -1.48167,1.19944 -2.46952,1.62317 -3.95118,1.62317 -4.51557,0 -6.2792,-4.16287 -6.2792,-8.04344 v -33.65532 h 5.92677 v -1.97506 h -5.92677 v -9.31365 z m -128.375618,8.32559 c -3.880564,0 -6.914806,3.31626 -9.172575,10.93629 v -10.37198 l -7.337531,2.25774 v 42.96844 h 7.337531 v -30.47979 c 1.622769,-5.22113 4.303818,-9.66608 7.690485,-9.66608 0.776102,0 1.481693,0.21154 1.975591,0.56431 l 3.527954,-4.58629 c -1.128898,-1.05833 -2.398686,-1.62264 -4.021455,-1.62264 z m 20.119181,0 c -12.911693,0 -17.074409,10.30103 -17.074409,24.62382 0,14.67556 4.374515,22.2958 15.592848,22.2958 10.371667,0 17.215485,-6.56185 17.215485,-24.55354 0,-14.88723 -4.797795,-22.36608 -15.733924,-22.36608 z m 51.632507,0 c -10.23056,0 -18.13274,10.16021 -18.13274,24.55355 0,12.34723 5.85571,22.36607 16.3685,22.36607 6.06777,0 9.24319,-3.38653 12.06543,-7.97263 l -1.69344,-0.70591 c -2.68113,4.445 -4.93903,6.27972 -7.90237,6.27972 -7.40833,0 -10.86548,-10.93618 -10.86548,-20.88451 0,-1.27 1.8e-4,-2.54026 0.0708,-3.10473 h 24.41194 c 0,-11.14777 -4.58597,-20.53156 -14.32264,-20.53156 z m 35.33479,0 c -10.6539,0 -17.63871,7.97277 -17.63871,23.28334 0,13.97 5.85586,23.63628 16.86253,23.63628 6.63223,0 9.10214,-3.45707 11.78327,-7.97263 l -1.62317,-0.70591 c -2.54,4.445 -5.00927,6.27972 -8.11371,6.27972 -7.12613,0 -11.21844,-8.74881 -11.21844,-22.50715 0,-11.35946 2.82247,-19.96725 10.65414,-19.96725 3.9511,0 5.85589,2.25747 7.19645,5.36194 l 2.25775,-0.91726 c -1.97557,-4.23334 -4.37455,-6.49108 -10.16011,-6.49108 z m 46.4721,0 c -7.90223,0 -13.40537,5.64462 -13.40537,13.05296 0,3.81 1.55215,6.98502 4.51548,9.38392 2.6811,2.18723 7.19648,4.37414 10.23038,6.56135 3.24554,2.3989 4.51548,4.65693 4.51548,7.33806 0,4.5861 -3.59814,7.90236 -8.11371,7.90236 -4.445,0 -7.69064,-3.31618 -9.24285,-7.12618 l -2.53989,1.62264 c 1.62277,4.3039 5.57387,8.18451 12.7,8.18451 9.45443,0 14.11076,-6.63228 14.11076,-13.47618 0,-4.09223 -1.76372,-7.26749 -4.93872,-9.45473 -2.82223,-2.0461 -7.76097,-4.16266 -11.14763,-6.77322 -2.61057,-2.04611 -3.81011,-4.09231 -3.81011,-6.98511 0,-5.00943 3.38662,-7.47861 7.54941,-7.47861 3.24557,0 6.06764,1.41097 7.97264,4.79764 l 2.11666,-1.83451 c -1.83443,-3.52777 -5.71476,-5.7149 -10.51253,-5.7149 z m -104.407065,0.56431 -7.408333,2.25774 v 41.98091 c 0,6.35 -3.739304,9.38392 -12.20597,11.50059 l 0.776182,1.41075 c 14.675564,-2.32833 18.838121,-6.42024 18.838121,-17.14468 z m 22.176425,1.83451 c 6.49113,0 8.81962,8.6782 8.81962,15.38097 h -18.13274 c 0.98776,-8.04333 3.38645,-15.38097 9.31312,-15.38097 z m -53.254621,0.14108 c 6.208871,0 10.794682,7.83174 10.794682,24.05951 0,13.54669 -3.24559,18.06247 -8.32559,18.06247 -6.773334,0 -10.089304,-7.90244 -10.089304,-23.35414 0,-13.68776 2.61075,-18.76784 7.620212,-18.76784 z"
       style="font-style:normal;font-variant:normal;font-weight:normal;font-stretch:normal;font-size:70.5556px;line-height:1.25;font-family:'Dream Orphans';-inkscape-font-specification:'Dream Orphans';letter-spacing:0px;word-spacing:0px;fill:#000000;fill-opacity:1;stroke:none;stroke-width:0.264583"
       id="path901" />
  </g>
</svg>
