<?xml version="1.0" encoding="UTF-8" standalone="no"?>
<svg
   xmlns:dc="http://purl.org/dc/elements/1.1/"
   xmlns:cc="http://creativecommons.org/ns#"
   xmlns:rdf="http://www.w3.org/1999/02/22-rdf-syntax-ns#"
   xmlns:svg="http://www.w3.org/2000/svg"
   xmlns="http://www.w3.org/2000/svg"
   xmlns:sodipodi="http://sodipodi.sourceforge.net/DTD/sodipodi-0.dtd"
   xmlns:inkscape="http://www.inkscape.org/namespaces/inkscape"
   width="1000"
   height="270"
   viewBox="0 0 264.58333 71.437503"
   version="1.1"
   id="svg8"
   inkscape:version="1.0 (4035a4fb49, 2020-05-01)"
   sodipodi:docname="Projects.svg">
  <defs
     id="defs2" />
  <sodipodi:namedview
     id="base"
     pagecolor="#ffffff"
     bordercolor="#666666"
     borderopacity="1.0"
     inkscape:pageopacity="0.0"
     inkscape:pageshadow="2"
     inkscape:zoom="0.98994949"
     inkscape:cx="661.5611"
     inkscape:cy="86.665065"
     inkscape:document-units="px"
     inkscape:current-layer="layer1"
     inkscape:document-rotation="0"
     showgrid="false"
     units="px"
     inkscape:window-width="2880"
     inkscape:window-height="1514"
     inkscape:window-x="-11"
     inkscape:window-y="-11"
     inkscape:window-maximized="1" />
  <metadata
     id="metadata5">
    <rdf:RDF>
      <cc:Work
         rdf:about="">
        <dc:format>image/svg+xml</dc:format>
        <dc:type
           rdf:resource="http://purl.org/dc/dcmitype/StillImage" />
        <dc:title></dc:title>
      </cc:Work>
    </rdf:RDF>
  </metadata>
  <g
     inkscape:label="Layer 1"
     inkscape:groupmode="layer"
     id="layer1">
    <path
       d="M 7.3376762,59.513737 V 35.172054 h 3.8805578 c 12.982231,0 17.850568,-5.291671 17.850568,-16.580567 0,-9.595562 -3.598336,-15.4516771 -13.546676,-15.4516771 H -1.064949e-4 V 59.513737 Z m 0,-26.387796 V 5.1153668 h 3.8805578 c 8.748895,0 10.371674,6.4911152 10.371674,13.8288982 0,6.985005 -1.481668,14.181676 -10.089451,14.181676 z"
       style="font-style:normal;font-variant:normal;font-weight:normal;font-stretch:normal;font-size:70.5556px;line-height:1.25;font-family:'Dream Orphans';-inkscape-font-specification:'Dream Orphans';letter-spacing:0px;word-spacing:0px;fill:#000000;fill-opacity:1;stroke:none;stroke-width:0.264583"
       id="path841" />
    <path
       d="M 40.548419,59.513737 V 29.033716 c 1.622779,-5.221114 4.303892,-9.666117 7.690561,-9.666117 0.776112,0 1.481668,0.211666 1.975557,0.564444 l 3.52778,-4.586114 c -1.12889,-1.058334 -2.398891,-1.622779 -4.021669,-1.622779 -3.880559,0 -6.91445,3.316114 -9.172229,10.936119 V 14.287595 l -7.337783,2.257779 v 42.968363 z"
       style="font-style:normal;font-variant:normal;font-weight:normal;font-stretch:normal;font-size:70.5556px;line-height:1.25;font-family:'Dream Orphans';-inkscape-font-specification:'Dream Orphans';letter-spacing:0px;word-spacing:0px;fill:#000000;fill-opacity:1;stroke:none;stroke-width:0.264583"
       id="path843" />
    <path
       d="m 68.358353,60.642626 c 10.371674,0 17.215567,-6.561671 17.215567,-24.553349 0,-14.887233 -4.797781,-22.366127 -15.733899,-22.366127 -12.911675,0 -17.074456,10.301118 -17.074456,24.623906 0,14.675565 4.374447,22.29557 15.592788,22.29557 z m 1.905002,-2.257779 c -6.773338,0 -10.089452,-7.902227 -10.089452,-23.353905 0,-13.687787 2.610558,-18.76779 7.620005,-18.76779 6.208893,0 10.795008,7.831672 10.795008,24.059461 0,13.546675 -3.245558,18.062234 -8.325561,18.062234 z"
       style="font-style:normal;font-variant:normal;font-weight:normal;font-stretch:normal;font-size:70.5556px;line-height:1.25;font-family:'Dream Orphans';-inkscape-font-specification:'Dream Orphans';letter-spacing:0px;word-spacing:0px;fill:#000000;fill-opacity:1;stroke:none;stroke-width:0.264583"
       id="path845" />
    <path
       d="m 95.41532,9.4192586 c 2.328335,0 4.303892,-1.9755569 4.303892,-4.445003 0,-2.3283349 -1.975557,-4.2333362 -4.303892,-4.2333362 -2.39889,0 -4.233336,1.9755569 -4.233336,4.2333362 0,2.3988905 1.834446,4.445003 4.233336,4.445003 z M 80.034199,71.437634 C 94.709764,69.109299 98.872545,65.017074 98.872545,54.292622 V 14.287595 l -7.408339,2.257779 v 41.980584 c 0,6.350005 -3.739447,9.383895 -12.206119,11.500564 z"
       style="font-style:normal;font-variant:normal;font-weight:normal;font-stretch:normal;font-size:70.5556px;line-height:1.25;font-family:'Dream Orphans';-inkscape-font-specification:'Dream Orphans';letter-spacing:0px;word-spacing:0px;fill:#000000;fill-opacity:1;stroke:none;stroke-width:0.264583"
       id="path847" />
    <path
       d="m 130.08017,51.964287 c -2.68111,4.445003 -4.93889,6.279449 -7.90222,6.279449 -7.40834,0 -10.86557,-10.936119 -10.86557,-20.884459 0,-1.27 0,-2.540001 0.0706,-3.104446 h 24.41224 c 0,-11.147785 -4.58612,-20.531681 -14.32279,-20.531681 -10.23056,0 -18.13279,10.160007 -18.13279,24.55335 0,12.347231 5.85612,22.366126 16.3689,22.366126 6.06778,0 9.24278,-3.386669 12.06501,-7.972783 z M 111.73572,31.503162 c 0.98778,-8.043338 3.38667,-15.381121 9.31334,-15.381121 6.49111,0 8.81945,8.678339 8.81945,15.381121 z"
       style="font-style:normal;font-variant:normal;font-weight:normal;font-stretch:normal;font-size:70.5556px;line-height:1.25;font-family:'Dream Orphans';-inkscape-font-specification:'Dream Orphans';letter-spacing:0px;word-spacing:0px;fill:#000000;fill-opacity:1;stroke:none;stroke-width:0.264583"
       id="path849" />
    <path
       d="m 166.19141,51.964287 c -2.54,4.445003 -5.00944,6.279449 -8.11389,6.279449 -7.12612,0 -11.21834,-8.748895 -11.21834,-22.507237 0,-11.359453 2.82222,-19.967236 10.6539,-19.967236 3.95111,0 5.85611,2.257779 7.19667,5.362226 l 2.25778,-0.917223 c -1.97556,-4.233336 -4.37445,-6.491116 -10.16001,-6.491116 -10.6539,0 -17.6389,7.972784 -17.6389,23.283349 0,13.97001 5.85611,23.636127 16.86279,23.636127 6.63222,0 9.10167,-3.457224 11.78278,-7.972783 z"
       style="font-style:normal;font-variant:normal;font-weight:normal;font-stretch:normal;font-size:70.5556px;line-height:1.25;font-family:'Dream Orphans';-inkscape-font-specification:'Dream Orphans';letter-spacing:0px;word-spacing:0px;fill:#000000;fill-opacity:1;stroke:none;stroke-width:0.264583"
       id="path851" />
    <path
       d="m 188.96214,56.762068 c -1.48167,1.199445 -2.46945,1.622779 -3.95112,1.622779 -4.51555,0 -6.27944,-4.162781 -6.27944,-8.043339 V 16.686486 h 5.92667 v -1.975557 h -5.92667 V 5.3975892 h -0.63501 c -1.27,6.2088928 -4.445,9.3133398 -10.16,9.3133398 v 1.975557 h 3.45722 V 49.35373 c 0,6.632227 3.38667,11.288896 11.43001,11.288896 2.61056,0 4.86834,-0.493889 6.77334,-2.257779 z"
       style="font-style:normal;font-variant:normal;font-weight:normal;font-stretch:normal;font-size:70.5556px;line-height:1.25;font-family:'Dream Orphans';-inkscape-font-specification:'Dream Orphans';letter-spacing:0px;word-spacing:0px;fill:#000000;fill-opacity:1;stroke:none;stroke-width:0.264583"
       id="path853" />
    <path
       d="m 189.23884,52.458176 c 1.62278,4.303892 5.57389,8.18445 12.70001,8.18445 9.45445,0 14.11112,-6.632226 14.11112,-13.47612 0,-4.092225 -1.76389,-7.267227 -4.9389,-9.454451 -2.82222,-2.046112 -7.76111,-4.16278 -11.14778,-6.773338 -2.61056,-2.046112 -3.81,-4.092224 -3.81,-6.985004 0,-5.009448 3.38667,-7.478894 7.54945,-7.478894 3.24555,0 6.06778,1.411112 7.97278,4.797781 l 2.11667,-1.834446 c -1.83445,-3.52778 -5.71501,-5.715004 -10.51279,-5.715004 -7.90223,0 -13.40556,5.644449 -13.40556,13.052787 0,3.810002 1.55222,6.985005 4.51556,9.383895 2.68111,2.187224 7.19667,4.374448 10.23056,6.561671 3.24556,2.398891 4.51556,4.65667 4.51556,7.337783 0,4.586114 -3.59834,7.902227 -8.1139,7.902227 -4.445,0 -7.69056,-3.316113 -9.24278,-7.126115 z"
       style="font-style:normal;font-variant:normal;font-weight:normal;font-stretch:normal;font-size:70.5556px;line-height:1.25;font-family:'Dream Orphans';-inkscape-font-specification:'Dream Orphans';letter-spacing:0px;word-spacing:0px;fill:#000000;fill-opacity:1;stroke:none;stroke-width:0.264583"
       id="path855" />
  </g>
</svg>
