<?xml version="1.0" encoding="UTF-8" standalone="no"?>
<svg
   xmlns:dc="http://purl.org/dc/elements/1.1/"
   xmlns:cc="http://creativecommons.org/ns#"
   xmlns:rdf="http://www.w3.org/1999/02/22-rdf-syntax-ns#"
   xmlns:svg="http://www.w3.org/2000/svg"
   xmlns="http://www.w3.org/2000/svg"
   xmlns:sodipodi="http://sodipodi.sourceforge.net/DTD/sodipodi-0.dtd"
   xmlns:inkscape="http://www.inkscape.org/namespaces/inkscape"
   width="1000"
   height="270"
   viewBox="0 0 264.58333 71.437503"
   version="1.1"
   id="svg8"
   inkscape:version="1.0 (4035a4fb49, 2020-05-01)"
   sodipodi:docname="Resume.svg">
  <defs
     id="defs2" />
  <sodipodi:namedview
     id="base"
     pagecolor="#ffffff"
     bordercolor="#666666"
     borderopacity="1.0"
     inkscape:pageopacity="0.0"
     inkscape:pageshadow="2"
     inkscape:zoom="0.98994949"
     inkscape:cx="299.92649"
     inkscape:cy="199.80215"
     inkscape:document-units="px"
     inkscape:current-layer="layer1"
     inkscape:document-rotation="0"
     showgrid="false"
     units="px"
     inkscape:window-width="2880"
     inkscape:window-height="1514"
     inkscape:window-x="-11"
     inkscape:window-y="-11"
     inkscape:window-maximized="1" />
  <metadata
     id="metadata5">
    <rdf:RDF>
      <cc:Work
         rdf:about="">
        <dc:format>image/svg+xml</dc:format>
        <dc:type
           rdf:resource="http://purl.org/dc/dcmitype/StillImage" />
        <dc:title />
      </cc:Work>
    </rdf:RDF>
  </metadata>
  <g
     inkscape:label="Layer 1"
     inkscape:groupmode="layer"
     id="layer1">
    <path
       d="m 0,3.139871 v 56.37382 h 7.3380599 v -27.16372 h 7.7612611 c 3.739462,0 6.279224,2.39885 6.279224,7.54941 v 13.47619 c 0,4.02166 2.399109,6.9851 8.537442,6.9851 1.622796,0 2.045679,-0.21209 2.892346,-0.42376 -2.751667,-0.7761 -4.092258,-2.96301 -4.092258,-6.56134 v -10.58334 c 0,-6.70279 -3.245167,-10.44257 -7.901834,-11.28924 5.291667,-1.62277 7.760759,-6.98479 7.760759,-13.54645 0,-8.81947 -4.374066,-14.81667 -13.193527,-14.81667 z m 7.3380599,1.97559 h 3.3160761 c 6.985,0 10.583333,4.1628 10.583333,13.61726 0,7.19666 -2.11672,11.57086 -6.208924,11.57086 H 7.3380599 Z m 43.9926411,8.60774 c -10.230538,0 -18.132743,10.16021 -18.132743,24.55355 0,12.34723 5.855732,22.36607 16.368527,22.36607 6.067769,0 9.243166,-3.38653 12.065397,-7.97263 l -1.693439,-0.70591 c -2.681102,4.445 -4.939003,6.27972 -7.902337,6.27972 -7.408333,0 -10.865485,-10.93618 -10.865511,-20.88451 0,-1.27 -3.18e-4,-2.54026 0.0703,-3.10473 h 24.412469 c 0,-11.14777 -4.58597,-20.53156 -14.322663,-20.53156 z m 30.819327,0 c -7.902231,0 -13.405405,5.64462 -13.405405,13.05296 0,3.81 1.552152,6.98502 4.515511,9.38392 2.681103,2.18723 7.196482,4.37414 10.230379,6.56135 3.245565,2.3989 4.515485,4.65693 4.515485,7.33806 0,4.5861 -3.598174,7.90236 -8.113712,7.90236 -4.445,0 -7.690644,-3.31618 -9.242848,-7.12618 l -2.539894,1.62264 c 1.622768,4.3039 5.573871,8.18451 12.699999,8.18451 9.454436,0 14.111261,-6.63228 14.111261,-13.47618 0,-4.09223 -1.764215,-7.26749 -4.939215,-9.45473 -2.822231,-2.0461 -7.76097,-4.16266 -11.147636,-6.77322 -2.610565,-2.04611 -3.810106,-4.09231 -3.810106,-6.98511 0,-5.00943 3.386613,-7.47861 7.549409,-7.47861 3.245538,0 6.068139,1.41097 7.973139,4.79764 l 2.116667,-1.83451 c -1.834436,-3.52777 -5.715265,-5.7149 -10.513034,-5.7149 z m 67.062062,0 c -4.1628,0 -7.61987,2.75167 -9.031,6.35 v -5.78569 l -7.33803,2.25774 v 42.96844 h 7.33803 v -34.3607 c 1.05833,-3.73944 3.4571,-8.81909 6.91433,-8.81909 2.46944,0 4.16253,2.61035 4.16253,8.25479 v 34.925 h 7.26726 v -34.3607 c 1.05833,-3.73944 3.4576,-8.81909 6.9148,-8.81909 2.46947,0 4.09226,2.61035 4.09226,8.25479 v 34.925 h 7.19648 v -34.8542 c 0,-6.35 -3.31591,-10.93629 -10.37148,-10.93629 -4.09223,0 -7.54986,1.69312 -9.94873,5.07979 -1.34056,-3.59833 -4.23312,-5.07979 -7.19645,-5.07979 z m 49.98196,0 c -10.23057,0 -18.13275,10.16021 -18.13275,24.55355 0,12.34723 5.85624,22.36607 16.36901,22.36607 6.06779,0 9.24269,-3.38653 12.06492,-7.97263 l -1.69344,-0.70591 c -2.68113,4.445 -4.93903,6.27972 -7.90236,6.27972 -7.40834,0 -10.86549,-10.93618 -10.86549,-20.88451 0,-1.27 1.9e-4,-2.54026 0.0708,-3.10473 h 24.41196 c 0,-11.14777 -4.58597,-20.53156 -14.32263,-20.53156 z m -92.77832,0.56431 -7.338057,2.32854 v 32.73753 c 0,6.8439 4.233597,11.28924 11.571397,11.28924 5.08,0 7.90215,-2.61056 9.80715,-6.35 l 1.48156,5.22087 h 5.85647 v -45.22618 l -7.33803,2.32854 v 31.75 c -0.77613,3.95113 -2.96318,9.66608 -8.11374,9.66608 -3.73944,0 -5.92675,-3.17495 -5.92675,-9.66608 z m -55.50876,1.83451 c 6.491103,0 8.819621,8.6782 8.819621,15.38097 H 41.593849 c 0.987769,-8.04333 3.386455,-15.38097 9.313121,-15.38097 z m 147.86382,0 c 6.49113,0 8.81962,8.6782 8.81962,15.38097 h -18.13324 c 0.98777,-8.04333 3.38696,-15.38097 9.31362,-15.38097 z"
       style="font-style:normal;font-variant:normal;font-weight:normal;font-stretch:normal;font-size:70.5556px;line-height:1.25;font-family:'Dream Orphans';-inkscape-font-specification:'Dream Orphans';letter-spacing:0px;word-spacing:0px;fill:#000000;fill-opacity:1;stroke:none;stroke-width:0.264583"
       id="path927" />
  </g>
</svg>
