<?xml version="1.0" encoding="UTF-8" standalone="no"?>
<svg
   xmlns:dc="http://purl.org/dc/elements/1.1/"
   xmlns:cc="http://creativecommons.org/ns#"
   xmlns:rdf="http://www.w3.org/1999/02/22-rdf-syntax-ns#"
   xmlns:svg="http://www.w3.org/2000/svg"
   xmlns="http://www.w3.org/2000/svg"
   xmlns:sodipodi="http://sodipodi.sourceforge.net/DTD/sodipodi-0.dtd"
   xmlns:inkscape="http://www.inkscape.org/namespaces/inkscape"
   sodipodi:docname="Section Texts.svg"
   inkscape:version="1.0 (4035a4fb49, 2020-05-01)"
   id="svg8"
   version="1.1"
   viewBox="0 0 264.58333 71.437503"
   height="270"
   width="1000">
  <defs
     id="defs2" />
  <sodipodi:namedview
     inkscape:window-maximized="1"
     inkscape:window-y="-11"
     inkscape:window-x="-11"
     inkscape:window-height="1514"
     inkscape:window-width="2880"
     units="px"
     showgrid="false"
     inkscape:document-rotation="0"
     inkscape:current-layer="layer1"
     inkscape:document-units="px"
     inkscape:cy="199.80215"
     inkscape:cx="299.92649"
     inkscape:zoom="0.98994949"
     inkscape:pageshadow="2"
     inkscape:pageopacity="0.0"
     borderopacity="1.0"
     bordercolor="#666666"
     pagecolor="#ffffff"
     id="base" />
  <metadata
     id="metadata5">
    <rdf:RDF>
      <cc:Work
         rdf:about="">
        <dc:format>image/svg+xml</dc:format>
        <dc:type
           rdf:resource="http://purl.org/dc/dcmitype/StillImage" />
        <dc:title></dc:title>
      </cc:Work>
    </rdf:RDF>
  </metadata>
  <g
     id="layer1"
     inkscape:groupmode="layer"
     inkscape:label="Layer 1">
    <text
       xml:space="preserve"
       style="font-style:normal;font-variant:normal;font-weight:normal;font-stretch:normal;font-size:70.5556px;line-height:1.25;font-family:'Dream Orphans';-inkscape-font-specification:'Dream Orphans';letter-spacing:0px;word-spacing:0px;fill:#000000;fill-opacity:1;stroke:none;stroke-width:0.264583"
       x="-0.56444484"
       y="-1.1288897"
       id="text842"><tspan
         sodipodi:role="line"
         id="tspan840"
         x="-0.56444484"
         y="-1.1288897"
         style="font-style:normal;font-variant:normal;font-weight:normal;font-stretch:normal;font-size:70.5556px;font-family:'Dream Orphans';-inkscape-font-specification:'Dream Orphans';stroke-width:0.264583">About</tspan></text>
    <path
       id="path864"
       style="font-style:normal;font-variant:normal;font-weight:normal;font-stretch:normal;font-size:70.5556px;line-height:1.25;font-family:'Dream Orphans';-inkscape-font-specification:'Dream Orphans';letter-spacing:0px;word-spacing:0px;fill:#000000;fill-opacity:1;stroke:none;stroke-width:0.264583"
       d="m 39.078751,1.940461 -7.337536,2.32854 v 55.24469 h 5.855973 l 1.481563,-5.15059 c 1.12889,3.88056 4.304327,6.27972 8.749337,6.27972 9.101669,0 14.74587,-10.01874 14.74587,-24.90597 0,-13.40556 -4.656797,-22.01365 -13.194028,-22.01365 -4.656669,0 -8.46673,2.54016 -10.301179,7.76129 z M 10.583333,3.139871 0,59.513691 h 2.6809726 l 2.398821,-12.77028 H 18.979203 l 2.328539,12.77028 h 7.408333 L 17.920869,3.139871 Z m 135.175727,2.25774 c -1.27,6.2089 -4.4451,9.31365 -10.1601,9.31365 v 1.97506 h 3.45715 v 32.66726 c 0,6.63223 3.38698,11.28924 11.43032,11.28924 2.61056,0 4.86822,-0.49384 6.77322,-2.25774 l -0.6351,-1.62317 c -1.48167,1.19944 -2.46952,1.62317 -3.95118,1.62317 -4.51557,0 -6.2792,-4.16287 -6.2792,-8.04344 v -33.65532 h 5.92677 v -1.97506 h -5.92677 V 5.397611 Z M 12.135694,9.489871 18.62677,44.697021 H 5.4327424 Z m 71.531032,4.23333 c -12.91168,0 -17.074409,10.30103 -17.074409,24.62382 0,14.67556 4.374507,22.2958 15.592845,22.2958 10.37168,0 17.215488,-6.56185 17.215488,-24.55354 0,-14.88723 -4.797804,-22.36608 -15.733924,-22.36608 z m 27.480494,0.56431 -7.33805,2.32854 v 32.73753 c 0,6.8439 4.2336,11.28924 11.57138,11.28924 5.08001,0 7.90216,-2.61056 9.80716,-6.35 l 1.48156,5.22087 h 5.85597 v -45.22618 l -7.33753,2.32854 v 31.75 c -0.77611,3.95113 -2.96316,9.66608 -8.11372,9.66608 -3.73945,0 -5.92677,-3.17495 -5.92677,-9.66608 z m -29.526364,1.97559 c 6.20889,0 10.794691,7.83174 10.794691,24.05951 0,13.54669 -3.245581,18.06247 -8.325591,18.06247 -6.773328,0 -10.089306,-7.90244 -10.089306,-23.35414 0,-13.68776 2.610758,-18.76784 7.620206,-18.76784 z m -34.568949,0.98806 c 6.561679,0 7.972641,9.80694 7.972641,20.1786 0,13.40557 -2.258009,21.37855 -7.47913,21.37855 -3.739441,0 -7.196667,-4.44492 -8.466667,-9.80715 v -23.35414 c 1.27,-5.15056 4.163156,-8.39586 7.973156,-8.39586 z" />
    <path
       id="path881"
       style="font-style:normal;font-variant:normal;font-weight:normal;font-stretch:normal;font-size:70.5556px;line-height:1.25;font-family:'Dream Orphans';-inkscape-font-specification:'Dream Orphans';letter-spacing:0px;word-spacing:0px;fill:#000000;fill-opacity:1;stroke:none;stroke-width:0.264583"
       d="m 68.6847,0.74105105 c -2.328333,0 -4.304136,1.90473995 -4.304136,4.30360995 0,2.32833 1.975803,4.37494 4.304136,4.37494 2.328333,0 4.233333,-2.04661 4.233333,-4.37494 0,-2.39887 -1.763897,-4.30360995 -4.233333,-4.30360995 z M 38.863778,1.940461 31.526247,4.269001 v 55.24469 h 7.337531 v -20.03753 l 3.174999,-3.52796 11.853545,23.56549 h 7.902364 L 47.119095,30.233311 60.947701,14.711261 h -2.822045 l -19.261878,21.30774 z m 45.888671,0 -7.337531,2.32854 v 55.24469 h 7.337531 z m 12.264892,0 -7.33806,2.32854 v 55.24469 h 7.33806 z m -81.706639,0.63511 c -8.6783493,0 -13.8291385,5.78535 -13.8291385,13.54645 0,4.3039 1.5521886,7.90234 4.3744091,11.21844 3.1044382,3.73946 8.2548704,7.69064 11.1476394,11.21844 2.116666,2.61056 3.245802,5.22097 3.245802,9.03097 0,6.91446 -3.457231,10.51306 -8.466666,10.51306 -5.0094544,0 -8.1842745,-3.66893 -9.172054,-7.26726 L 0,52.458311 c 1.905,4.9389 5.2916005,8.18451 11.923823,8.18451 9.101667,0 15.522046,-6.20905 15.522046,-14.11128 0,-4.79777 -2.328333,-9.3839 -5.291666,-12.7 -2.257769,-2.3989 -8.748581,-8.25479 -10.794683,-10.37146 -2.5399998,-2.6811 -3.4571515,-5.36215 -3.4571515,-8.74882 0,-6.27946 3.2451935,-9.5958 7.7607585,-9.5958 3.739462,0 6.138439,2.25777 8.043439,5.29167 l 2.187469,-1.69344 c -2.822231,-3.9511 -5.221102,-6.13812 -10.583333,-6.13812 z m 99.192398,11.14763 c -7.90223,0 -13.40591,5.64462 -13.40591,13.05296 0,3.81 1.55215,6.98502 4.51548,9.38392 2.68111,2.18723 7.19702,4.37414 10.23091,6.56135 3.24554,2.3989 4.51549,4.65693 4.51549,7.33806 0,4.5861 -3.59871,7.90236 -8.11424,7.90236 -4.445,0 -7.69009,-3.31618 -9.24232,-7.12618 l -2.54043,1.62264 c 1.62277,4.3039 5.57388,8.18451 12.7,8.18451 9.45447,0 14.11129,-6.63228 14.11129,-13.47618 0,-4.09223 -1.76371,-7.26749 -4.93871,-9.45473 -2.82223,-2.0461 -7.7615,-4.16266 -11.14817,-6.77322 -2.61056,-2.04611 -3.80957,-4.09231 -3.80957,-6.98511 0,-5.00943 3.38661,-7.47861 7.54941,-7.47861 3.24553,0 6.06763,1.41097 7.97263,4.79764 l 2.11667,-1.83451 c -1.83446,-3.52777 -5.71476,-5.7149 -10.51253,-5.7149 z m -42.290446,0.56431 -7.33806,2.25774 v 42.96844 h 7.33806 z" />
    <path
       id="path901"
       style="font-style:normal;font-variant:normal;font-weight:normal;font-stretch:normal;font-size:70.5556px;line-height:1.25;font-family:'Dream Orphans';-inkscape-font-specification:'Dream Orphans';letter-spacing:0px;word-spacing:0px;fill:#000000;fill-opacity:1;stroke:none;stroke-width:0.264583"
       d="m 95.415363,0.74105105 c -2.398897,0 -4.233333,1.97556995 -4.233333,4.23332995 0,2.3989 1.834436,4.44522 4.233333,4.44522 2.328334,0 4.304136,-1.97578 4.304136,-4.44522 0,-2.32833 -1.975802,-4.23332995 -4.304136,-4.23332995 z M 0,3.139871 v 56.37382 h 7.3380599 v -24.34167 h 3.8803791 c 12.982231,0 17.850591,-5.29148 17.850591,-16.58038 0,-9.59556 -3.598651,-15.45177 -13.546984,-15.45177 z m 7.3380599,1.97559 h 3.8803791 c 8.748898,0 10.371455,6.49134 10.371455,13.82914 0,6.985 -1.481508,14.18156 -10.089303,14.18156 H 7.3380599 Z M 178.09662,5.397611 c -1.27,6.2089 -4.4451,9.31365 -10.1601,9.31365 v 1.97506 h 3.45768 v 32.66726 c 0,6.63223 3.38643,11.28924 11.42979,11.28924 2.61053,0 4.8682,-0.49384 6.77322,-2.25774 l -0.6351,-1.62317 c -1.48167,1.19944 -2.46952,1.62317 -3.95118,1.62317 -4.51557,0 -6.2792,-4.16287 -6.2792,-8.04344 v -33.65532 h 5.92677 v -1.97506 h -5.92677 v -9.31365 z m -128.375618,8.32559 c -3.880564,0 -6.914806,3.31626 -9.172575,10.93629 v -10.37198 l -7.337531,2.25774 v 42.96844 h 7.337531 v -30.47979 c 1.622769,-5.22113 4.303818,-9.66608 7.690485,-9.66608 0.776102,0 1.481693,0.21154 1.975591,0.56431 l 3.527954,-4.58629 c -1.128898,-1.05833 -2.398686,-1.62264 -4.021455,-1.62264 z m 20.119181,0 c -12.911693,0 -17.074409,10.30103 -17.074409,24.62382 0,14.67556 4.374515,22.2958 15.592848,22.2958 10.371667,0 17.215485,-6.56185 17.215485,-24.55354 0,-14.88723 -4.797795,-22.36608 -15.733924,-22.36608 z m 51.632507,0 c -10.23056,0 -18.13274,10.16021 -18.13274,24.55355 0,12.34723 5.85571,22.36607 16.3685,22.36607 6.06777,0 9.24319,-3.38653 12.06543,-7.97263 l -1.69344,-0.70591 c -2.68113,4.445 -4.93903,6.27972 -7.90237,6.27972 -7.40833,0 -10.86548,-10.93618 -10.86548,-20.88451 0,-1.27 1.8e-4,-2.54026 0.0708,-3.10473 h 24.41194 c 0,-11.14777 -4.58597,-20.53156 -14.32264,-20.53156 z m 35.33479,0 c -10.6539,0 -17.63871,7.97277 -17.63871,23.28334 0,13.97 5.85586,23.63628 16.86253,23.63628 6.63223,0 9.10214,-3.45707 11.78327,-7.97263 l -1.62317,-0.70591 c -2.54,4.445 -5.00927,6.27972 -8.11371,6.27972 -7.12613,0 -11.21844,-8.74881 -11.21844,-22.50715 0,-11.35946 2.82247,-19.96725 10.65414,-19.96725 3.9511,0 5.85589,2.25747 7.19645,5.36194 l 2.25775,-0.91726 c -1.97557,-4.23334 -4.37455,-6.49108 -10.16011,-6.49108 z m 46.4721,0 c -7.90223,0 -13.40537,5.64462 -13.40537,13.05296 0,3.81 1.55215,6.98502 4.51548,9.38392 2.6811,2.18723 7.19648,4.37414 10.23038,6.56135 3.24554,2.3989 4.51548,4.65693 4.51548,7.33806 0,4.5861 -3.59814,7.90236 -8.11371,7.90236 -4.445,0 -7.69064,-3.31618 -9.24285,-7.12618 l -2.53989,1.62264 c 1.62277,4.3039 5.57387,8.18451 12.7,8.18451 9.45443,0 14.11076,-6.63228 14.11076,-13.47618 0,-4.09223 -1.76372,-7.26749 -4.93872,-9.45473 -2.82223,-2.0461 -7.76097,-4.16266 -11.14763,-6.77322 -2.61057,-2.04611 -3.81011,-4.09231 -3.81011,-6.98511 0,-5.00943 3.38662,-7.47861 7.54941,-7.47861 3.24557,0 6.06764,1.41097 7.97264,4.79764 l 2.11666,-1.83451 c -1.83443,-3.52777 -5.71476,-5.7149 -10.51253,-5.7149 z m -104.407065,0.56431 -7.408333,2.25774 v 41.98091 c 0,6.35 -3.739304,9.38392 -12.20597,11.50059 l 0.776182,1.41075 c 14.675564,-2.32833 18.838121,-6.42024 18.838121,-17.14468 z m 22.176425,1.83451 c 6.49113,0 8.81962,8.6782 8.81962,15.38097 h -18.13274 c 0.98776,-8.04333 3.38645,-15.38097 9.31312,-15.38097 z m -53.254621,0.14108 c 6.208871,0 10.794682,7.83174 10.794682,24.05951 0,13.54669 -3.24559,18.06247 -8.32559,18.06247 -6.773334,0 -10.089304,-7.90244 -10.089304,-23.35414 0,-13.68776 2.61075,-18.76784 7.620212,-18.76784 z" />
    <path
       id="path927"
       style="font-style:normal;font-variant:normal;font-weight:normal;font-stretch:normal;font-size:70.5556px;line-height:1.25;font-family:'Dream Orphans';-inkscape-font-specification:'Dream Orphans';letter-spacing:0px;word-spacing:0px;fill:#000000;fill-opacity:1;stroke:none;stroke-width:0.264583"
       d="m 0,3.139871 v 56.37382 h 7.3380599 v -27.16372 h 7.7612611 c 3.739462,0 6.279224,2.39885 6.279224,7.54941 v 13.47619 c 0,4.02166 2.399109,6.9851 8.537442,6.9851 1.622796,0 2.045679,-0.21209 2.892346,-0.42376 -2.751667,-0.7761 -4.092258,-2.96301 -4.092258,-6.56134 v -10.58334 c 0,-6.70279 -3.245167,-10.44257 -7.901834,-11.28924 5.291667,-1.62277 7.760759,-6.98479 7.760759,-13.54645 0,-8.81947 -4.374066,-14.81667 -13.193527,-14.81667 z m 7.3380599,1.97559 h 3.3160761 c 6.985,0 10.583333,4.1628 10.583333,13.61726 0,7.19666 -2.11672,11.57086 -6.208924,11.57086 H 7.3380599 Z m 43.9926411,8.60774 c -10.230538,0 -18.132743,10.16021 -18.132743,24.55355 0,12.34723 5.855732,22.36607 16.368527,22.36607 6.067769,0 9.243166,-3.38653 12.065397,-7.97263 l -1.693439,-0.70591 c -2.681102,4.445 -4.939003,6.27972 -7.902337,6.27972 -7.408333,0 -10.865485,-10.93618 -10.865511,-20.88451 0,-1.27 -3.18e-4,-2.54026 0.0703,-3.10473 h 24.412469 c 0,-11.14777 -4.58597,-20.53156 -14.322663,-20.53156 z m 30.819327,0 c -7.902231,0 -13.405405,5.64462 -13.405405,13.05296 0,3.81 1.552152,6.98502 4.515511,9.38392 2.681103,2.18723 7.196482,4.37414 10.230379,6.56135 3.245565,2.3989 4.515485,4.65693 4.515485,7.33806 0,4.5861 -3.598174,7.90236 -8.113712,7.90236 -4.445,0 -7.690644,-3.31618 -9.242848,-7.12618 l -2.539894,1.62264 c 1.622768,4.3039 5.573871,8.18451 12.699999,8.18451 9.454436,0 14.111261,-6.63228 14.111261,-13.47618 0,-4.09223 -1.764215,-7.26749 -4.939215,-9.45473 -2.822231,-2.0461 -7.76097,-4.16266 -11.147636,-6.77322 -2.610565,-2.04611 -3.810106,-4.09231 -3.810106,-6.98511 0,-5.00943 3.386613,-7.47861 7.549409,-7.47861 3.245538,0 6.068139,1.41097 7.973139,4.79764 l 2.116667,-1.83451 c -1.834436,-3.52777 -5.715265,-5.7149 -10.513034,-5.7149 z m 67.062062,0 c -4.1628,0 -7.61987,2.75167 -9.031,6.35 v -5.78569 l -7.33803,2.25774 v 42.96844 h 7.33803 v -34.3607 c 1.05833,-3.73944 3.4571,-8.81909 6.91433,-8.81909 2.46944,0 4.16253,2.61035 4.16253,8.25479 v 34.925 h 7.26726 v -34.3607 c 1.05833,-3.73944 3.4576,-8.81909 6.9148,-8.81909 2.46947,0 4.09226,2.61035 4.09226,8.25479 v 34.925 h 7.19648 v -34.8542 c 0,-6.35 -3.31591,-10.93629 -10.37148,-10.93629 -4.09223,0 -7.54986,1.69312 -9.94873,5.07979 -1.34056,-3.59833 -4.23312,-5.07979 -7.19645,-5.07979 z m 49.98196,0 c -10.23057,0 -18.13275,10.16021 -18.13275,24.55355 0,12.34723 5.85624,22.36607 16.36901,22.36607 6.06779,0 9.24269,-3.38653 12.06492,-7.97263 l -1.69344,-0.70591 c -2.68113,4.445 -4.93903,6.27972 -7.90236,6.27972 -7.40834,0 -10.86549,-10.93618 -10.86549,-20.88451 0,-1.27 1.9e-4,-2.54026 0.0708,-3.10473 h 24.41196 c 0,-11.14777 -4.58597,-20.53156 -14.32263,-20.53156 z m -92.77832,0.56431 -7.338057,2.32854 v 32.73753 c 0,6.8439 4.233597,11.28924 11.571397,11.28924 5.08,0 7.90215,-2.61056 9.80715,-6.35 l 1.48156,5.22087 h 5.85647 v -45.22618 l -7.33803,2.32854 v 31.75 c -0.77613,3.95113 -2.96318,9.66608 -8.11374,9.66608 -3.73944,0 -5.92675,-3.17495 -5.92675,-9.66608 z m -55.50876,1.83451 c 6.491103,0 8.819621,8.6782 8.819621,15.38097 H 41.593849 c 0.987769,-8.04333 3.386455,-15.38097 9.313121,-15.38097 z m 147.86382,0 c 6.49113,0 8.81962,8.6782 8.81962,15.38097 h -18.13324 c 0.98777,-8.04333 3.38696,-15.38097 9.31362,-15.38097 z" />
    <path
       id="path947"
       style="font-style:normal;font-variant:normal;font-weight:normal;font-stretch:normal;font-size:70.5556px;line-height:1.25;font-family:'Dream Orphans';-inkscape-font-specification:'Dream Orphans';letter-spacing:0px;word-spacing:0px;fill:#000000;fill-opacity:1;stroke:none;stroke-width:0.264583"
       d="M 19.896984,2.575571 C 5.7858553,2.575571 0,12.382661 0,32.632131 c 0,20.17889 5.7858024,28.01069 17.004136,28.01069 6.914462,0 12.91156,-2.9633 16.298227,-9.66607 h -2.892848 c -1.763898,4.37443 -6.914092,7.4786 -10.935759,7.4786 -7.549462,0 -11.7827419,-11.50051 -11.7827419,-27.65774 0,-16.01613 4.1625039,-26.24645 12.7702729,-26.24645 4.868334,0 8.67836,3.31578 10.442258,7.61968 l 2.963121,-0.77618 C 30.197795,4.621321 26.388113,2.575571 19.896984,2.575571 Z m 93.858876,2.82204 c -1.27,6.2089 -4.44511,9.31365 -10.16011,9.31365 v 1.97506 h 3.45715 v 32.66726 c 0,6.63223 3.38646,11.28924 11.42979,11.28924 2.61056,0 4.86876,-0.49384 6.77376,-2.25774 l -0.63511,-1.62317 c -1.48167,1.19944 -2.46951,1.62317 -3.95118,1.62317 -4.51556,0 -6.27973,-4.16287 -6.27973,-8.04344 v -33.65532 h 5.92678 v -1.97506 h -5.92678 v -9.31365 z m 83.50911,0 c -1.27,6.2089 -4.44511,9.31365 -10.16011,9.31365 v 1.97506 h 3.45716 v 32.66726 c 0,6.63223 3.38645,11.28924 11.42978,11.28924 2.61057,0 4.86876,-0.49384 6.77376,-2.25774 l -0.63511,-1.62317 c -1.48166,1.19944 -2.46951,1.62317 -3.95118,1.62317 -4.51556,0 -6.27919,-4.16287 -6.27919,-8.04344 v -33.65532 h 5.92624 v -1.97506 h -5.92624 v -9.31365 z m -145.60145,8.32559 c -12.911693,0 -17.074409,10.30103 -17.074409,24.62382 0,14.67556 4.374515,22.2958 15.592848,22.2958 10.371667,0 17.215485,-6.56185 17.215485,-24.55354 0,-14.88723 -4.797795,-22.36608 -15.733924,-22.36608 z m 37.710877,0 c -6.420565,0 -9.03097,4.37454 -10.089303,6.98511 v -6.4208 l -7.33806,2.25774 v 42.96844 h 7.33806 v -34.00775 c 1.058333,-4.86833 3.31589,-8.18451 7.196454,-8.18451 4.021667,0 6.84403,3.52785 6.84403,9.24285 v 32.94941 h 7.337532 v -34.00775 c 0,-6.84389 -4.444816,-11.78274 -11.288713,-11.78274 z m 51.892433,0 c -5.78556,0 -10.30097,2.04595 -13.2643,5.99705 l 2.25774,1.12913 c 2.3989,-3.03389 4.51557,-4.44521 8.32559,-4.44521 5.78557,0 7.83157,3.24596 7.83157,8.89043 v 5.22086 c -2.46947,2.18723 -3.31624,2.54026 -10.01903,5.22139 -6.2089,2.46944 -11.28872,5.71474 -11.28872,13.68753 0,6.27947 3.24536,11.21844 11.42979,11.21844 6.0678,0 8.39605,-2.61054 9.80715,-5.43274 0,1.19944 0.5646,2.96304 1.55237,4.30361 h 7.62021 c -1.27,-1.55223 -1.76424,-3.31574 -1.76424,-5.78517 v -29.49226 c 0,-5.64446 -3.59813,-10.51306 -12.48813,-10.51306 z m 34.709,0 c -10.6539,0 -17.63871,7.97277 -17.63871,23.28334 0,13.97 5.85586,23.63628 16.86253,23.63628 6.63223,0 9.10164,-3.45707 11.78274,-7.97263 l -1.62264,-0.70591 c -2.54,4.445 -5.00927,6.27972 -8.11371,6.27972 -7.12613,0 -11.21844,-8.74881 -11.21844,-22.50715 0,-11.35946 2.82194,-19.96725 10.65361,-19.96725 3.9511,0 5.85642,2.25747 7.19698,5.36194 l 2.25774,-0.91726 c -1.97556,-4.23334 -4.37454,-6.49108 -10.1601,-6.49108 z m -126.358703,2.5399 c 6.208897,0 10.795211,7.83174 10.795211,24.05951 0,13.54669 -3.245591,18.06247 -8.325591,18.06247 -6.773333,0 -10.089303,-7.90244 -10.089303,-23.35414 0,-13.68776 2.610247,-18.76784 7.619683,-18.76784 z m 96.800303,16.5809 v 17.35657 c -1.1289,4.37443 -3.95103,8.25478 -7.83157,8.25478 -4.23333,0 -6.13865,-4.37446 -6.13865,-10.44225 0,-5.50334 1.55247,-8.60756 5.36247,-10.37146 4.72723,-2.25777 6.56164,-3.17487 8.60775,-4.79764 z" />
  </g>
</svg>
