<?xml version="1.0" encoding="UTF-8" standalone="no"?>
<svg
   xmlns:dc="http://purl.org/dc/elements/1.1/"
   xmlns:cc="http://creativecommons.org/ns#"
   xmlns:rdf="http://www.w3.org/1999/02/22-rdf-syntax-ns#"
   xmlns:svg="http://www.w3.org/2000/svg"
   xmlns="http://www.w3.org/2000/svg"
   xmlns:sodipodi="http://sodipodi.sourceforge.net/DTD/sodipodi-0.dtd"
   xmlns:inkscape="http://www.inkscape.org/namespaces/inkscape"
   width="1000"
   height="270"
   viewBox="0 0 264.58333 71.437503"
   version="1.1"
   id="svg8"
   inkscape:version="1.0 (4035a4fb49, 2020-05-01)"
   sodipodi:docname="Skills.svg">
  <defs
     id="defs2" />
  <sodipodi:namedview
     id="base"
     pagecolor="#ffffff"
     bordercolor="#666666"
     borderopacity="1.0"
     inkscape:pageopacity="0.0"
     inkscape:pageshadow="2"
     inkscape:zoom="0.98994949"
     inkscape:cx="299.92649"
     inkscape:cy="199.80215"
     inkscape:document-units="px"
     inkscape:current-layer="layer1"
     inkscape:document-rotation="0"
     showgrid="false"
     units="px"
     inkscape:window-width="2880"
     inkscape:window-height="1514"
     inkscape:window-x="-11"
     inkscape:window-y="-11"
     inkscape:window-maximized="1" />
  <metadata
     id="metadata5">
    <rdf:RDF>
      <cc:Work
         rdf:about="">
        <dc:format>image/svg+xml</dc:format>
        <dc:type
           rdf:resource="http://purl.org/dc/dcmitype/StillImage" />
        <dc:title />
      </cc:Work>
    </rdf:RDF>
  </metadata>
  <g
     inkscape:label="Layer 1"
     inkscape:groupmode="layer"
     id="layer1">
    <path
       d="m 68.6847,0.74105105 c -2.328333,0 -4.304136,1.90473995 -4.304136,4.30360995 0,2.32833 1.975803,4.37494 4.304136,4.37494 2.328333,0 4.233333,-2.04661 4.233333,-4.37494 0,-2.39887 -1.763897,-4.30360995 -4.233333,-4.30360995 z M 38.863778,1.940461 31.526247,4.269001 v 55.24469 h 7.337531 v -20.03753 l 3.174999,-3.52796 11.853545,23.56549 h 7.902364 L 47.119095,30.233311 60.947701,14.711261 h -2.822045 l -19.261878,21.30774 z m 45.888671,0 -7.337531,2.32854 v 55.24469 h 7.337531 z m 12.264892,0 -7.33806,2.32854 v 55.24469 h 7.33806 z m -81.706639,0.63511 c -8.6783493,0 -13.8291385,5.78535 -13.8291385,13.54645 0,4.3039 1.5521886,7.90234 4.3744091,11.21844 3.1044382,3.73946 8.2548704,7.69064 11.1476394,11.21844 2.116666,2.61056 3.245802,5.22097 3.245802,9.03097 0,6.91446 -3.457231,10.51306 -8.466666,10.51306 -5.0094544,0 -8.1842745,-3.66893 -9.172054,-7.26726 L 0,52.458311 c 1.905,4.9389 5.2916005,8.18451 11.923823,8.18451 9.101667,0 15.522046,-6.20905 15.522046,-14.11128 0,-4.79777 -2.328333,-9.3839 -5.291666,-12.7 -2.257769,-2.3989 -8.748581,-8.25479 -10.794683,-10.37146 -2.5399998,-2.6811 -3.4571515,-5.36215 -3.4571515,-8.74882 0,-6.27946 3.2451935,-9.5958 7.7607585,-9.5958 3.739462,0 6.138439,2.25777 8.043439,5.29167 l 2.187469,-1.69344 c -2.822231,-3.9511 -5.221102,-6.13812 -10.583333,-6.13812 z m 99.192398,11.14763 c -7.90223,0 -13.40591,5.64462 -13.40591,13.05296 0,3.81 1.55215,6.98502 4.51548,9.38392 2.68111,2.18723 7.19702,4.37414 10.23091,6.56135 3.24554,2.3989 4.51549,4.65693 4.51549,7.33806 0,4.5861 -3.59871,7.90236 -8.11424,7.90236 -4.445,0 -7.69009,-3.31618 -9.24232,-7.12618 l -2.54043,1.62264 c 1.62277,4.3039 5.57388,8.18451 12.7,8.18451 9.45447,0 14.11129,-6.63228 14.11129,-13.47618 0,-4.09223 -1.76371,-7.26749 -4.93871,-9.45473 -2.82223,-2.0461 -7.7615,-4.16266 -11.14817,-6.77322 -2.61056,-2.04611 -3.80957,-4.09231 -3.80957,-6.98511 0,-5.00943 3.38661,-7.47861 7.54941,-7.47861 3.24553,0 6.06763,1.41097 7.97263,4.79764 l 2.11667,-1.83451 c -1.83446,-3.52777 -5.71476,-5.7149 -10.51253,-5.7149 z m -42.290446,0.56431 -7.33806,2.25774 v 42.96844 h 7.33806 z"
       style="font-style:normal;font-variant:normal;font-weight:normal;font-stretch:normal;font-size:70.5556px;line-height:1.25;font-family:'Dream Orphans';-inkscape-font-specification:'Dream Orphans';letter-spacing:0px;word-spacing:0px;fill:#000000;fill-opacity:1;stroke:none;stroke-width:0.264583"
       id="path881" />
  </g>
</svg>
